<svg width="21" height="21" viewBox="0 0 21 21" fill="none" xmlns="http://www.w3.org/2000/svg">
<rect width="20.8889" height="20.8889" rx="10.4444" fill="#3AA517"/>
<path d="M7.44434 8.94531V11.9453V12.1363C7.44434 12.3257 7.55134 12.4988 7.72073 12.5835L10.7207 14.0835C11.0532 14.2497 11.4443 14.008 11.4443 13.6363V7.25433C11.4443 6.88264 11.0532 6.64089 10.7207 6.80712L7.72073 8.30712C7.55134 8.39181 7.44434 8.56494 7.44434 8.75433V8.94531Z" fill="white"/>
<path d="M7.44434 11.9453V8.94531C7.44434 8.66917 7.22048 8.44531 6.94434 8.44531H6.44434C5.89205 8.44531 5.44434 8.89303 5.44434 9.44531V11.4453C5.44434 11.9976 5.89205 12.4453 6.44434 12.4453H6.94434C7.22048 12.4453 7.44434 12.2215 7.44434 11.9453Z" fill="white"/>
<path d="M7.44434 8.94531V11.9453M7.44434 8.94531C7.44434 8.66917 7.22048 8.44531 6.94434 8.44531H6.44434C5.89205 8.44531 5.44434 8.89303 5.44434 9.44531V11.4453C5.44434 11.9976 5.89205 12.4453 6.44434 12.4453H6.94434C7.22048 12.4453 7.44434 12.2215 7.44434 11.9453M7.44434 8.94531V8.75433C7.44434 8.56494 7.55134 8.39181 7.72073 8.30712L10.7207 6.80712C11.0532 6.64089 11.4443 6.88264 11.4443 7.25433V13.6363C11.4443 14.008 11.0532 14.2497 10.7207 14.0835L7.72073 12.5835C7.55134 12.4988 7.44434 12.3257 7.44434 12.1363V11.9453M13.4443 7.44531L14.4443 6.44531M13.4443 13.4453L14.4443 14.4453M13.4443 10.4453H14.9443" stroke="white" stroke-width="0.75" stroke-linecap="round"/>
</svg>
