<svg width="16" height="16" viewBox="0 0 16 16" fill="none" xmlns="http://www.w3.org/2000/svg">
<path d="M8.00023 6.00023L8.00023 3.33356M8.00023 12.6669V10.0002M10.0002 8.00023H12.6669M3.33356 8.00023L6.00023 8.00023M10.0002 12.0002L8.47163 13.5288C8.21128 13.7892 7.78917 13.7892 7.52882 13.5288L6.00023 12.0002M4.00023 10.0002L2.47163 8.47163C2.21128 8.21128 2.21128 7.78917 2.47163 7.52882L4.00023 6.00023M10.0002 4.00023L8.47163 2.47163C8.21128 2.21128 7.78917 2.21128 7.52882 2.47163L6.00023 4.00023M12.0002 10.0002L13.5288 8.47163C13.7892 8.21128 13.7892 7.78917 13.5288 7.52882L12.0002 6.00023" stroke="#676768" stroke-width="1.2" stroke-linecap="round"/>
</svg>
