<svg width="15" height="12" viewBox="0 0 15 12" fill="none" xmlns="http://www.w3.org/2000/svg">
<path d="M12.5996 5.93294H12.3329C11.7438 5.93294 11.2663 6.41051 11.2663 6.99961C11.2663 7.14689 11.1469 7.26628 10.9996 7.26628H3.53294C3.38567 7.26628 3.26628 7.14689 3.26628 6.99961C3.26628 6.41051 2.78871 5.93294 2.19961 5.93294H1.93294M12.5996 5.93294C13.336 5.93294 13.9329 6.5299 13.9329 7.26628V8.59961C13.9329 9.33599 13.336 9.93294 12.5996 9.93294H1.93294C1.19656 9.93294 0.599609 9.33599 0.599609 8.59961V7.26628C0.599609 6.5299 1.19656 5.93294 1.93294 5.93294M12.5996 5.93294V3.26628C12.5996 1.79352 11.4057 0.599609 9.93294 0.599609H4.59961C3.12685 0.599609 1.93294 1.79352 1.93294 3.26628V5.93294M3.26628 9.93294V11.2663M11.2663 9.93294V11.2663M7.26628 7.26628V0.599609M5.93294 3.93294H8.59961" stroke="#49494B" stroke-width="1.2" stroke-linecap="round"/>
<path d="M12.5996 5.93294H12.3329C11.7438 5.93294 11.2663 6.41051 11.2663 6.99961C11.2663 7.14689 11.1469 7.26628 10.9996 7.26628H3.53294C3.38567 7.26628 3.26628 7.14689 3.26628 6.99961C3.26628 6.41051 2.78871 5.93294 2.19961 5.93294H1.93294M12.5996 5.93294C13.336 5.93294 13.9329 6.5299 13.9329 7.26628V8.59961C13.9329 9.33599 13.336 9.93294 12.5996 9.93294H1.93294C1.19656 9.93294 0.599609 9.33599 0.599609 8.59961V7.26628C0.599609 6.5299 1.19656 5.93294 1.93294 5.93294M12.5996 5.93294V3.26628C12.5996 1.79352 11.4057 0.599609 9.93294 0.599609H4.59961C3.12685 0.599609 1.93294 1.79352 1.93294 3.26628V5.93294M3.26628 9.93294V11.2663M11.2663 9.93294V11.2663M7.26628 7.26628V0.599609M5.93294 3.93294H8.59961" stroke="black" stroke-opacity="0.2" stroke-width="1.2" stroke-linecap="round"/>
<path d="M12.5996 5.93294H12.3329C11.7438 5.93294 11.2663 6.41051 11.2663 6.99961C11.2663 7.14689 11.1469 7.26628 10.9996 7.26628H3.53294C3.38567 7.26628 3.26628 7.14689 3.26628 6.99961C3.26628 6.41051 2.78871 5.93294 2.19961 5.93294H1.93294M12.5996 5.93294C13.336 5.93294 13.9329 6.5299 13.9329 7.26628V8.59961C13.9329 9.33599 13.336 9.93294 12.5996 9.93294H1.93294C1.19656 9.93294 0.599609 9.33599 0.599609 8.59961V7.26628C0.599609 6.5299 1.19656 5.93294 1.93294 5.93294M12.5996 5.93294V3.26628C12.5996 1.79352 11.4057 0.599609 9.93294 0.599609H4.59961C3.12685 0.599609 1.93294 1.79352 1.93294 3.26628V5.93294M3.26628 9.93294V11.2663M11.2663 9.93294V11.2663M7.26628 7.26628V0.599609M5.93294 3.93294H8.59961" stroke="black" stroke-opacity="0.2" stroke-width="1.2" stroke-linecap="round"/>
<path d="M12.5996 5.93294H12.3329C11.7438 5.93294 11.2663 6.41051 11.2663 6.99961C11.2663 7.14689 11.1469 7.26628 10.9996 7.26628H3.53294C3.38567 7.26628 3.26628 7.14689 3.26628 6.99961C3.26628 6.41051 2.78871 5.93294 2.19961 5.93294H1.93294M12.5996 5.93294C13.336 5.93294 13.9329 6.5299 13.9329 7.26628V8.59961C13.9329 9.33599 13.336 9.93294 12.5996 9.93294H1.93294C1.19656 9.93294 0.599609 9.33599 0.599609 8.59961V7.26628C0.599609 6.5299 1.19656 5.93294 1.93294 5.93294M12.5996 5.93294V3.26628C12.5996 1.79352 11.4057 0.599609 9.93294 0.599609H4.59961C3.12685 0.599609 1.93294 1.79352 1.93294 3.26628V5.93294M3.26628 9.93294V11.2663M11.2663 9.93294V11.2663M7.26628 7.26628V0.599609M5.93294 3.93294H8.59961" stroke="black" stroke-opacity="0.2" stroke-width="1.2" stroke-linecap="round"/>
<path d="M12.5996 5.93294H12.3329C11.7438 5.93294 11.2663 6.41051 11.2663 6.99961C11.2663 7.14689 11.1469 7.26628 10.9996 7.26628H3.53294C3.38567 7.26628 3.26628 7.14689 3.26628 6.99961C3.26628 6.41051 2.78871 5.93294 2.19961 5.93294H1.93294M12.5996 5.93294C13.336 5.93294 13.9329 6.5299 13.9329 7.26628V8.59961C13.9329 9.33599 13.336 9.93294 12.5996 9.93294H1.93294C1.19656 9.93294 0.599609 9.33599 0.599609 8.59961V7.26628C0.599609 6.5299 1.19656 5.93294 1.93294 5.93294M12.5996 5.93294V3.26628C12.5996 1.79352 11.4057 0.599609 9.93294 0.599609H4.59961C3.12685 0.599609 1.93294 1.79352 1.93294 3.26628V5.93294M3.26628 9.93294V11.2663M11.2663 9.93294V11.2663M7.26628 7.26628V0.599609M5.93294 3.93294H8.59961" stroke="black" stroke-opacity="0.2" stroke-width="1.2" stroke-linecap="round"/>
<path d="M12.5996 5.93294H12.3329C11.7438 5.93294 11.2663 6.41051 11.2663 6.99961C11.2663 7.14689 11.1469 7.26628 10.9996 7.26628H3.53294C3.38567 7.26628 3.26628 7.14689 3.26628 6.99961C3.26628 6.41051 2.78871 5.93294 2.19961 5.93294H1.93294M12.5996 5.93294C13.336 5.93294 13.9329 6.5299 13.9329 7.26628V8.59961C13.9329 9.33599 13.336 9.93294 12.5996 9.93294H1.93294C1.19656 9.93294 0.599609 9.33599 0.599609 8.59961V7.26628C0.599609 6.5299 1.19656 5.93294 1.93294 5.93294M12.5996 5.93294V3.26628C12.5996 1.79352 11.4057 0.599609 9.93294 0.599609H4.59961C3.12685 0.599609 1.93294 1.79352 1.93294 3.26628V5.93294M3.26628 9.93294V11.2663M11.2663 9.93294V11.2663M7.26628 7.26628V0.599609M5.93294 3.93294H8.59961" stroke="black" stroke-opacity="0.2" stroke-width="1.2" stroke-linecap="round"/>
</svg>
