<svg width="21" height="21" viewBox="0 0 21 21" fill="none" xmlns="http://www.w3.org/2000/svg">
<rect width="20.8889" height="20.8889" rx="10.4444" fill="#1146D1"/>
<path d="M10.4443 7.44531V10.4451M10.4443 10.4451L12.4443 11.9453M10.4443 10.4451C10.4443 10.4452 10.4442 10.445 10.4443 10.4451ZM5.087 11.6953C4.99368 11.2937 4.94434 10.8753 4.94434 10.4453C4.94434 10.0153 4.99368 9.59689 5.087 9.19531M9.44434 5.036C9.76861 4.97644 10.1028 4.94531 10.4443 4.94531C13.4819 4.94531 15.9443 7.40775 15.9443 10.4453C15.9443 13.4829 13.4819 15.9453 10.4443 15.9453C10.1028 15.9453 9.76861 15.9142 9.44434 15.8546M7.69434 5.68111C6.94415 6.11507 6.30597 6.72114 5.8338 7.44531M5.8338 13.4453C6.30597 14.1695 6.94415 14.7756 7.69434 15.2095" stroke="white" stroke-width="0.96" stroke-linecap="round"/>
</svg>
