<svg width="28" height="28" viewBox="0 0 28 28" fill="none" xmlns="http://www.w3.org/2000/svg">
<rect width="28" height="28" rx="14" fill="#1146D1" fill-opacity="0.05"/>
<path d="M12.1346 12.6132C12.5274 13.4313 13.0629 14.1981 13.741 14.8762C14.4191 15.5543 15.1858 16.0898 16.0039 16.4826C16.0743 16.5163 16.1095 16.5332 16.154 16.5462C16.3122 16.5923 16.5065 16.5592 16.6405 16.4633C16.6782 16.4363 16.7105 16.404 16.775 16.3395C16.9723 16.1422 17.0709 16.0435 17.1701 15.979C17.5442 15.7358 18.0265 15.7358 18.4006 15.979C18.4998 16.0435 18.5985 16.1422 18.7958 16.3395L18.9057 16.4495C19.2057 16.7494 19.3556 16.8993 19.4371 17.0604C19.5991 17.3807 19.5991 17.759 19.4371 18.0793C19.3556 18.2403 19.2057 18.3903 18.9057 18.6902L18.8168 18.7792C18.5179 19.0781 18.3684 19.2275 18.1653 19.3416C17.9398 19.4683 17.5896 19.5594 17.331 19.5586C17.098 19.5579 16.9387 19.5127 16.6202 19.4223C14.9083 18.9364 13.2929 18.0196 11.9452 16.672C10.5976 15.3243 9.6808 13.7089 9.19491 11.997C9.1045 11.6785 9.05929 11.5192 9.0586 11.2862C9.05783 11.0276 9.14889 10.6774 9.27555 10.4519C9.38968 10.2487 9.53913 10.0993 9.83802 9.8004L9.92698 9.71144C10.2269 9.41152 10.3769 9.26156 10.5379 9.1801C10.8582 9.01809 11.2365 9.01809 11.5568 9.1801C11.7178 9.26156 11.8678 9.41152 12.1677 9.71144L12.2777 9.82142C12.475 10.0187 12.5737 10.1174 12.6381 10.2166C12.8814 10.5907 12.8814 11.073 12.6381 11.4471C12.5737 11.5463 12.475 11.6449 12.2777 11.8422C12.2132 11.9067 12.1809 11.939 12.1539 11.9767C12.058 12.1107 12.0249 12.305 12.071 12.4632C12.084 12.5077 12.1009 12.5429 12.1346 12.6132Z" stroke="#1146D1" stroke-width="1.23529" stroke-linecap="round" stroke-linejoin="round"/>
</svg>
