<svg width="15" height="10" viewBox="0 0 15 10" fill="none" xmlns="http://www.w3.org/2000/svg">
<path d="M11.2663 4.59961H12.5996C13.336 4.59961 13.9329 5.19656 13.9329 5.93294V6.59961C13.9329 7.33599 13.336 7.93294 12.5996 7.93294M11.2663 4.59961L10.2368 1.51131C10.0554 0.96685 9.54584 0.599609 8.97193 0.599609H5.93294M11.2663 4.59961H5.93294M1.93294 4.59961L2.96238 1.51131C3.14386 0.96685 3.65338 0.599609 4.22729 0.599609H5.93294M1.93294 4.59961H5.93294M1.93294 4.59961C1.19656 4.59961 0.599609 5.19656 0.599609 5.93294V6.59961C0.599609 7.33599 1.19656 7.93294 1.93294 7.93294M5.93294 4.59961V0.599609M4.59961 7.93294H9.93294M4.59961 7.93294C4.59961 8.66932 4.00266 9.26628 3.26628 9.26628C2.5299 9.26628 1.93294 8.66932 1.93294 7.93294M4.59961 7.93294C4.59961 7.19656 4.00266 6.59961 3.26628 6.59961C2.5299 6.59961 1.93294 7.19656 1.93294 7.93294M9.93294 7.93294C9.93294 8.66932 10.5299 9.26628 11.2663 9.26628C12.0027 9.26628 12.5996 8.66932 12.5996 7.93294M9.93294 7.93294C9.93294 7.19656 10.5299 6.59961 11.2663 6.59961C12.0027 6.59961 12.5996 7.19656 12.5996 7.93294" stroke="#49494B" stroke-width="1.2"/>
<path d="M11.2663 4.59961H12.5996C13.336 4.59961 13.9329 5.19656 13.9329 5.93294V6.59961C13.9329 7.33599 13.336 7.93294 12.5996 7.93294M11.2663 4.59961L10.2368 1.51131C10.0554 0.96685 9.54584 0.599609 8.97193 0.599609H5.93294M11.2663 4.59961H5.93294M1.93294 4.59961L2.96238 1.51131C3.14386 0.96685 3.65338 0.599609 4.22729 0.599609H5.93294M1.93294 4.59961H5.93294M1.93294 4.59961C1.19656 4.59961 0.599609 5.19656 0.599609 5.93294V6.59961C0.599609 7.33599 1.19656 7.93294 1.93294 7.93294M5.93294 4.59961V0.599609M4.59961 7.93294H9.93294M4.59961 7.93294C4.59961 8.66932 4.00266 9.26628 3.26628 9.26628C2.5299 9.26628 1.93294 8.66932 1.93294 7.93294M4.59961 7.93294C4.59961 7.19656 4.00266 6.59961 3.26628 6.59961C2.5299 6.59961 1.93294 7.19656 1.93294 7.93294M9.93294 7.93294C9.93294 8.66932 10.5299 9.26628 11.2663 9.26628C12.0027 9.26628 12.5996 8.66932 12.5996 7.93294M9.93294 7.93294C9.93294 7.19656 10.5299 6.59961 11.2663 6.59961C12.0027 6.59961 12.5996 7.19656 12.5996 7.93294" stroke="black" stroke-opacity="0.2" stroke-width="1.2"/>
<path d="M11.2663 4.59961H12.5996C13.336 4.59961 13.9329 5.19656 13.9329 5.93294V6.59961C13.9329 7.33599 13.336 7.93294 12.5996 7.93294M11.2663 4.59961L10.2368 1.51131C10.0554 0.96685 9.54584 0.599609 8.97193 0.599609H5.93294M11.2663 4.59961H5.93294M1.93294 4.59961L2.96238 1.51131C3.14386 0.96685 3.65338 0.599609 4.22729 0.599609H5.93294M1.93294 4.59961H5.93294M1.93294 4.59961C1.19656 4.59961 0.599609 5.19656 0.599609 5.93294V6.59961C0.599609 7.33599 1.19656 7.93294 1.93294 7.93294M5.93294 4.59961V0.599609M4.59961 7.93294H9.93294M4.59961 7.93294C4.59961 8.66932 4.00266 9.26628 3.26628 9.26628C2.5299 9.26628 1.93294 8.66932 1.93294 7.93294M4.59961 7.93294C4.59961 7.19656 4.00266 6.59961 3.26628 6.59961C2.5299 6.59961 1.93294 7.19656 1.93294 7.93294M9.93294 7.93294C9.93294 8.66932 10.5299 9.26628 11.2663 9.26628C12.0027 9.26628 12.5996 8.66932 12.5996 7.93294M9.93294 7.93294C9.93294 7.19656 10.5299 6.59961 11.2663 6.59961C12.0027 6.59961 12.5996 7.19656 12.5996 7.93294" stroke="black" stroke-opacity="0.2" stroke-width="1.2"/>
<path d="M11.2663 4.59961H12.5996C13.336 4.59961 13.9329 5.19656 13.9329 5.93294V6.59961C13.9329 7.33599 13.336 7.93294 12.5996 7.93294M11.2663 4.59961L10.2368 1.51131C10.0554 0.96685 9.54584 0.599609 8.97193 0.599609H5.93294M11.2663 4.59961H5.93294M1.93294 4.59961L2.96238 1.51131C3.14386 0.96685 3.65338 0.599609 4.22729 0.599609H5.93294M1.93294 4.59961H5.93294M1.93294 4.59961C1.19656 4.59961 0.599609 5.19656 0.599609 5.93294V6.59961C0.599609 7.33599 1.19656 7.93294 1.93294 7.93294M5.93294 4.59961V0.599609M4.59961 7.93294H9.93294M4.59961 7.93294C4.59961 8.66932 4.00266 9.26628 3.26628 9.26628C2.5299 9.26628 1.93294 8.66932 1.93294 7.93294M4.59961 7.93294C4.59961 7.19656 4.00266 6.59961 3.26628 6.59961C2.5299 6.59961 1.93294 7.19656 1.93294 7.93294M9.93294 7.93294C9.93294 8.66932 10.5299 9.26628 11.2663 9.26628C12.0027 9.26628 12.5996 8.66932 12.5996 7.93294M9.93294 7.93294C9.93294 7.19656 10.5299 6.59961 11.2663 6.59961C12.0027 6.59961 12.5996 7.19656 12.5996 7.93294" stroke="black" stroke-opacity="0.2" stroke-width="1.2"/>
<path d="M11.2663 4.59961H12.5996C13.336 4.59961 13.9329 5.19656 13.9329 5.93294V6.59961C13.9329 7.33599 13.336 7.93294 12.5996 7.93294M11.2663 4.59961L10.2368 1.51131C10.0554 0.96685 9.54584 0.599609 8.97193 0.599609H5.93294M11.2663 4.59961H5.93294M1.93294 4.59961L2.96238 1.51131C3.14386 0.96685 3.65338 0.599609 4.22729 0.599609H5.93294M1.93294 4.59961H5.93294M1.93294 4.59961C1.19656 4.59961 0.599609 5.19656 0.599609 5.93294V6.59961C0.599609 7.33599 1.19656 7.93294 1.93294 7.93294M5.93294 4.59961V0.599609M4.59961 7.93294H9.93294M4.59961 7.93294C4.59961 8.66932 4.00266 9.26628 3.26628 9.26628C2.5299 9.26628 1.93294 8.66932 1.93294 7.93294M4.59961 7.93294C4.59961 7.19656 4.00266 6.59961 3.26628 6.59961C2.5299 6.59961 1.93294 7.19656 1.93294 7.93294M9.93294 7.93294C9.93294 8.66932 10.5299 9.26628 11.2663 9.26628C12.0027 9.26628 12.5996 8.66932 12.5996 7.93294M9.93294 7.93294C9.93294 7.19656 10.5299 6.59961 11.2663 6.59961C12.0027 6.59961 12.5996 7.19656 12.5996 7.93294" stroke="black" stroke-opacity="0.2" stroke-width="1.2"/>
<path d="M11.2663 4.59961H12.5996C13.336 4.59961 13.9329 5.19656 13.9329 5.93294V6.59961C13.9329 7.33599 13.336 7.93294 12.5996 7.93294M11.2663 4.59961L10.2368 1.51131C10.0554 0.96685 9.54584 0.599609 8.97193 0.599609H5.93294M11.2663 4.59961H5.93294M1.93294 4.59961L2.96238 1.51131C3.14386 0.96685 3.65338 0.599609 4.22729 0.599609H5.93294M1.93294 4.59961H5.93294M1.93294 4.59961C1.19656 4.59961 0.599609 5.19656 0.599609 5.93294V6.59961C0.599609 7.33599 1.19656 7.93294 1.93294 7.93294M5.93294 4.59961V0.599609M4.59961 7.93294H9.93294M4.59961 7.93294C4.59961 8.66932 4.00266 9.26628 3.26628 9.26628C2.5299 9.26628 1.93294 8.66932 1.93294 7.93294M4.59961 7.93294C4.59961 7.19656 4.00266 6.59961 3.26628 6.59961C2.5299 6.59961 1.93294 7.19656 1.93294 7.93294M9.93294 7.93294C9.93294 8.66932 10.5299 9.26628 11.2663 9.26628C12.0027 9.26628 12.5996 8.66932 12.5996 7.93294M9.93294 7.93294C9.93294 7.19656 10.5299 6.59961 11.2663 6.59961C12.0027 6.59961 12.5996 7.19656 12.5996 7.93294" stroke="black" stroke-opacity="0.2" stroke-width="1.2"/>
</svg>
