<svg width="16" height="16" viewBox="0 0 16 16" fill="none" xmlns="http://www.w3.org/2000/svg">
<path d="M8.66699 3.66699C8.66699 3.85109 8.51775 4.00033 8.33366 4.00033C8.14956 4.00033 8.00033 3.85109 8.00033 3.66699C8.00033 3.4829 8.14956 3.33366 8.33366 3.33366C8.51775 3.33366 8.66699 3.4829 8.66699 3.66699Z" fill="#0000FF"/>
<path d="M4.00033 8.33366C4.00033 8.51775 3.85109 8.66699 3.66699 8.66699C3.4829 8.66699 3.33366 8.51775 3.33366 8.33366C3.33366 8.14956 3.4829 8.00033 3.66699 8.00033C3.85109 8.00033 4.00033 8.14956 4.00033 8.33366Z" fill="#0000FF"/>
<path d="M6.00033 11.0003C6.00033 11.1844 5.85109 11.3337 5.66699 11.3337C5.4829 11.3337 5.33366 11.1844 5.33366 11.0003C5.33366 10.8162 5.4829 10.667 5.66699 10.667C5.85109 10.667 6.00033 10.8162 6.00033 11.0003Z" fill="#0000FF"/>
<path d="M11.3337 5.66699C11.3337 5.85109 11.1844 6.00033 11.0003 6.00033C10.8162 6.00033 10.667 5.85109 10.667 5.66699C10.667 5.4829 10.8162 5.33366 11.0003 5.33366C11.1844 5.33366 11.3337 5.4829 11.3337 5.66699Z" fill="#0000FF"/>
<path d="M5.33366 5.00033C5.33366 5.18442 5.18442 5.33366 5.00033 5.33366C4.81623 5.33366 4.66699 5.18442 4.66699 5.00033C4.66699 4.81623 4.81623 4.66699 5.00033 4.66699C5.18442 4.66699 5.33366 4.81623 5.33366 5.00033Z" fill="#0000FF"/>
<path d="M0.666992 8.00033C0.666992 12.0504 3.95024 15.3337 8.00033 15.3337C8.2319 15.3337 8.46097 15.3229 8.68706 15.3019C9.18651 15.2555 9.43626 15.2323 9.58394 15.1255C9.7435 15.01 9.79643 14.9307 9.84181 14.739C9.88381 14.5616 9.74534 14.1162 9.46841 13.2254C9.38083 12.9437 9.33366 12.6442 9.33366 12.3337C9.33366 10.6768 10.6768 9.33366 12.3337 9.33366C12.6442 9.33366 12.9437 9.38083 13.2254 9.46841C14.1162 9.74534 14.5616 9.88381 14.739 9.84181C14.9307 9.79643 15.01 9.7435 15.1255 9.58394C15.2323 9.43626 15.2555 9.18651 15.3019 8.68706C15.3229 8.46097 15.3337 8.2319 15.3337 8.00033C15.3337 3.95024 12.0504 0.666992 8.00033 0.666992C3.95024 0.666992 0.666992 3.95024 0.666992 8.00033Z" fill="#0000FF"/>
<path d="M8.20858 2.94197C7.87721 2.94197 7.60858 3.2106 7.60858 3.54197C7.60858 3.87334 7.87721 4.14197 8.20858 4.14197V3.54197V2.94197ZM8.45858 4.14197C8.78995 4.14197 9.05858 3.87334 9.05858 3.54197C9.05858 3.2106 8.78995 2.94197 8.45858 2.94197V3.54197V4.14197ZM8.20858 3.19197C7.87721 3.19197 7.60858 3.4606 7.60858 3.79197C7.60858 4.12334 7.87721 4.39197 8.20858 4.39197V3.79197V3.19197ZM8.45858 4.39197C8.78995 4.39197 9.05858 4.12334 9.05858 3.79197C9.05858 3.4606 8.78995 3.19197 8.45858 3.19197V3.79197V4.39197ZM3.54191 7.60864C3.21054 7.60864 2.94191 7.87727 2.94191 8.20864C2.94191 8.54001 3.21054 8.80864 3.54191 8.80864V8.20864V7.60864ZM3.79191 8.80864C4.12328 8.80864 4.39191 8.54001 4.39191 8.20864C4.39191 7.87727 4.12328 7.60864 3.79191 7.60864V8.20864V8.80864ZM3.54191 7.85864C3.21054 7.85864 2.94191 8.12727 2.94191 8.45864C2.94191 8.79001 3.21054 9.05864 3.54191 9.05864V8.45864V7.85864ZM3.79191 9.05864C4.12328 9.05864 4.39191 8.79001 4.39191 8.45864C4.39191 8.12727 4.12328 7.85864 3.79191 7.85864V8.45864V9.05864ZM5.54191 10.2753C5.21054 10.2753 4.94191 10.5439 4.94191 10.8753C4.94191 11.2067 5.21054 11.4753 5.54191 11.4753V10.8753V10.2753ZM5.79191 11.4753C6.12328 11.4753 6.39191 11.2067 6.39191 10.8753C6.39191 10.5439 6.12328 10.2753 5.79191 10.2753V10.8753V11.4753ZM5.54191 10.5253C5.21054 10.5253 4.94191 10.7939 4.94191 11.1253C4.94191 11.4567 5.21054 11.7253 5.54191 11.7253V11.1253V10.5253ZM5.79191 11.7253C6.12328 11.7253 6.39191 11.4567 6.39191 11.1253C6.39191 10.7939 6.12328 10.5253 5.79191 10.5253V11.1253V11.7253ZM10.8752 4.94197C10.5439 4.94197 10.2752 5.2106 10.2752 5.54197C10.2752 5.87334 10.5439 6.14197 10.8752 6.14197V5.54197V4.94197ZM11.1252 6.14197C11.4566 6.14197 11.7252 5.87334 11.7252 5.54197C11.7252 5.2106 11.4566 4.94197 11.1252 4.94197V5.54197V6.14197ZM10.8752 5.19197C10.5439 5.19197 10.2752 5.4606 10.2752 5.79197C10.2752 6.12334 10.5439 6.39197 10.8752 6.39197V5.79197V5.19197ZM11.1252 6.39197C11.4566 6.39197 11.7252 6.12334 11.7252 5.79197C11.7252 5.4606 11.4566 5.19197 11.1252 5.19197V5.79197V6.39197ZM4.87524 4.27531C4.54387 4.27531 4.27524 4.54393 4.27524 4.87531C4.27524 5.20668 4.54387 5.47531 4.87524 5.47531V4.87531V4.27531ZM5.12524 5.47531C5.45661 5.47531 5.72524 5.20668 5.72524 4.87531C5.72524 4.54393 5.45661 4.27531 5.12524 4.27531V4.87531V5.47531ZM4.87524 4.52531C4.54387 4.52531 4.27524 4.79393 4.27524 5.12531C4.27524 5.45668 4.54387 5.72531 4.87524 5.72531V5.12531V4.52531ZM5.12524 5.72531C5.45661 5.72531 5.72524 5.45668 5.72524 5.12531C5.72524 4.79393 5.45661 4.52531 5.12524 4.52531V5.12531V5.72531ZM13.2254 9.46841L13.4035 8.89546V8.89546L13.2254 9.46841ZM15.3019 8.68706L15.8994 8.74254V8.74254L15.3019 8.68706ZM8.68706 15.3019L8.74254 15.8994H8.74254L8.68706 15.3019ZM9.46841 13.2254L8.89546 13.4035V13.4035L9.46841 13.2254ZM9.58394 15.1255L9.23216 14.6394L9.58394 15.1255ZM9.84181 14.739L10.4257 14.8772L10.4257 14.8772L9.84181 14.739ZM14.739 9.84181L14.6008 9.25795H14.6008L14.739 9.84181ZM15.1255 9.58394L14.6394 9.23216L14.6394 9.23216L15.1255 9.58394ZM8.66699 3.66699H8.06699C8.06699 3.51972 8.18638 3.40033 8.33366 3.40033V4.00033V4.60033C8.84913 4.60033 9.26699 4.18246 9.26699 3.66699H8.66699ZM8.33366 4.00033V3.40033C8.48094 3.40033 8.60033 3.51972 8.60033 3.66699H8.00033H7.40033C7.40033 4.18246 7.81819 4.60033 8.33366 4.60033V4.00033ZM8.00033 3.66699H8.60033C8.60033 3.81427 8.48093 3.93366 8.33366 3.93366V3.33366V2.73366C7.81819 2.73366 7.40033 3.15153 7.40033 3.66699H8.00033ZM8.33366 3.33366V3.93366C8.18638 3.93366 8.06699 3.81427 8.06699 3.66699H8.66699H9.26699C9.26699 3.15153 8.84913 2.73366 8.33366 2.73366V3.33366ZM8.20858 3.54197V4.14197H8.45858V3.54197V2.94197H8.20858V3.54197ZM8.20858 3.79197V4.39197H8.45858V3.79197V3.19197H8.20858V3.79197ZM4.00033 8.33366H3.40033C3.40033 8.18638 3.51972 8.06699 3.66699 8.06699V8.66699V9.26699C4.18246 9.26699 4.60033 8.84913 4.60033 8.33366H4.00033ZM3.66699 8.66699V8.06699C3.81427 8.06699 3.93366 8.18638 3.93366 8.33366H3.33366H2.73366C2.73366 8.84913 3.15153 9.26699 3.66699 9.26699V8.66699ZM3.33366 8.33366H3.93366C3.93366 8.48093 3.81427 8.60033 3.66699 8.60033V8.00033V7.40033C3.15153 7.40033 2.73366 7.81819 2.73366 8.33366H3.33366ZM3.66699 8.00033V8.60033C3.51972 8.60033 3.40033 8.48094 3.40033 8.33366H4.00033H4.60033C4.60033 7.81819 4.18246 7.40033 3.66699 7.40033V8.00033ZM3.54191 8.20864V8.80864H3.79191V8.20864V7.60864H3.54191V8.20864ZM3.54191 8.45864V9.05864H3.79191V8.45864V7.85864H3.54191V8.45864ZM6.00033 11.0003H5.40033C5.40033 10.853 5.51972 10.7337 5.66699 10.7337V11.3337V11.9337C6.18246 11.9337 6.60033 11.5158 6.60033 11.0003H6.00033ZM5.66699 11.3337V10.7337C5.81427 10.7337 5.93366 10.8531 5.93366 11.0003H5.33366H4.73366C4.73366 11.5158 5.15153 11.9337 5.66699 11.9337V11.3337ZM5.33366 11.0003H5.93366C5.93366 11.1476 5.81427 11.267 5.66699 11.267V10.667V10.067C5.15152 10.067 4.73366 10.4849 4.73366 11.0003H5.33366ZM5.66699 10.667V11.267C5.51972 11.267 5.40033 11.1476 5.40033 11.0003H6.00033H6.60033C6.60033 10.4849 6.18246 10.067 5.66699 10.067V10.667ZM5.54191 10.8753V11.4753H5.79191V10.8753V10.2753H5.54191V10.8753ZM5.54191 11.1253V11.7253H5.79191V11.1253V10.5253H5.54191V11.1253ZM11.3337 5.66699H10.7337C10.7337 5.51972 10.853 5.40033 11.0003 5.40033V6.00033V6.60033C11.5158 6.60033 11.9337 6.18246 11.9337 5.66699H11.3337ZM11.0003 6.00033V5.40033C11.1476 5.40033 11.267 5.51972 11.267 5.66699H10.667H10.067C10.067 6.18246 10.4849 6.60033 11.0003 6.60033V6.00033ZM10.667 5.66699H11.267C11.267 5.81427 11.1476 5.93366 11.0003 5.93366V5.33366V4.73366C10.4849 4.73366 10.067 5.15152 10.067 5.66699H10.667ZM11.0003 5.33366V5.93366C10.8531 5.93366 10.7337 5.81427 10.7337 5.66699H11.3337H11.9337C11.9337 5.15153 11.5158 4.73366 11.0003 4.73366V5.33366ZM10.8752 5.54197V6.14197H11.1252V5.54197V4.94197H10.8752V5.54197ZM10.8752 5.79197V6.39197H11.1252V5.79197V5.19197H10.8752V5.79197ZM5.33366 5.00033H4.73366C4.73366 4.85305 4.85305 4.73366 5.00033 4.73366V5.33366V5.93366C5.51579 5.93366 5.93366 5.51579 5.93366 5.00033H5.33366ZM5.00033 5.33366V4.73366C5.1476 4.73366 5.26699 4.85305 5.26699 5.00033H4.66699H4.06699C4.06699 5.51579 4.48486 5.93366 5.00033 5.93366V5.33366ZM4.66699 5.00033H5.26699C5.26699 5.1476 5.1476 5.26699 5.00033 5.26699V4.66699V4.06699C4.48486 4.06699 4.06699 4.48486 4.06699 5.00033H4.66699ZM5.00033 4.66699V5.26699C4.85305 5.26699 4.73366 5.1476 4.73366 5.00033H5.33366H5.93366C5.93366 4.48486 5.51579 4.06699 5.00033 4.06699V4.66699ZM4.87524 4.87531V5.47531H5.12524V4.87531V4.27531H4.87524V4.87531ZM4.87524 5.12531V5.72531H5.12524V5.12531V4.52531H4.87524V5.12531ZM8.00033 15.3337V14.7337C4.28161 14.7337 1.26699 11.719 1.26699 8.00033H0.666992H0.0669922C0.0669922 12.3818 3.61887 15.9337 8.00033 15.9337V15.3337ZM0.666992 8.00033H1.26699C1.26699 4.28161 4.28161 1.26699 8.00033 1.26699V0.666992V0.0669922C3.61887 0.0669922 0.0669922 3.61887 0.0669922 8.00033H0.666992ZM8.00033 0.666992V1.26699C11.719 1.26699 14.7337 4.28161 14.7337 8.00033H15.3337H15.9337C15.9337 3.61887 12.3818 0.0669922 8.00033 0.0669922V0.666992ZM9.33366 12.3337H9.93366C9.93366 11.0082 11.0082 9.93366 12.3337 9.93366V9.33366V8.73366C10.3454 8.73366 8.73366 10.3454 8.73366 12.3337H9.33366ZM12.3337 9.33366V9.93366C12.5831 9.93366 12.8226 9.97151 13.0473 10.0414L13.2254 9.46841L13.4035 8.89546C13.0648 8.79016 12.7053 8.73366 12.3337 8.73366V9.33366ZM15.3337 8.00033H14.7337C14.7337 8.21335 14.7238 8.4239 14.7045 8.63157L15.3019 8.68706L15.8994 8.74254C15.9221 8.49803 15.9337 8.25045 15.9337 8.00033H15.3337ZM8.68706 15.3019L8.63157 14.7045C8.4239 14.7238 8.21335 14.7337 8.00033 14.7337V15.3337V15.9337C8.25045 15.9337 8.49803 15.9221 8.74254 15.8994L8.68706 15.3019ZM9.46841 13.2254L10.0414 13.0473C9.97151 12.8226 9.93366 12.5831 9.93366 12.3337H9.33366H8.73366C8.73366 12.7053 8.79016 13.0648 8.89546 13.4035L9.46841 13.2254ZM8.68706 15.3019L8.74254 15.8994C8.98215 15.8771 9.19778 15.8575 9.37034 15.8275C9.54118 15.7977 9.74977 15.7461 9.93572 15.6115L9.58394 15.1255L9.23216 14.6394C9.27043 14.6117 9.28029 14.6251 9.16448 14.6453C9.05038 14.6651 8.89141 14.6804 8.63157 14.7045L8.68706 15.3019ZM9.46841 13.2254L8.89546 13.4035C9.03583 13.855 9.13456 14.1731 9.1942 14.4014C9.22392 14.5151 9.23936 14.5897 9.24604 14.6369C9.25428 14.6952 9.24228 14.6669 9.25795 14.6008L9.84181 14.739L10.4257 14.8772C10.4623 14.7223 10.4488 14.5718 10.4342 14.4689C10.4181 14.3549 10.3895 14.2291 10.3552 14.098C10.2869 13.8365 10.1779 13.4865 10.0414 13.0473L9.46841 13.2254ZM9.58394 15.1255L9.93572 15.6115C10.0398 15.5362 10.1585 15.4382 10.2548 15.2938C10.3511 15.1495 10.3961 15.0022 10.4257 14.8772L9.84181 14.739L9.25795 14.6008C9.25016 14.6337 9.24545 14.6469 9.24437 14.6497C9.24412 14.6504 9.24777 14.641 9.25659 14.6278C9.26541 14.6146 9.27269 14.6076 9.27219 14.6081C9.26999 14.6101 9.25955 14.6196 9.23216 14.6394L9.58394 15.1255ZM13.2254 9.46841L13.0473 10.0414C13.4865 10.1779 13.8365 10.2869 14.098 10.3552C14.2291 10.3895 14.3549 10.4181 14.4689 10.4342C14.5718 10.4488 14.7223 10.4623 14.8772 10.4257L14.739 9.84181L14.6008 9.25795C14.6669 9.24228 14.6952 9.25428 14.6369 9.24604C14.5897 9.23936 14.5151 9.22392 14.4014 9.1942C14.1731 9.13456 13.855 9.03583 13.4035 8.89546L13.2254 9.46841ZM15.3019 8.68706L14.7045 8.63157C14.6804 8.89141 14.6651 9.05038 14.6453 9.16448C14.6251 9.2803 14.6117 9.27043 14.6394 9.23216L15.1255 9.58394L15.6115 9.93572C15.7461 9.74977 15.7977 9.54119 15.8275 9.37034C15.8575 9.19778 15.8771 8.98215 15.8994 8.74254L15.3019 8.68706ZM14.739 9.84181L14.8772 10.4257C15.0022 10.3961 15.1495 10.3511 15.2938 10.2548C15.4382 10.1585 15.5362 10.0398 15.6115 9.93572L15.1255 9.58394L14.6394 9.23216C14.6196 9.25955 14.6101 9.26999 14.6081 9.27219C14.6076 9.27269 14.6146 9.26541 14.6278 9.25659C14.641 9.24777 14.6504 9.24412 14.6497 9.24437C14.6469 9.24545 14.6337 9.25016 14.6008 9.25795L14.739 9.84181Z" fill="white"/>
</svg>
