<svg width="28" height="28" viewBox="0 0 28 28" fill="none" xmlns="http://www.w3.org/2000/svg">
<rect width="28" height="28" rx="14" fill="#F7F7F7"/>
<path d="M13.333 12.6667C13.333 12.2985 13.0345 12 12.6663 12C12.2982 12 11.9997 12.2985 11.9997 12.6667H12.6663H13.333ZM11.9997 18C11.9997 18.3682 12.2982 18.6667 12.6663 18.6667C13.0345 18.6667 13.333 18.3682 13.333 18H12.6663H11.9997ZM15.9997 12.6667C15.9997 12.2985 15.7012 12 15.333 12C14.9648 12 14.6663 12.2985 14.6663 12.6667H15.333H15.9997ZM14.6663 18C14.6663 18.3682 14.9648 18.6667 15.333 18.6667C15.7012 18.6667 15.9997 18.3682 15.9997 18H15.333H14.6663ZM10.7277 19.8547L11.0303 19.2607H11.0303L10.7277 19.8547ZM10.145 19.272L10.739 18.9693H10.739L10.145 19.272ZM17.8544 19.272L17.2603 18.9693H17.2603L17.8544 19.272ZM17.2717 19.8547L16.969 19.2607L16.969 19.2607L17.2717 19.8547ZM9.33301 10C8.96482 10 8.66634 10.2985 8.66634 10.6667C8.66634 11.0349 8.96482 11.3333 9.33301 11.3333V10.6667V10ZM18.6663 11.3333C19.0345 11.3333 19.333 11.0349 19.333 10.6667C19.333 10.2985 19.0345 10 18.6663 10V10.6667V11.3333ZM10.9997 10.6667C10.9997 11.0349 11.2982 11.3333 11.6663 11.3333C12.0345 11.3333 12.333 11.0349 12.333 10.6667H11.6663H10.9997ZM15.6663 10.6667C15.6663 11.0349 15.9648 11.3333 16.333 11.3333C16.7012 11.3333 16.9997 11.0349 16.9997 10.6667H16.333H15.6663ZM12.6663 12.6667H11.9997V18H12.6663H13.333V12.6667H12.6663ZM15.333 12.6667H14.6663V18H15.333H15.9997V12.6667H15.333ZM17.9997 10.6667H17.333V17.8667H17.9997H18.6663V10.6667H17.9997ZM15.8663 20V19.3333H12.133V20V20.6667H15.8663V20ZM9.99967 10.6667H9.33301V17.8667H9.99967H10.6663V10.6667H9.99967ZM12.133 20V19.3333C11.7486 19.3333 11.5005 19.3328 11.3116 19.3174C11.1305 19.3026 11.0633 19.2775 11.0303 19.2607L10.7277 19.8547L10.425 20.4487C10.6773 20.5772 10.9394 20.6248 11.203 20.6463C11.4588 20.6672 11.7706 20.6667 12.133 20.6667V20ZM9.99967 17.8667H9.33301C9.33301 18.229 9.33249 18.5409 9.35339 18.7967C9.37492 19.0602 9.42247 19.3224 9.55099 19.5746L10.145 19.272L10.739 18.9693C10.7222 18.9364 10.6971 18.8692 10.6823 18.6881C10.6669 18.4992 10.6663 18.251 10.6663 17.8667H9.99967ZM10.7277 19.8547L11.0303 19.2607C10.9049 19.1968 10.8029 19.0948 10.739 18.9693L10.145 19.272L9.55099 19.5746C9.74274 19.951 10.0487 20.2569 10.425 20.4487L10.7277 19.8547ZM17.9997 17.8667H17.333C17.333 18.251 17.3325 18.4992 17.3171 18.6881C17.3023 18.8692 17.2771 18.9364 17.2603 18.9693L17.8544 19.272L18.4484 19.5746C18.5769 19.3224 18.6244 19.0602 18.646 18.7967C18.6669 18.5409 18.6663 18.229 18.6663 17.8667H17.9997ZM15.8663 20V20.6667C16.2287 20.6667 16.5406 20.6672 16.7964 20.6463C17.0599 20.6248 17.3221 20.5772 17.5743 20.4487L17.2717 19.8547L16.969 19.2607C16.936 19.2775 16.8689 19.3026 16.6878 19.3174C16.4989 19.3328 16.2507 19.3333 15.8663 19.3333V20ZM17.8544 19.272L17.2603 18.9693C17.1964 19.0948 17.0944 19.1968 16.969 19.2607L17.2717 19.8547L17.5743 20.4487C17.9506 20.2569 18.2566 19.951 18.4484 19.5746L17.8544 19.272ZM9.33301 10.6667V11.3333H9.99967V10.6667V10H9.33301V10.6667ZM9.99967 10.6667V11.3333H17.9997V10.6667V10H9.99967V10.6667ZM17.9997 10.6667V11.3333H18.6663V10.6667V10H17.9997V10.6667ZM11.6663 10.1333H12.333C12.333 9.37829 13.0217 8.66667 13.9997 8.66667V8V7.33333C12.4003 7.33333 10.9997 8.53196 10.9997 10.1333H11.6663ZM13.9997 8V8.66667C14.9776 8.66667 15.6663 9.37829 15.6663 10.1333H16.333H16.9997C16.9997 8.53196 15.599 7.33333 13.9997 7.33333V8ZM11.6663 10.1333H10.9997V10.6667H11.6663H12.333V10.1333H11.6663ZM16.333 10.1333H15.6663V10.6667H16.333H16.9997V10.1333H16.333Z" fill="#D80027"/>
</svg>
