<svg width="28" height="28" viewBox="0 0 28 28" fill="none" xmlns="http://www.w3.org/2000/svg">
<rect width="28" height="28" rx="14" fill="#F7F7F7"/>
<path d="M9.10824 17.4755L9.77232 17.6969H9.77232L9.10824 17.4755ZM9.63267 15.9022L8.96859 15.6809H8.96859L9.63267 15.9022ZM10.1738 15.0267L10.6688 15.5216L10.6688 15.5216L10.1738 15.0267ZM15.3999 9.80057L14.9049 9.30559V9.30559L15.3999 9.80057ZM18.1999 12.6006L18.6949 13.0955L18.6949 13.0955L18.1999 12.6006ZM12.9738 17.8267L12.4788 17.3317L12.4788 17.3317L12.9738 17.8267ZM12.0982 18.3678L12.3196 19.0319H12.3196L12.0982 18.3678ZM10.5249 18.8922L10.7463 19.5563L10.7463 19.5563L10.5249 18.8922ZM12.6868 18.0946L12.2652 17.5357L12.2652 17.5357L12.6868 18.0946ZM12.4662 18.2309L12.1549 17.6039L12.4662 18.2309ZM18.8744 10.5789L18.2472 10.8898V10.8898L18.8744 10.5789ZM18.8744 11.8222L18.2472 11.5114V11.5114L18.8744 11.8222ZM16.1783 9.12604L16.4891 9.75326L16.4891 9.75326L16.1783 9.12604ZM17.4215 9.12604L17.1107 9.75326V9.75326L17.4215 9.12604ZM9.76959 15.5342L10.3966 15.8455L10.3966 15.8455L9.76959 15.5342ZM9.90589 15.3137L9.34707 14.8921L9.34707 14.8921L9.90589 15.3137ZM8.84735 18.7289L8.18802 18.964L8.84735 18.7289ZM9.27157 19.1531L9.03645 19.8124L9.03645 19.8124L9.27157 19.1531ZM15.1949 10.0056C14.9215 9.73225 14.4783 9.73225 14.2049 10.0056C13.9315 10.279 13.9315 10.7222 14.2049 10.9956L14.6999 10.5006L15.1949 10.0056ZM17.0049 13.7956C17.2783 14.0689 17.7215 14.0689 17.9949 13.7956C18.2682 13.5222 18.2682 13.079 17.9949 12.8056L17.4999 13.3006L17.0049 13.7956ZM13.9999 18.9006C13.6133 18.9006 13.2999 19.214 13.2999 19.6006C13.2999 19.9872 13.6133 20.3006 13.9999 20.3006V19.6006V18.9006ZM18.8999 20.3006C19.2865 20.3006 19.5999 19.9872 19.5999 19.6006C19.5999 19.214 19.2865 18.9006 18.8999 18.9006V19.6006V20.3006ZM9.10824 17.4755L9.77232 17.6969L10.2967 16.1236L9.63267 15.9022L8.96859 15.6809L8.44416 17.2542L9.10824 17.4755ZM10.1738 15.0267L10.6688 15.5216L15.8949 10.2955L15.3999 9.80057L14.9049 9.30559L9.67883 14.5317L10.1738 15.0267ZM18.1999 12.6006L17.7049 12.1056L12.4788 17.3317L12.9738 17.8267L13.4688 18.3216L18.6949 13.0955L18.1999 12.6006ZM12.0982 18.3678L11.8769 17.7037L10.3036 18.2281L10.5249 18.8922L10.7463 19.5563L12.3196 19.0319L12.0982 18.3678ZM12.9738 17.8267L12.4788 17.3317C12.3262 17.4843 12.2952 17.5131 12.2652 17.5357L12.6868 18.0946L13.1083 18.6534C13.234 18.5586 13.3425 18.4479 13.4688 18.3216L12.9738 17.8267ZM12.0982 18.3678L12.3196 19.0319C12.489 18.9754 12.6365 18.9279 12.7775 18.8578L12.4662 18.2309L12.1549 17.6039C12.1212 17.6206 12.0817 17.6354 11.8769 17.7037L12.0982 18.3678ZM12.6868 18.0946L12.2652 17.5357C12.2306 17.5618 12.1937 17.5846 12.1549 17.6039L12.4662 18.2309L12.7775 18.8578C12.8939 18.8001 13.0046 18.7316 13.1083 18.6534L12.6868 18.0946ZM18.1999 9.80057L17.7049 10.2955C18.1266 10.7172 18.2091 10.8128 18.2472 10.8898L18.8744 10.5789L19.5016 10.2681C19.3357 9.93339 19.0366 9.64731 18.6949 9.3056L18.1999 9.80057ZM18.1999 12.6006L18.6949 13.0955C19.0366 12.7538 19.3357 12.4677 19.5016 12.133L18.8744 11.8222L18.2472 11.5114C18.2091 11.5884 18.1266 11.684 17.7049 12.1056L18.1999 12.6006ZM18.8744 10.5789L18.2472 10.8898C18.3443 11.0856 18.3443 11.3155 18.2472 11.5114L18.8744 11.8222L19.5016 12.133C19.7928 11.5455 19.7928 10.8557 19.5016 10.2681L18.8744 10.5789ZM15.3999 9.80057L15.8949 10.2955C16.3165 9.87391 16.4121 9.79141 16.4891 9.75326L16.1783 9.12604L15.8675 8.49883C15.5327 8.66471 15.2466 8.96389 14.9049 9.30559L15.3999 9.80057ZM18.1999 9.80057L18.6949 9.3056C18.3532 8.96388 18.0671 8.66471 17.7323 8.49883L17.4215 9.12604L17.1107 9.75326C17.1877 9.79141 17.2833 9.87391 17.7049 10.2955L18.1999 9.80057ZM16.1783 9.12604L16.4891 9.75326C16.6849 9.65621 16.9149 9.65621 17.1107 9.75326L17.4215 9.12604L17.7323 8.49883C17.1448 8.20768 16.455 8.20768 15.8675 8.49883L16.1783 9.12604ZM9.63267 15.9022L10.2967 16.1236C10.365 15.9188 10.3798 15.8792 10.3966 15.8455L9.76959 15.5342L9.14261 15.2229C9.0726 15.364 9.02505 15.5115 8.96859 15.6809L9.63267 15.9022ZM10.1738 15.0267L9.67883 14.5317C9.55259 14.6579 9.44189 14.7664 9.34707 14.8921L9.90589 15.3137L10.4647 15.7353C10.4874 15.7052 10.5161 15.6743 10.6688 15.5216L10.1738 15.0267ZM9.76959 15.5342L10.3966 15.8455C10.4158 15.8067 10.4386 15.7698 10.4647 15.7353L9.90589 15.3137L9.34707 14.8921C9.26883 14.9958 9.20038 15.1066 9.14261 15.2229L9.76959 15.5342ZM9.10824 17.4755L8.44416 17.2542C8.33458 17.5829 8.23636 17.8753 8.18045 18.1133C8.12698 18.3408 8.07646 18.6512 8.18802 18.964L8.84735 18.7289L9.50669 18.4938C9.53715 18.5792 9.50308 18.6048 9.54333 18.4335C9.58114 18.2726 9.65391 18.0521 9.77232 17.6969L9.10824 17.4755ZM10.5249 18.8922L10.3036 18.2281C9.94836 18.3465 9.72783 18.4193 9.56692 18.4571C9.39563 18.4974 9.42127 18.4633 9.50669 18.4938L9.27157 19.1531L9.03645 19.8124C9.34929 19.924 9.65963 19.8735 9.88718 19.82C10.1251 19.7641 10.4176 19.6659 10.7463 19.5563L10.5249 18.8922ZM8.84735 18.7289L8.18802 18.964C8.32916 19.3598 8.64064 19.6713 9.03645 19.8124L9.27157 19.1531L9.50669 18.4938H9.50669L8.84735 18.7289ZM14.6999 10.5006L14.2049 10.9956L17.0049 13.7956L17.4999 13.3006L17.9949 12.8056L15.1949 10.0056L14.6999 10.5006ZM13.9999 19.6006V20.3006H18.8999V19.6006V18.9006H13.9999V19.6006Z" fill="#1146D1"/>
</svg>
