<svg width="17" height="17" viewBox="0 0 17 17" fill="none" xmlns="http://www.w3.org/2000/svg">
<path d="M3.50814 11.8749L4.17222 12.0963H4.17222L3.50814 11.8749ZM4.03257 10.3016L3.36849 10.0803H3.36849L4.03257 10.3016ZM4.5737 9.42607L5.06868 9.92105L5.06868 9.92105L4.5737 9.42607ZM9.79979 4.19998L9.30482 3.70501V3.70501L9.79979 4.19998ZM12.5998 6.99998L13.0948 7.49496L13.0948 7.49496L12.5998 6.99998ZM7.3737 12.2261L6.87873 11.7311L6.87873 11.7311L7.3737 12.2261ZM6.49813 12.7672L6.71949 13.4313H6.71949L6.49813 12.7672ZM4.92484 13.2916L5.1462 13.9557L5.1462 13.9557L4.92484 13.2916ZM7.08667 12.494L6.6651 11.9352L6.6651 11.9352L7.08667 12.494ZM6.86612 12.6303L6.55483 12.0033L6.86612 12.6303ZM13.2743 4.97836L12.6471 5.28917V5.28917L13.2743 4.97836ZM13.2743 6.22161L12.6471 5.91079V5.91079L13.2743 6.22161ZM10.5782 3.52546L10.889 4.15267L10.889 4.15267L10.5782 3.52546ZM11.8214 3.52546L11.5106 4.15267V4.15267L11.8214 3.52546ZM4.16949 9.93365L4.79646 10.2449L4.79646 10.2449L4.16949 9.93365ZM4.30579 9.7131L3.74697 9.29153L3.74697 9.29153L4.30579 9.7131ZM3.24725 13.1283L2.58792 13.3634L3.24725 13.1283ZM3.67147 13.5525L3.43636 14.2119L3.43636 14.2119L3.67147 13.5525ZM9.59476 4.40503C9.32139 4.13167 8.87818 4.13167 8.60481 4.40503C8.33144 4.6784 8.33144 5.12161 8.60481 5.39498L9.09979 4.90001L9.59476 4.40503ZM11.4048 8.19498C11.6782 8.46835 12.1214 8.46835 12.3948 8.19498C12.6681 7.92161 12.6681 7.4784 12.3948 7.20503L11.8998 7.70001L11.4048 8.19498ZM8.39979 13.3C8.01319 13.3 7.69979 13.6134 7.69979 14C7.69979 14.3866 8.01319 14.7 8.39979 14.7V14V13.3ZM13.2998 14.7C13.6864 14.7 13.9998 14.3866 13.9998 14C13.9998 13.6134 13.6864 13.3 13.2998 13.3V14V14.7ZM3.50814 11.8749L4.17222 12.0963L4.69665 10.523L4.03257 10.3016L3.36849 10.0803L2.84406 11.6536L3.50814 11.8749ZM4.5737 9.42607L5.06868 9.92105L10.2948 4.69496L9.79979 4.19998L9.30482 3.70501L4.07873 8.9311L4.5737 9.42607ZM12.5998 6.99998L12.1048 6.50501L6.87873 11.7311L7.3737 12.2261L7.86868 12.721L13.0948 7.49496L12.5998 6.99998ZM6.49813 12.7672L6.27677 12.1031L4.70348 12.6276L4.92484 13.2916L5.1462 13.9557L6.71949 13.4313L6.49813 12.7672ZM7.3737 12.2261L6.87873 11.7311C6.72607 11.8838 6.69513 11.9125 6.6651 11.9352L7.08667 12.494L7.50824 13.0528C7.63392 12.958 7.74244 12.8473 7.86868 12.721L7.3737 12.2261ZM6.49813 12.7672L6.71949 13.4313C6.88886 13.3748 7.0364 13.3273 7.17742 13.2573L6.86612 12.6303L6.55483 12.0033C6.52114 12.02 6.48159 12.0349 6.27677 12.1031L6.49813 12.7672ZM7.08667 12.494L6.6651 11.9352C6.63053 11.9612 6.59362 11.9841 6.55483 12.0033L6.86612 12.6303L7.17742 13.2573C7.29378 13.1995 7.40453 13.131 7.50824 13.0528L7.08667 12.494ZM12.5998 4.19998L12.1048 4.69496C12.5265 5.1166 12.609 5.21219 12.6471 5.28917L13.2743 4.97836L13.9015 4.66755C13.7357 4.33281 13.4365 4.04672 13.0948 3.70501L12.5998 4.19998ZM12.5998 6.99998L13.0948 7.49496C13.4365 7.15325 13.7357 6.86716 13.9015 6.53242L13.2743 6.22161L12.6471 5.91079C12.609 5.98778 12.5265 6.08337 12.1048 6.50501L12.5998 6.99998ZM13.2743 4.97836L12.6471 5.28917C12.7442 5.48502 12.7442 5.71495 12.6471 5.91079L13.2743 6.22161L13.9015 6.53242C14.1927 5.94489 14.1927 5.25508 13.9015 4.66755L13.2743 4.97836ZM9.79979 4.19998L10.2948 4.69496C10.7164 4.27332 10.812 4.19082 10.889 4.15267L10.5782 3.52546L10.2674 2.89824C9.93261 3.06412 9.64652 3.3633 9.30482 3.70501L9.79979 4.19998ZM12.5998 4.19998L13.0948 3.70501C12.7531 3.3633 12.467 3.06412 12.1322 2.89824L11.8214 3.52546L11.5106 4.15267C11.5876 4.19082 11.6832 4.27332 12.1048 4.69496L12.5998 4.19998ZM10.5782 3.52546L10.889 4.15267C11.0848 4.05562 11.3148 4.05562 11.5106 4.15267L11.8214 3.52546L12.1322 2.89824C11.5447 2.6071 10.8549 2.6071 10.2674 2.89824L10.5782 3.52546ZM4.03257 10.3016L4.69665 10.523C4.76492 10.3182 4.77974 10.2786 4.79646 10.2449L4.16949 9.93365L3.54251 9.62236C3.4725 9.76337 3.42495 9.91091 3.36849 10.0803L4.03257 10.3016ZM4.5737 9.42607L4.07873 8.9311C3.95249 9.05733 3.84179 9.16585 3.74697 9.29153L4.30579 9.7131L4.86461 10.1347C4.88726 10.1046 4.91602 10.0737 5.06868 9.92105L4.5737 9.42607ZM4.16949 9.93365L4.79646 10.2449C4.81572 10.2062 4.83853 10.1692 4.86461 10.1347L4.30579 9.7131L3.74697 9.29153C3.66873 9.39525 3.60029 9.506 3.54251 9.62236L4.16949 9.93365ZM3.50814 11.8749L2.84406 11.6536C2.73448 11.9823 2.63626 12.2748 2.58035 12.5127C2.52688 12.7402 2.47636 13.0506 2.58792 13.3634L3.24725 13.1283L3.90659 12.8932C3.93705 12.9786 3.90298 13.0042 3.94323 12.8329C3.98104 12.672 4.05381 12.4515 4.17222 12.0963L3.50814 11.8749ZM4.92484 13.2916L4.70348 12.6276C4.34826 12.746 4.12773 12.8187 3.96682 12.8565C3.79553 12.8968 3.82117 12.8627 3.90659 12.8932L3.67147 13.5525L3.43636 14.2119C3.7492 14.3234 4.05953 14.2729 4.28708 14.2194C4.52501 14.1635 4.81745 14.0653 5.1462 13.9557L4.92484 13.2916ZM3.24725 13.1283L2.58792 13.3634C2.72907 13.7592 3.04054 14.0707 3.43636 14.2119L3.67147 13.5525L3.90659 12.8932H3.90659L3.24725 13.1283ZM9.09979 4.90001L8.60481 5.39498L11.4048 8.19498L11.8998 7.70001L12.3948 7.20503L9.59476 4.40503L9.09979 4.90001ZM8.39979 14V14.7H13.2998V14V13.3H8.39979V14Z" fill="#1146D1"/>
</svg>
