<svg width="80" height="80" viewBox="0 0 80 80" fill="none" xmlns="http://www.w3.org/2000/svg">
<rect width="80" height="80" rx="40" fill="#E8E8E9" fill-opacity="0.5"/>
<g clip-path="url(#clip0_1430_11043)">
<path d="M27.2729 33.6373V46.3646M27.2729 33.6373C27.2729 32.4658 26.3232 31.5161 25.1517 31.5161H23.0305C20.6875 31.5161 18.7881 33.4155 18.7881 35.7585V44.2434C18.7881 46.5864 20.6875 48.4858 23.0305 48.4858H25.1517C26.3232 48.4858 27.2729 47.5361 27.2729 46.3646M27.2729 33.6373V32.8271C27.2729 32.0236 27.7269 31.2891 28.4455 30.9298L41.1728 24.5662C42.5832 23.861 44.2426 24.8866 44.2426 26.4634V53.5384C44.2426 55.1153 42.5832 56.1409 41.1728 55.4357L28.4455 49.0721C27.7269 48.7128 27.2729 47.9783 27.2729 47.1748V46.3646M52.7275 27.2737L56.9699 23.0312M52.7275 52.7282L56.9699 56.9706M52.7275 40.0009H59.0911" stroke="#B9B9B9" stroke-width="3.63636" stroke-linecap="round"/>
<line x1="17.1171" y1="21.7919" x2="59.0648" y2="62.8836" stroke="#1146D1" stroke-width="3.63636" stroke-linecap="round"/>
</g>
<defs>
<clipPath id="clip0_1430_11043">
<rect width="50.9091" height="50.9091" fill="white" transform="translate(14.5459 14.5449)"/>
</clipPath>
</defs>
</svg>
