<svg width="80" height="80" viewBox="0 0 80 80" fill="none" xmlns="http://www.w3.org/2000/svg">
<rect width="80" height="80" rx="40" fill="#E8E8E9" fill-opacity="0.5"/>
<path fill-rule="evenodd" clip-rule="evenodd" d="M39.5314 26.1733C35.4418 21.4073 28.6221 20.1253 23.4982 24.4895C18.3742 28.8536 17.6528 36.1503 21.6767 41.3119C25.0223 45.6033 35.1472 54.6544 38.4656 57.5838C38.8368 57.9116 39.0225 58.0755 39.239 58.1398C39.428 58.196 39.6348 58.196 39.8237 58.1398C40.0403 58.0755 40.2259 57.9116 40.5971 57.5838C43.9155 54.6544 54.0404 45.6033 57.386 41.3119C61.4099 36.1503 60.7766 28.8077 55.5646 24.4895C50.3525 20.1712 43.6209 21.4073 39.5314 26.1733Z" stroke="#B9B9B9" stroke-width="4.84848" stroke-linecap="round" stroke-linejoin="round"/>
<line x1="17.1145" y1="19.8832" x2="56.2473" y2="55.6132" stroke="#1146D1" stroke-width="3.63636" stroke-linecap="round"/>
</svg>
