<svg width="82" height="80" viewBox="0 0 82 80" fill="none" xmlns="http://www.w3.org/2000/svg">
<rect width="81.5534" height="80.0006" rx="40.0003" fill="#E8E8E9" fill-opacity="0.5"/>
<path d="M55.8704 49.7294C55.538 48.7073 55.3687 47.6401 55.3687 46.5662V39.2847C55.3687 31.6792 49.187 25.5494 41.5099 25.5494C33.8329 25.5494 27.5675 31.4179 27.5675 39.2847V46.5169C27.5675 47.623 27.3935 48.7218 27.0522 49.7711L25.3457 55.0169C25.299 55.1605 25.4034 55.3089 25.5511 55.3089H57.3693C57.5255 55.3089 57.6364 55.1581 57.5885 55.0108L55.8704 49.7294M34.5776 61.3658C36.2713 63.2669 38.7493 64.4658 41.5099 64.4658C44.2706 64.4658 46.7486 63.2669 48.4423 61.3658M50.7531 20.9707C56.2689 23.6862 60.3951 28.7564 61.7916 34.8536M31.7515 20.9707C26.2357 23.6862 22.1095 28.7564 20.7129 34.8536" stroke="#B9B9B9" stroke-width="3.8835" stroke-linecap="round"/>
<line x1="16.9482" y1="15.5111" x2="65.9975" y2="63.0512" stroke="#1146D1" stroke-width="2" stroke-linecap="round"/>
</svg>
