<svg width="80" height="80" viewBox="0 0 80 80" fill="none" xmlns="http://www.w3.org/2000/svg">
<rect width="80" height="80" rx="40" fill="#E8E8E9" fill-opacity="0.5"/>
<g clip-path="url(#clip0_1430_11016)">
<path d="M60.0142 62.764C60.7735 63.5234 62.0047 63.5234 62.764 62.764C63.5234 62.0047 63.5234 60.7735 62.764 60.0142L61.3891 61.3891L60.0142 62.764ZM53.8401 36.2257H51.8956C51.8956 44.88 44.88 51.8956 36.2257 51.8956V53.8401V55.7845C47.0278 55.7845 55.7845 47.0278 55.7845 36.2257H53.8401ZM36.2257 53.8401V51.8956C27.5714 51.8956 20.5558 44.88 20.5558 36.2257H18.6113H16.6669C16.6669 47.0278 25.4237 55.7845 36.2257 55.7845V53.8401ZM18.6113 36.2257H20.5558C20.5558 27.5714 27.5714 20.5558 36.2257 20.5558V18.6113V16.6669C25.4237 16.6669 16.6669 25.4237 16.6669 36.2257H18.6113ZM36.2257 18.6113V20.5558C44.88 20.5558 51.8956 27.5714 51.8956 36.2257H53.8401H55.7845C55.7845 25.4237 47.0278 16.6669 36.2257 16.6669V18.6113ZM48.8074 48.8074L47.4325 50.1823L60.0142 62.764L61.3891 61.3891L62.764 60.0142L50.1823 47.4325L48.8074 48.8074Z" fill="#B9B9B9"/>
</g>
<path d="M40.833 30.834L30.833 40.834M40.833 40.834L30.833 30.834" stroke="#1146D1" stroke-width="3.33333" stroke-linecap="round"/>
<defs>
<clipPath id="clip0_1430_11016">
<rect width="46.6667" height="46.6667" fill="white" transform="translate(16.667 16.666)"/>
</clipPath>
</defs>
</svg>
