<svg width="16" height="14" viewBox="0 0 16 14" fill="none" xmlns="http://www.w3.org/2000/svg">
<path d="M0.942134 5.87118L1.62359 6.18441H1.62359L0.942134 5.87118ZM14.5785 7.62882L13.8971 7.31559L14.5785 7.62882ZM0.942134 7.62882L0.260676 7.94206H0.260676L0.942134 7.62882ZM14.5785 5.87118L13.8971 6.18441L14.5785 5.87118ZM12.2359 2.06842C11.8881 1.84344 11.4238 1.94299 11.1988 2.29078C10.9738 2.63857 11.0734 3.10289 11.4211 3.32787L11.8285 2.69814L12.2359 2.06842ZM4.13121 10.1925C3.78217 9.96947 3.31841 10.0716 3.09538 10.4207C2.87234 10.7697 2.97449 11.2335 3.32353 11.4565L3.72737 10.8245L4.13121 10.1925ZM1.16071 9.45124C1.40952 9.7824 1.87967 9.84916 2.21083 9.60035C2.54199 9.35154 2.60875 8.88139 2.35995 8.55023L1.76033 9.00073L1.16071 9.45124ZM9.11113 2.38504C9.51706 2.46744 9.91294 2.20516 9.99534 1.79923C10.0777 1.39329 9.81546 0.997418 9.40953 0.915018L9.26033 1.65003L9.11113 2.38504ZM14.2906 1.28033C14.5835 0.987437 14.5835 0.512563 14.2906 0.21967C13.9978 -0.0732233 13.5229 -0.0732233 13.23 0.21967L13.7603 0.75L14.2906 1.28033ZM1.22999 12.2197C0.937095 12.5126 0.937095 12.9874 1.22999 13.2803C1.52288 13.5732 1.99775 13.5732 2.29065 13.2803L1.76032 12.75L1.22999 12.2197ZM7.76032 1.5V0.75C4.43127 0.75 1.56431 2.72178 0.260675 5.55795L0.942134 5.87118L1.62359 6.18441C2.69161 3.86086 5.03863 2.25 7.76032 2.25V1.5ZM7.76033 12V12.75C11.0894 12.75 13.9563 10.7782 15.26 7.94205L14.5785 7.62882L13.8971 7.31559C12.829 9.63914 10.482 11.25 7.76033 11.25V12ZM0.942134 5.87118L0.260675 5.55795C-0.0868918 6.31411 -0.0868919 7.1859 0.260676 7.94206L0.942134 7.62882L1.62359 7.31559C1.4588 6.95708 1.4588 6.54293 1.62359 6.18441L0.942134 5.87118ZM14.5785 5.87118L13.8971 6.18441C14.0618 6.54292 14.0618 6.95707 13.8971 7.31559L14.5785 7.62882L15.26 7.94205C15.6075 7.18589 15.6075 6.31411 15.26 5.55795L14.5785 5.87118ZM14.5785 5.87118L15.26 5.55795C14.602 4.12637 13.5468 2.91646 12.2359 2.06842L11.8285 2.69814L11.4211 3.32787C12.495 4.02252 13.359 5.01373 13.8971 6.18441L14.5785 5.87118ZM3.72737 10.8245L3.32353 11.4565C4.60511 12.2754 6.12844 12.75 7.76033 12.75V12V11.25C6.4231 11.25 5.1788 10.8619 4.13121 10.1925L3.72737 10.8245ZM0.942134 7.62882L0.260676 7.94206C0.507403 8.47883 0.809925 8.98435 1.16071 9.45124L1.76033 9.00073L2.35995 8.55023C2.07271 8.16791 1.82525 7.75431 1.62359 7.31559L0.942134 7.62882ZM9.26033 1.65003L9.40953 0.915018C8.87603 0.806724 8.32441 0.75 7.76032 0.75V1.5V2.25C8.22363 2.25 8.67529 2.29657 9.11113 2.38504L9.26033 1.65003ZM6.16933 8.34099L5.639 8.87132C6.81058 10.0429 8.71007 10.0429 9.88164 8.87132L9.35131 8.34099L8.82098 7.81066C8.2352 8.39645 7.28545 8.39645 6.69966 7.81066L6.16933 8.34099ZM9.35131 8.34099L9.88164 8.87132C11.0532 7.69975 11.0532 5.80025 9.88164 4.62868L9.35131 5.15901L8.82098 5.68934C9.40677 6.27513 9.40677 7.22487 8.82098 7.81066L9.35131 8.34099ZM13.7603 0.75L13.23 0.21967L1.22999 12.2197L1.76032 12.75L2.29065 13.2803L14.2906 1.28033L13.7603 0.75Z" fill="#676768"/>
</svg>
