<svg width="6" height="4" viewBox="0 0 6 4" fill="none" xmlns="http://www.w3.org/2000/svg">
<path d="M0.26424 2.24314C0.178847 2.05736 0.178847 1.84303 0.26424 1.65726C0.659515 0.797302 1.52851 0.200195 2.53697 0.200195C3.54543 0.200195 4.41442 0.797303 4.8097 1.65726C4.89509 1.84303 4.89509 2.05736 4.8097 2.24314C4.41442 3.10309 3.54543 3.7002 2.53697 3.7002C1.52851 3.7002 0.659516 3.10309 0.26424 2.24314Z" stroke="#676768" stroke-width="0.4"/>
<path d="M3.28697 1.9502C3.28697 2.36441 2.95118 2.7002 2.53697 2.7002C2.12276 2.7002 1.78697 2.36441 1.78697 1.9502C1.78697 1.53598 2.12276 1.2002 2.53697 1.2002C2.95118 1.2002 3.28697 1.53598 3.28697 1.9502Z" stroke="#676768" stroke-width="0.4"/>
</svg>
