<svg width="20" height="20" viewBox="0 0 20 20" fill="none" xmlns="http://www.w3.org/2000/svg">
<path d="M19.9941 10.0004C19.9941 15.051 16.2514 19.2264 11.3893 19.904C10.9347 19.9671 10.4695 20 9.99741 20C9.45243 20 8.91725 19.9566 8.39608 19.8725C3.63555 19.1059 0 14.9774 0 10.0004C0 4.47746 4.47614 0 9.99671 0C15.5173 0 19.9941 4.47746 19.9941 10.0004Z" fill="#1877F2"/>
<path d="M11.3899 8.02864V10.2071H14.084L13.6574 13.1416H11.3899V19.9027C10.9353 19.9657 10.4702 19.9987 9.99807 19.9987C9.45309 19.9987 8.91792 19.9552 8.39675 19.8711V13.1416H5.91211V10.2071H8.39675V7.54165C8.39675 5.88801 9.73679 4.54688 11.3906 4.54688V4.54828C11.3956 4.54828 11.3998 4.54688 11.4047 4.54688H14.0847V7.0848H12.3335C11.813 7.0848 11.3906 7.50732 11.3906 8.02794L11.3899 8.02864Z" fill="white"/>
</svg>
