<svg width="13" height="13" viewBox="0 0 13 13" fill="none" xmlns="http://www.w3.org/2000/svg">
<path d="M11.5556 2.22222H8V0.888889C7.99956 0.653333 7.90578 0.427111 7.73911 0.260445C7.57289 0.0942222 7.34667 0.000444624 7.11111 0H0.888889C0.653333 0.000444624 0.427111 0.093778 0.260445 0.260445C0.093778 0.427111 0.000444624 0.653333 0 0.888889V11.5556C0.000444624 11.7911 0.0942222 12.0173 0.260445 12.1836C0.427111 12.3502 0.653333 12.444 0.888889 12.4444H11.5556C11.7911 12.444 12.0169 12.3502 12.1836 12.1836C12.3502 12.0169 12.444 11.7911 12.4444 11.5556V3.11111C12.444 2.87556 12.3502 2.64933 12.1836 2.48267C12.0173 2.31644 11.7911 2.22267 11.5556 2.22222ZM4.88889 11.5556H3.11111V9.33333H4.88889V11.5556ZM7.11111 11.5556H5.77778V9.33333C5.77733 9.09778 5.68356 8.87156 5.51689 8.70533C5.35067 8.53867 5.12444 8.44489 4.88889 8.44444H3.11111C2.87556 8.44489 2.64933 8.53867 2.48267 8.70533C2.31644 8.87156 2.22267 9.09778 2.22222 9.33333V11.5556H0.888889L0.888444 0.888889H7.11111V11.5556ZM11.5556 11.5556H8V3.11111H11.5556V11.5556ZM10.2222 6.22222C10.2222 6.31022 10.196 6.396 10.1471 6.46933C10.0987 6.54222 10.0289 6.59911 9.948 6.63289C9.86667 6.66667 9.77733 6.67511 9.69111 6.65822C9.60489 6.64089 9.52578 6.59867 9.46356 6.53644C9.40133 6.47422 9.35911 6.39511 9.34178 6.30889C9.32489 6.22267 9.33333 6.13333 9.36711 6.052C9.40089 5.97111 9.45778 5.90133 9.53067 5.85289C9.604 5.804 9.68978 5.77778 9.77778 5.77778C9.89556 5.77778 10.0089 5.82444 10.092 5.908C10.1756 5.99111 10.2222 6.10444 10.2222 6.22222ZM9.33333 4.44444C9.33333 4.35644 9.35956 4.27067 9.40844 4.19733C9.45689 4.12444 9.52667 4.06756 9.60756 4.03378C9.68889 4 9.77822 3.99156 9.86444 4.00844C9.95067 4.02578 10.0298 4.068 10.092 4.13022C10.1542 4.19244 10.1964 4.27156 10.2138 4.35778C10.2307 4.444 10.2222 4.53333 10.1884 4.61467C10.1547 4.69556 10.0978 4.76533 10.0249 4.81378C9.95156 4.86267 9.86578 4.88889 9.77778 4.88889C9.66 4.88889 9.54667 4.84222 9.46356 4.75867C9.38 4.67556 9.33333 4.56222 9.33333 4.44444ZM5.77778 6.22222C5.77778 6.31022 5.75156 6.396 5.70267 6.46933C5.65422 6.54222 5.58444 6.59911 5.50356 6.63289C5.42222 6.66667 5.33289 6.67511 5.24667 6.65822C5.16044 6.64089 5.08133 6.59867 5.01911 6.53644C4.95689 6.47422 4.91467 6.39511 4.89733 6.30889C4.88044 6.22267 4.88889 6.13333 4.92267 6.052C4.95644 5.97111 5.01333 5.90133 5.08622 5.85289C5.15956 5.804 5.24533 5.77778 5.33333 5.77778C5.45111 5.77778 5.56444 5.82444 5.64756 5.908C5.73111 5.99111 5.77778 6.10444 5.77778 6.22222ZM5.77778 4.44444C5.77778 4.53244 5.75156 4.61822 5.70267 4.69156C5.65422 4.76444 5.58444 4.82133 5.50356 4.85511C5.42222 4.88889 5.33289 4.89733 5.24667 4.88044C5.16044 4.86311 5.08133 4.82089 5.01911 4.75867C4.95689 4.69644 4.91467 4.61733 4.89733 4.53111C4.88044 4.44489 4.88889 4.35556 4.92267 4.27422C4.95644 4.19333 5.01333 4.12356 5.08622 4.07511C5.15956 4.02622 5.24533 4 5.33333 4C5.45111 4 5.56444 4.04667 5.64756 4.13022C5.73111 4.21333 5.77778 4.32667 5.77778 4.44444ZM5.77778 2.66667C5.77778 2.75467 5.75156 2.84044 5.70267 2.91378C5.65422 2.98667 5.58444 3.04356 5.50356 3.07733C5.42222 3.11111 5.33289 3.11956 5.24667 3.10267C5.16044 3.08533 5.08133 3.04311 5.01911 2.98089C4.95689 2.91867 4.91467 2.83956 4.89733 2.75333C4.88044 2.66711 4.88889 2.57778 4.92267 2.49644C4.95644 2.41556 5.01333 2.34578 5.08622 2.29733C5.15956 2.24844 5.24533 2.22222 5.33333 2.22222C5.45111 2.22222 5.56444 2.26889 5.64756 2.35244C5.73111 2.43556 5.77778 2.54889 5.77778 2.66667ZM3.11111 6.22222C3.11111 6.31022 3.08489 6.396 3.036 6.46933C2.98756 6.54222 2.91778 6.59911 2.83689 6.63289C2.75556 6.66667 2.66622 6.67511 2.58 6.65822C2.49378 6.64089 2.41467 6.59867 2.35244 6.53644C2.29022 6.47422 2.248 6.39511 2.23067 6.30889C2.21378 6.22267 2.22222 6.13333 2.256 6.052C2.28978 5.97111 2.34667 5.90133 2.41956 5.85289C2.49289 5.804 2.57867 5.77778 2.66667 5.77778C2.78444 5.77778 2.89778 5.82444 2.98089 5.908C3.06444 5.99111 3.11111 6.10444 3.11111 6.22222ZM3.11111 4.44444C3.11111 4.53244 3.08489 4.61822 3.036 4.69156C2.98756 4.76444 2.91778 4.82133 2.83689 4.85511C2.75556 4.88889 2.66622 4.89733 2.58 4.88044C2.49378 4.86311 2.41467 4.82089 2.35244 4.75867C2.29022 4.69644 2.248 4.61733 2.23067 4.53111C2.21378 4.44489 2.22222 4.35556 2.256 4.27422C2.28978 4.19333 2.34667 4.12356 2.41956 4.07511C2.49289 4.02622 2.57867 4 2.66667 4C2.78444 4 2.89778 4.04667 2.98089 4.13022C3.06444 4.21333 3.11111 4.32667 3.11111 4.44444ZM3.11111 2.66667C3.11111 2.75467 3.08489 2.84044 3.036 2.91378C2.98756 2.98667 2.91778 3.04356 2.83689 3.07733C2.75556 3.11111 2.66622 3.11956 2.58 3.10267C2.49378 3.08533 2.41467 3.04311 2.35244 2.98089C2.29022 2.91867 2.248 2.83956 2.23067 2.75333C2.21378 2.66711 2.22222 2.57778 2.256 2.49644C2.28978 2.41556 2.34667 2.34578 2.41956 2.29733C2.49289 2.24844 2.57867 2.22222 2.66667 2.22222C2.78444 2.22222 2.89778 2.26889 2.98089 2.35244C3.06444 2.43556 3.11111 2.54889 3.11111 2.66667Z" fill="#676768"/>
</svg>
