<svg width="15" height="13" viewBox="0 0 15 13" fill="none" xmlns="http://www.w3.org/2000/svg">
<path d="M3.63984 4.33984V8.53984M3.63984 4.33984C3.63984 3.95324 3.32644 3.63984 2.93984 3.63984H2.23984C1.46665 3.63984 0.839844 4.26664 0.839844 5.03984V7.83984C0.839844 8.61304 1.46665 9.23984 2.23984 9.23984H2.93984C3.32644 9.23984 3.63984 8.92644 3.63984 8.53984M3.63984 4.33984V4.07247C3.63984 3.80733 3.78965 3.56494 4.02679 3.44637L8.22679 1.34637C8.69223 1.11365 9.23984 1.4521 9.23984 1.97247V10.9072C9.23984 11.4276 8.69222 11.766 8.22679 11.5333L4.02679 9.43332C3.78965 9.31474 3.63984 9.07236 3.63984 8.80722V8.53984M12.0398 2.23984L13.4398 0.839844M12.0398 10.6398L13.4398 12.0398M12.0398 6.43984H14.1398" stroke="#1146D1" stroke-width="1.68" stroke-linecap="round"/>
</svg>
