<svg width="16" height="16" viewBox="0 0 16 16" fill="none" xmlns="http://www.w3.org/2000/svg">
<path d="M7.93294 15.8668H8.53294V14.6668H7.93294V15.2668V15.8668ZM14.5552 6.7085L14.6636 7.29862L15.8439 7.08183L15.7355 6.4917L15.1454 6.6001L14.5552 6.7085ZM5.43312 1.49863C5.42294 1.16742 5.14619 0.907165 4.81498 0.91734C4.48376 0.927514 4.22351 1.20426 4.23368 1.53548L4.8334 1.51706L5.43312 1.49863ZM7.56482 5.27137L7.89541 5.77208L7.56482 5.27137ZM11.1065 4.32237L11.2268 3.73455L11.1065 4.32237ZM14.0804 4.08111C14.3284 3.86125 14.3511 3.48204 14.1313 3.2341C13.9114 2.98617 13.5322 2.96341 13.2843 3.18327L13.6823 3.63219L14.0804 4.08111ZM2.17275 4.78027C2.15847 4.44921 1.8785 4.19241 1.54744 4.2067C1.21638 4.22099 0.959582 4.50095 0.97387 4.83201L1.57331 4.80614L2.17275 4.78027ZM3.42509 9.14125L3.06954 9.62456L3.42509 9.14125ZM5.04171 14.6115C4.95737 14.932 5.14879 15.2602 5.46925 15.3445C5.7897 15.4288 6.11786 15.2374 6.2022 14.917L5.62195 14.7643L5.04171 14.6115ZM14.842 15.0244C15.0763 15.2587 15.4562 15.2587 15.6905 15.0244C15.9249 14.79 15.9249 14.4101 15.6905 14.1758L15.2663 14.6001L14.842 15.0244ZM7.93294 0.600098V9.76324e-05C3.55148 9.76324e-05 -0.000390649 3.55197 -0.000390649 7.93343H0.599609H1.19961C1.19961 4.21471 4.21423 1.2001 7.93294 1.2001V0.600098ZM0.599609 7.93343H-0.000390649C-0.000390649 12.3149 3.55148 15.8668 7.93294 15.8668V15.2668V14.6668C4.21422 14.6668 1.19961 11.6521 1.19961 7.93343H0.599609ZM15.1454 6.6001L15.7355 6.4917C15.0571 2.79855 11.8225 9.76324e-05 7.93294 9.76324e-05V0.600098V1.2001C11.2329 1.2001 13.9796 3.57466 14.5552 6.7085L15.1454 6.6001ZM4.8334 1.51706L4.23368 1.53548C4.26404 2.52361 4.42081 3.91399 4.88734 4.90072C5.11971 5.3922 5.47834 5.88886 6.0399 6.10539C6.63489 6.33481 7.27254 6.18334 7.89541 5.77208L7.56482 5.27137L7.23422 4.77067C6.80152 5.05636 6.57739 5.02652 6.47162 4.98574C6.33244 4.93207 6.15133 4.7667 5.97219 4.3878C5.61569 3.63379 5.46234 2.45007 5.43312 1.49863L4.8334 1.51706ZM7.56482 5.27137L7.89541 5.77208C8.55738 5.33501 9.001 5.05025 9.32241 4.86775C9.65111 4.68111 9.7951 4.63566 9.86796 4.62457C9.91336 4.61765 9.95373 4.61702 10.128 4.67187C10.3039 4.72723 10.5824 4.82754 10.9863 4.91019L11.1065 4.32237L11.2268 3.73455C10.9005 3.66777 10.701 3.5942 10.4883 3.52723C10.2739 3.45975 10.0149 3.38835 9.68728 3.43825C9.38713 3.48396 9.08446 3.6229 8.72988 3.82424C8.36801 4.02972 7.89174 4.33654 7.23422 4.77067L7.56482 5.27137ZM11.1065 4.32237L10.9863 4.91019C12.4049 5.2005 13.626 4.48403 14.0804 4.08111L13.6823 3.63219L13.2843 3.18327C12.9951 3.4397 12.1449 3.92241 11.2268 3.73455L11.1065 4.32237ZM1.57331 4.80614L0.97387 4.83201C0.998176 5.39521 1.12642 6.28373 1.43265 7.17334C1.73541 8.05284 2.23982 9.01417 3.06954 9.62456L3.42509 9.14125L3.78063 8.65794C3.23494 8.2565 2.83555 7.562 2.56731 6.78276C2.30255 6.01364 2.19262 5.24051 2.17275 4.78027L1.57331 4.80614ZM3.42509 9.14125L3.06954 9.62456C3.55996 9.98534 4.06277 10.1968 4.43599 10.3679C4.8356 10.5511 5.06694 10.6805 5.22297 10.8651C5.35969 11.0269 5.49115 11.2987 5.49762 11.8774C5.50424 12.4697 5.37871 13.3311 5.04171 14.6115L5.62195 14.7643L6.2022 14.917C6.54919 13.5985 6.70595 12.6156 6.69755 11.864C6.68899 11.0987 6.50809 10.5267 6.13951 10.0906C5.79023 9.67728 5.32331 9.45459 4.93608 9.27707C4.52245 9.08744 4.14984 8.92955 3.78063 8.65794L3.42509 9.14125ZM13.9722 10.2864H13.3722C13.3722 11.6227 12.2889 12.706 10.9526 12.706V13.306V13.906C12.9516 13.906 14.5722 12.2854 14.5722 10.2864H13.9722ZM10.9526 13.306V12.706C9.61624 12.706 8.53294 11.6227 8.53294 10.2864H7.93294H7.33294C7.33294 12.2854 8.9535 13.906 10.9526 13.906V13.306ZM7.93294 10.2864H8.53294C8.53294 8.95006 9.61624 7.86676 10.9526 7.86676V7.26676V6.66676C8.9535 6.66676 7.33294 8.28732 7.33294 10.2864H7.93294ZM10.9526 7.26676V7.86676C12.2889 7.86676 13.3722 8.95006 13.3722 10.2864H13.9722H14.5722C14.5722 8.28732 12.9516 6.66676 10.9526 6.66676V7.26676ZM13.1094 12.4432L12.6851 12.8675L14.842 15.0244L15.2663 14.6001L15.6905 14.1758L13.5337 12.019L13.1094 12.4432Z" fill="#49494B"/>
<path d="M7.93294 15.8668H8.53294V14.6668H7.93294V15.2668V15.8668ZM14.5552 6.7085L14.6636 7.29862L15.8439 7.08183L15.7355 6.4917L15.1454 6.6001L14.5552 6.7085ZM5.43312 1.49863C5.42294 1.16742 5.14619 0.907165 4.81498 0.91734C4.48376 0.927514 4.22351 1.20426 4.23368 1.53548L4.8334 1.51706L5.43312 1.49863ZM7.56482 5.27137L7.89541 5.77208L7.56482 5.27137ZM11.1065 4.32237L11.2268 3.73455L11.1065 4.32237ZM14.0804 4.08111C14.3284 3.86125 14.3511 3.48204 14.1313 3.2341C13.9114 2.98617 13.5322 2.96341 13.2843 3.18327L13.6823 3.63219L14.0804 4.08111ZM2.17275 4.78027C2.15847 4.44921 1.8785 4.19241 1.54744 4.2067C1.21638 4.22099 0.959582 4.50095 0.97387 4.83201L1.57331 4.80614L2.17275 4.78027ZM3.42509 9.14125L3.06954 9.62456L3.42509 9.14125ZM5.04171 14.6115C4.95737 14.932 5.14879 15.2602 5.46925 15.3445C5.7897 15.4288 6.11786 15.2374 6.2022 14.917L5.62195 14.7643L5.04171 14.6115ZM14.842 15.0244C15.0763 15.2587 15.4562 15.2587 15.6905 15.0244C15.9249 14.79 15.9249 14.4101 15.6905 14.1758L15.2663 14.6001L14.842 15.0244ZM7.93294 0.600098V9.76324e-05C3.55148 9.76324e-05 -0.000390649 3.55197 -0.000390649 7.93343H0.599609H1.19961C1.19961 4.21471 4.21423 1.2001 7.93294 1.2001V0.600098ZM0.599609 7.93343H-0.000390649C-0.000390649 12.3149 3.55148 15.8668 7.93294 15.8668V15.2668V14.6668C4.21422 14.6668 1.19961 11.6521 1.19961 7.93343H0.599609ZM15.1454 6.6001L15.7355 6.4917C15.0571 2.79855 11.8225 9.76324e-05 7.93294 9.76324e-05V0.600098V1.2001C11.2329 1.2001 13.9796 3.57466 14.5552 6.7085L15.1454 6.6001ZM4.8334 1.51706L4.23368 1.53548C4.26404 2.52361 4.42081 3.91399 4.88734 4.90072C5.11971 5.3922 5.47834 5.88886 6.0399 6.10539C6.63489 6.33481 7.27254 6.18334 7.89541 5.77208L7.56482 5.27137L7.23422 4.77067C6.80152 5.05636 6.57739 5.02652 6.47162 4.98574C6.33244 4.93207 6.15133 4.7667 5.97219 4.3878C5.61569 3.63379 5.46234 2.45007 5.43312 1.49863L4.8334 1.51706ZM7.56482 5.27137L7.89541 5.77208C8.55738 5.33501 9.001 5.05025 9.32241 4.86775C9.65111 4.68111 9.7951 4.63566 9.86796 4.62457C9.91336 4.61765 9.95373 4.61702 10.128 4.67187C10.3039 4.72723 10.5824 4.82754 10.9863 4.91019L11.1065 4.32237L11.2268 3.73455C10.9005 3.66777 10.701 3.5942 10.4883 3.52723C10.2739 3.45975 10.0149 3.38835 9.68728 3.43825C9.38713 3.48396 9.08446 3.6229 8.72988 3.82424C8.36801 4.02972 7.89174 4.33654 7.23422 4.77067L7.56482 5.27137ZM11.1065 4.32237L10.9863 4.91019C12.4049 5.2005 13.626 4.48403 14.0804 4.08111L13.6823 3.63219L13.2843 3.18327C12.9951 3.4397 12.1449 3.92241 11.2268 3.73455L11.1065 4.32237ZM1.57331 4.80614L0.97387 4.83201C0.998176 5.39521 1.12642 6.28373 1.43265 7.17334C1.73541 8.05284 2.23982 9.01417 3.06954 9.62456L3.42509 9.14125L3.78063 8.65794C3.23494 8.2565 2.83555 7.562 2.56731 6.78276C2.30255 6.01364 2.19262 5.24051 2.17275 4.78027L1.57331 4.80614ZM3.42509 9.14125L3.06954 9.62456C3.55996 9.98534 4.06277 10.1968 4.43599 10.3679C4.8356 10.5511 5.06694 10.6805 5.22297 10.8651C5.35969 11.0269 5.49115 11.2987 5.49762 11.8774C5.50424 12.4697 5.37871 13.3311 5.04171 14.6115L5.62195 14.7643L6.2022 14.917C6.54919 13.5985 6.70595 12.6156 6.69755 11.864C6.68899 11.0987 6.50809 10.5267 6.13951 10.0906C5.79023 9.67728 5.32331 9.45459 4.93608 9.27707C4.52245 9.08744 4.14984 8.92955 3.78063 8.65794L3.42509 9.14125ZM13.9722 10.2864H13.3722C13.3722 11.6227 12.2889 12.706 10.9526 12.706V13.306V13.906C12.9516 13.906 14.5722 12.2854 14.5722 10.2864H13.9722ZM10.9526 13.306V12.706C9.61624 12.706 8.53294 11.6227 8.53294 10.2864H7.93294H7.33294C7.33294 12.2854 8.9535 13.906 10.9526 13.906V13.306ZM7.93294 10.2864H8.53294C8.53294 8.95006 9.61624 7.86676 10.9526 7.86676V7.26676V6.66676C8.9535 6.66676 7.33294 8.28732 7.33294 10.2864H7.93294ZM10.9526 7.26676V7.86676C12.2889 7.86676 13.3722 8.95006 13.3722 10.2864H13.9722H14.5722C14.5722 8.28732 12.9516 6.66676 10.9526 6.66676V7.26676ZM13.1094 12.4432L12.6851 12.8675L14.842 15.0244L15.2663 14.6001L15.6905 14.1758L13.5337 12.019L13.1094 12.4432Z" fill="black" fill-opacity="0.2"/>
<path d="M7.93294 15.8668H8.53294V14.6668H7.93294V15.2668V15.8668ZM14.5552 6.7085L14.6636 7.29862L15.8439 7.08183L15.7355 6.4917L15.1454 6.6001L14.5552 6.7085ZM5.43312 1.49863C5.42294 1.16742 5.14619 0.907165 4.81498 0.91734C4.48376 0.927514 4.22351 1.20426 4.23368 1.53548L4.8334 1.51706L5.43312 1.49863ZM7.56482 5.27137L7.89541 5.77208L7.56482 5.27137ZM11.1065 4.32237L11.2268 3.73455L11.1065 4.32237ZM14.0804 4.08111C14.3284 3.86125 14.3511 3.48204 14.1313 3.2341C13.9114 2.98617 13.5322 2.96341 13.2843 3.18327L13.6823 3.63219L14.0804 4.08111ZM2.17275 4.78027C2.15847 4.44921 1.8785 4.19241 1.54744 4.2067C1.21638 4.22099 0.959582 4.50095 0.97387 4.83201L1.57331 4.80614L2.17275 4.78027ZM3.42509 9.14125L3.06954 9.62456L3.42509 9.14125ZM5.04171 14.6115C4.95737 14.932 5.14879 15.2602 5.46925 15.3445C5.7897 15.4288 6.11786 15.2374 6.2022 14.917L5.62195 14.7643L5.04171 14.6115ZM14.842 15.0244C15.0763 15.2587 15.4562 15.2587 15.6905 15.0244C15.9249 14.79 15.9249 14.4101 15.6905 14.1758L15.2663 14.6001L14.842 15.0244ZM7.93294 0.600098V9.76324e-05C3.55148 9.76324e-05 -0.000390649 3.55197 -0.000390649 7.93343H0.599609H1.19961C1.19961 4.21471 4.21423 1.2001 7.93294 1.2001V0.600098ZM0.599609 7.93343H-0.000390649C-0.000390649 12.3149 3.55148 15.8668 7.93294 15.8668V15.2668V14.6668C4.21422 14.6668 1.19961 11.6521 1.19961 7.93343H0.599609ZM15.1454 6.6001L15.7355 6.4917C15.0571 2.79855 11.8225 9.76324e-05 7.93294 9.76324e-05V0.600098V1.2001C11.2329 1.2001 13.9796 3.57466 14.5552 6.7085L15.1454 6.6001ZM4.8334 1.51706L4.23368 1.53548C4.26404 2.52361 4.42081 3.91399 4.88734 4.90072C5.11971 5.3922 5.47834 5.88886 6.0399 6.10539C6.63489 6.33481 7.27254 6.18334 7.89541 5.77208L7.56482 5.27137L7.23422 4.77067C6.80152 5.05636 6.57739 5.02652 6.47162 4.98574C6.33244 4.93207 6.15133 4.7667 5.97219 4.3878C5.61569 3.63379 5.46234 2.45007 5.43312 1.49863L4.8334 1.51706ZM7.56482 5.27137L7.89541 5.77208C8.55738 5.33501 9.001 5.05025 9.32241 4.86775C9.65111 4.68111 9.7951 4.63566 9.86796 4.62457C9.91336 4.61765 9.95373 4.61702 10.128 4.67187C10.3039 4.72723 10.5824 4.82754 10.9863 4.91019L11.1065 4.32237L11.2268 3.73455C10.9005 3.66777 10.701 3.5942 10.4883 3.52723C10.2739 3.45975 10.0149 3.38835 9.68728 3.43825C9.38713 3.48396 9.08446 3.6229 8.72988 3.82424C8.36801 4.02972 7.89174 4.33654 7.23422 4.77067L7.56482 5.27137ZM11.1065 4.32237L10.9863 4.91019C12.4049 5.2005 13.626 4.48403 14.0804 4.08111L13.6823 3.63219L13.2843 3.18327C12.9951 3.4397 12.1449 3.92241 11.2268 3.73455L11.1065 4.32237ZM1.57331 4.80614L0.97387 4.83201C0.998176 5.39521 1.12642 6.28373 1.43265 7.17334C1.73541 8.05284 2.23982 9.01417 3.06954 9.62456L3.42509 9.14125L3.78063 8.65794C3.23494 8.2565 2.83555 7.562 2.56731 6.78276C2.30255 6.01364 2.19262 5.24051 2.17275 4.78027L1.57331 4.80614ZM3.42509 9.14125L3.06954 9.62456C3.55996 9.98534 4.06277 10.1968 4.43599 10.3679C4.8356 10.5511 5.06694 10.6805 5.22297 10.8651C5.35969 11.0269 5.49115 11.2987 5.49762 11.8774C5.50424 12.4697 5.37871 13.3311 5.04171 14.6115L5.62195 14.7643L6.2022 14.917C6.54919 13.5985 6.70595 12.6156 6.69755 11.864C6.68899 11.0987 6.50809 10.5267 6.13951 10.0906C5.79023 9.67728 5.32331 9.45459 4.93608 9.27707C4.52245 9.08744 4.14984 8.92955 3.78063 8.65794L3.42509 9.14125ZM13.9722 10.2864H13.3722C13.3722 11.6227 12.2889 12.706 10.9526 12.706V13.306V13.906C12.9516 13.906 14.5722 12.2854 14.5722 10.2864H13.9722ZM10.9526 13.306V12.706C9.61624 12.706 8.53294 11.6227 8.53294 10.2864H7.93294H7.33294C7.33294 12.2854 8.9535 13.906 10.9526 13.906V13.306ZM7.93294 10.2864H8.53294C8.53294 8.95006 9.61624 7.86676 10.9526 7.86676V7.26676V6.66676C8.9535 6.66676 7.33294 8.28732 7.33294 10.2864H7.93294ZM10.9526 7.26676V7.86676C12.2889 7.86676 13.3722 8.95006 13.3722 10.2864H13.9722H14.5722C14.5722 8.28732 12.9516 6.66676 10.9526 6.66676V7.26676ZM13.1094 12.4432L12.6851 12.8675L14.842 15.0244L15.2663 14.6001L15.6905 14.1758L13.5337 12.019L13.1094 12.4432Z" fill="black" fill-opacity="0.2"/>
<path d="M7.93294 15.8668H8.53294V14.6668H7.93294V15.2668V15.8668ZM14.5552 6.7085L14.6636 7.29862L15.8439 7.08183L15.7355 6.4917L15.1454 6.6001L14.5552 6.7085ZM5.43312 1.49863C5.42294 1.16742 5.14619 0.907165 4.81498 0.91734C4.48376 0.927514 4.22351 1.20426 4.23368 1.53548L4.8334 1.51706L5.43312 1.49863ZM7.56482 5.27137L7.89541 5.77208L7.56482 5.27137ZM11.1065 4.32237L11.2268 3.73455L11.1065 4.32237ZM14.0804 4.08111C14.3284 3.86125 14.3511 3.48204 14.1313 3.2341C13.9114 2.98617 13.5322 2.96341 13.2843 3.18327L13.6823 3.63219L14.0804 4.08111ZM2.17275 4.78027C2.15847 4.44921 1.8785 4.19241 1.54744 4.2067C1.21638 4.22099 0.959582 4.50095 0.97387 4.83201L1.57331 4.80614L2.17275 4.78027ZM3.42509 9.14125L3.06954 9.62456L3.42509 9.14125ZM5.04171 14.6115C4.95737 14.932 5.14879 15.2602 5.46925 15.3445C5.7897 15.4288 6.11786 15.2374 6.2022 14.917L5.62195 14.7643L5.04171 14.6115ZM14.842 15.0244C15.0763 15.2587 15.4562 15.2587 15.6905 15.0244C15.9249 14.79 15.9249 14.4101 15.6905 14.1758L15.2663 14.6001L14.842 15.0244ZM7.93294 0.600098V9.76324e-05C3.55148 9.76324e-05 -0.000390649 3.55197 -0.000390649 7.93343H0.599609H1.19961C1.19961 4.21471 4.21423 1.2001 7.93294 1.2001V0.600098ZM0.599609 7.93343H-0.000390649C-0.000390649 12.3149 3.55148 15.8668 7.93294 15.8668V15.2668V14.6668C4.21422 14.6668 1.19961 11.6521 1.19961 7.93343H0.599609ZM15.1454 6.6001L15.7355 6.4917C15.0571 2.79855 11.8225 9.76324e-05 7.93294 9.76324e-05V0.600098V1.2001C11.2329 1.2001 13.9796 3.57466 14.5552 6.7085L15.1454 6.6001ZM4.8334 1.51706L4.23368 1.53548C4.26404 2.52361 4.42081 3.91399 4.88734 4.90072C5.11971 5.3922 5.47834 5.88886 6.0399 6.10539C6.63489 6.33481 7.27254 6.18334 7.89541 5.77208L7.56482 5.27137L7.23422 4.77067C6.80152 5.05636 6.57739 5.02652 6.47162 4.98574C6.33244 4.93207 6.15133 4.7667 5.97219 4.3878C5.61569 3.63379 5.46234 2.45007 5.43312 1.49863L4.8334 1.51706ZM7.56482 5.27137L7.89541 5.77208C8.55738 5.33501 9.001 5.05025 9.32241 4.86775C9.65111 4.68111 9.7951 4.63566 9.86796 4.62457C9.91336 4.61765 9.95373 4.61702 10.128 4.67187C10.3039 4.72723 10.5824 4.82754 10.9863 4.91019L11.1065 4.32237L11.2268 3.73455C10.9005 3.66777 10.701 3.5942 10.4883 3.52723C10.2739 3.45975 10.0149 3.38835 9.68728 3.43825C9.38713 3.48396 9.08446 3.6229 8.72988 3.82424C8.36801 4.02972 7.89174 4.33654 7.23422 4.77067L7.56482 5.27137ZM11.1065 4.32237L10.9863 4.91019C12.4049 5.2005 13.626 4.48403 14.0804 4.08111L13.6823 3.63219L13.2843 3.18327C12.9951 3.4397 12.1449 3.92241 11.2268 3.73455L11.1065 4.32237ZM1.57331 4.80614L0.97387 4.83201C0.998176 5.39521 1.12642 6.28373 1.43265 7.17334C1.73541 8.05284 2.23982 9.01417 3.06954 9.62456L3.42509 9.14125L3.78063 8.65794C3.23494 8.2565 2.83555 7.562 2.56731 6.78276C2.30255 6.01364 2.19262 5.24051 2.17275 4.78027L1.57331 4.80614ZM3.42509 9.14125L3.06954 9.62456C3.55996 9.98534 4.06277 10.1968 4.43599 10.3679C4.8356 10.5511 5.06694 10.6805 5.22297 10.8651C5.35969 11.0269 5.49115 11.2987 5.49762 11.8774C5.50424 12.4697 5.37871 13.3311 5.04171 14.6115L5.62195 14.7643L6.2022 14.917C6.54919 13.5985 6.70595 12.6156 6.69755 11.864C6.68899 11.0987 6.50809 10.5267 6.13951 10.0906C5.79023 9.67728 5.32331 9.45459 4.93608 9.27707C4.52245 9.08744 4.14984 8.92955 3.78063 8.65794L3.42509 9.14125ZM13.9722 10.2864H13.3722C13.3722 11.6227 12.2889 12.706 10.9526 12.706V13.306V13.906C12.9516 13.906 14.5722 12.2854 14.5722 10.2864H13.9722ZM10.9526 13.306V12.706C9.61624 12.706 8.53294 11.6227 8.53294 10.2864H7.93294H7.33294C7.33294 12.2854 8.9535 13.906 10.9526 13.906V13.306ZM7.93294 10.2864H8.53294C8.53294 8.95006 9.61624 7.86676 10.9526 7.86676V7.26676V6.66676C8.9535 6.66676 7.33294 8.28732 7.33294 10.2864H7.93294ZM10.9526 7.26676V7.86676C12.2889 7.86676 13.3722 8.95006 13.3722 10.2864H13.9722H14.5722C14.5722 8.28732 12.9516 6.66676 10.9526 6.66676V7.26676ZM13.1094 12.4432L12.6851 12.8675L14.842 15.0244L15.2663 14.6001L15.6905 14.1758L13.5337 12.019L13.1094 12.4432Z" fill="black" fill-opacity="0.2"/>
<path d="M7.93294 15.8668H8.53294V14.6668H7.93294V15.2668V15.8668ZM14.5552 6.7085L14.6636 7.29862L15.8439 7.08183L15.7355 6.4917L15.1454 6.6001L14.5552 6.7085ZM5.43312 1.49863C5.42294 1.16742 5.14619 0.907165 4.81498 0.91734C4.48376 0.927514 4.22351 1.20426 4.23368 1.53548L4.8334 1.51706L5.43312 1.49863ZM7.56482 5.27137L7.89541 5.77208L7.56482 5.27137ZM11.1065 4.32237L11.2268 3.73455L11.1065 4.32237ZM14.0804 4.08111C14.3284 3.86125 14.3511 3.48204 14.1313 3.2341C13.9114 2.98617 13.5322 2.96341 13.2843 3.18327L13.6823 3.63219L14.0804 4.08111ZM2.17275 4.78027C2.15847 4.44921 1.8785 4.19241 1.54744 4.2067C1.21638 4.22099 0.959582 4.50095 0.97387 4.83201L1.57331 4.80614L2.17275 4.78027ZM3.42509 9.14125L3.06954 9.62456L3.42509 9.14125ZM5.04171 14.6115C4.95737 14.932 5.14879 15.2602 5.46925 15.3445C5.7897 15.4288 6.11786 15.2374 6.2022 14.917L5.62195 14.7643L5.04171 14.6115ZM14.842 15.0244C15.0763 15.2587 15.4562 15.2587 15.6905 15.0244C15.9249 14.79 15.9249 14.4101 15.6905 14.1758L15.2663 14.6001L14.842 15.0244ZM7.93294 0.600098V9.76324e-05C3.55148 9.76324e-05 -0.000390649 3.55197 -0.000390649 7.93343H0.599609H1.19961C1.19961 4.21471 4.21423 1.2001 7.93294 1.2001V0.600098ZM0.599609 7.93343H-0.000390649C-0.000390649 12.3149 3.55148 15.8668 7.93294 15.8668V15.2668V14.6668C4.21422 14.6668 1.19961 11.6521 1.19961 7.93343H0.599609ZM15.1454 6.6001L15.7355 6.4917C15.0571 2.79855 11.8225 9.76324e-05 7.93294 9.76324e-05V0.600098V1.2001C11.2329 1.2001 13.9796 3.57466 14.5552 6.7085L15.1454 6.6001ZM4.8334 1.51706L4.23368 1.53548C4.26404 2.52361 4.42081 3.91399 4.88734 4.90072C5.11971 5.3922 5.47834 5.88886 6.0399 6.10539C6.63489 6.33481 7.27254 6.18334 7.89541 5.77208L7.56482 5.27137L7.23422 4.77067C6.80152 5.05636 6.57739 5.02652 6.47162 4.98574C6.33244 4.93207 6.15133 4.7667 5.97219 4.3878C5.61569 3.63379 5.46234 2.45007 5.43312 1.49863L4.8334 1.51706ZM7.56482 5.27137L7.89541 5.77208C8.55738 5.33501 9.001 5.05025 9.32241 4.86775C9.65111 4.68111 9.7951 4.63566 9.86796 4.62457C9.91336 4.61765 9.95373 4.61702 10.128 4.67187C10.3039 4.72723 10.5824 4.82754 10.9863 4.91019L11.1065 4.32237L11.2268 3.73455C10.9005 3.66777 10.701 3.5942 10.4883 3.52723C10.2739 3.45975 10.0149 3.38835 9.68728 3.43825C9.38713 3.48396 9.08446 3.6229 8.72988 3.82424C8.36801 4.02972 7.89174 4.33654 7.23422 4.77067L7.56482 5.27137ZM11.1065 4.32237L10.9863 4.91019C12.4049 5.2005 13.626 4.48403 14.0804 4.08111L13.6823 3.63219L13.2843 3.18327C12.9951 3.4397 12.1449 3.92241 11.2268 3.73455L11.1065 4.32237ZM1.57331 4.80614L0.97387 4.83201C0.998176 5.39521 1.12642 6.28373 1.43265 7.17334C1.73541 8.05284 2.23982 9.01417 3.06954 9.62456L3.42509 9.14125L3.78063 8.65794C3.23494 8.2565 2.83555 7.562 2.56731 6.78276C2.30255 6.01364 2.19262 5.24051 2.17275 4.78027L1.57331 4.80614ZM3.42509 9.14125L3.06954 9.62456C3.55996 9.98534 4.06277 10.1968 4.43599 10.3679C4.8356 10.5511 5.06694 10.6805 5.22297 10.8651C5.35969 11.0269 5.49115 11.2987 5.49762 11.8774C5.50424 12.4697 5.37871 13.3311 5.04171 14.6115L5.62195 14.7643L6.2022 14.917C6.54919 13.5985 6.70595 12.6156 6.69755 11.864C6.68899 11.0987 6.50809 10.5267 6.13951 10.0906C5.79023 9.67728 5.32331 9.45459 4.93608 9.27707C4.52245 9.08744 4.14984 8.92955 3.78063 8.65794L3.42509 9.14125ZM13.9722 10.2864H13.3722C13.3722 11.6227 12.2889 12.706 10.9526 12.706V13.306V13.906C12.9516 13.906 14.5722 12.2854 14.5722 10.2864H13.9722ZM10.9526 13.306V12.706C9.61624 12.706 8.53294 11.6227 8.53294 10.2864H7.93294H7.33294C7.33294 12.2854 8.9535 13.906 10.9526 13.906V13.306ZM7.93294 10.2864H8.53294C8.53294 8.95006 9.61624 7.86676 10.9526 7.86676V7.26676V6.66676C8.9535 6.66676 7.33294 8.28732 7.33294 10.2864H7.93294ZM10.9526 7.26676V7.86676C12.2889 7.86676 13.3722 8.95006 13.3722 10.2864H13.9722H14.5722C14.5722 8.28732 12.9516 6.66676 10.9526 6.66676V7.26676ZM13.1094 12.4432L12.6851 12.8675L14.842 15.0244L15.2663 14.6001L15.6905 14.1758L13.5337 12.019L13.1094 12.4432Z" fill="black" fill-opacity="0.2"/>
<path d="M7.93294 15.8668H8.53294V14.6668H7.93294V15.2668V15.8668ZM14.5552 6.7085L14.6636 7.29862L15.8439 7.08183L15.7355 6.4917L15.1454 6.6001L14.5552 6.7085ZM5.43312 1.49863C5.42294 1.16742 5.14619 0.907165 4.81498 0.91734C4.48376 0.927514 4.22351 1.20426 4.23368 1.53548L4.8334 1.51706L5.43312 1.49863ZM7.56482 5.27137L7.89541 5.77208L7.56482 5.27137ZM11.1065 4.32237L11.2268 3.73455L11.1065 4.32237ZM14.0804 4.08111C14.3284 3.86125 14.3511 3.48204 14.1313 3.2341C13.9114 2.98617 13.5322 2.96341 13.2843 3.18327L13.6823 3.63219L14.0804 4.08111ZM2.17275 4.78027C2.15847 4.44921 1.8785 4.19241 1.54744 4.2067C1.21638 4.22099 0.959582 4.50095 0.97387 4.83201L1.57331 4.80614L2.17275 4.78027ZM3.42509 9.14125L3.06954 9.62456L3.42509 9.14125ZM5.04171 14.6115C4.95737 14.932 5.14879 15.2602 5.46925 15.3445C5.7897 15.4288 6.11786 15.2374 6.2022 14.917L5.62195 14.7643L5.04171 14.6115ZM14.842 15.0244C15.0763 15.2587 15.4562 15.2587 15.6905 15.0244C15.9249 14.79 15.9249 14.4101 15.6905 14.1758L15.2663 14.6001L14.842 15.0244ZM7.93294 0.600098V9.76324e-05C3.55148 9.76324e-05 -0.000390649 3.55197 -0.000390649 7.93343H0.599609H1.19961C1.19961 4.21471 4.21423 1.2001 7.93294 1.2001V0.600098ZM0.599609 7.93343H-0.000390649C-0.000390649 12.3149 3.55148 15.8668 7.93294 15.8668V15.2668V14.6668C4.21422 14.6668 1.19961 11.6521 1.19961 7.93343H0.599609ZM15.1454 6.6001L15.7355 6.4917C15.0571 2.79855 11.8225 9.76324e-05 7.93294 9.76324e-05V0.600098V1.2001C11.2329 1.2001 13.9796 3.57466 14.5552 6.7085L15.1454 6.6001ZM4.8334 1.51706L4.23368 1.53548C4.26404 2.52361 4.42081 3.91399 4.88734 4.90072C5.11971 5.3922 5.47834 5.88886 6.0399 6.10539C6.63489 6.33481 7.27254 6.18334 7.89541 5.77208L7.56482 5.27137L7.23422 4.77067C6.80152 5.05636 6.57739 5.02652 6.47162 4.98574C6.33244 4.93207 6.15133 4.7667 5.97219 4.3878C5.61569 3.63379 5.46234 2.45007 5.43312 1.49863L4.8334 1.51706ZM7.56482 5.27137L7.89541 5.77208C8.55738 5.33501 9.001 5.05025 9.32241 4.86775C9.65111 4.68111 9.7951 4.63566 9.86796 4.62457C9.91336 4.61765 9.95373 4.61702 10.128 4.67187C10.3039 4.72723 10.5824 4.82754 10.9863 4.91019L11.1065 4.32237L11.2268 3.73455C10.9005 3.66777 10.701 3.5942 10.4883 3.52723C10.2739 3.45975 10.0149 3.38835 9.68728 3.43825C9.38713 3.48396 9.08446 3.6229 8.72988 3.82424C8.36801 4.02972 7.89174 4.33654 7.23422 4.77067L7.56482 5.27137ZM11.1065 4.32237L10.9863 4.91019C12.4049 5.2005 13.626 4.48403 14.0804 4.08111L13.6823 3.63219L13.2843 3.18327C12.9951 3.4397 12.1449 3.92241 11.2268 3.73455L11.1065 4.32237ZM1.57331 4.80614L0.97387 4.83201C0.998176 5.39521 1.12642 6.28373 1.43265 7.17334C1.73541 8.05284 2.23982 9.01417 3.06954 9.62456L3.42509 9.14125L3.78063 8.65794C3.23494 8.2565 2.83555 7.562 2.56731 6.78276C2.30255 6.01364 2.19262 5.24051 2.17275 4.78027L1.57331 4.80614ZM3.42509 9.14125L3.06954 9.62456C3.55996 9.98534 4.06277 10.1968 4.43599 10.3679C4.8356 10.5511 5.06694 10.6805 5.22297 10.8651C5.35969 11.0269 5.49115 11.2987 5.49762 11.8774C5.50424 12.4697 5.37871 13.3311 5.04171 14.6115L5.62195 14.7643L6.2022 14.917C6.54919 13.5985 6.70595 12.6156 6.69755 11.864C6.68899 11.0987 6.50809 10.5267 6.13951 10.0906C5.79023 9.67728 5.32331 9.45459 4.93608 9.27707C4.52245 9.08744 4.14984 8.92955 3.78063 8.65794L3.42509 9.14125ZM13.9722 10.2864H13.3722C13.3722 11.6227 12.2889 12.706 10.9526 12.706V13.306V13.906C12.9516 13.906 14.5722 12.2854 14.5722 10.2864H13.9722ZM10.9526 13.306V12.706C9.61624 12.706 8.53294 11.6227 8.53294 10.2864H7.93294H7.33294C7.33294 12.2854 8.9535 13.906 10.9526 13.906V13.306ZM7.93294 10.2864H8.53294C8.53294 8.95006 9.61624 7.86676 10.9526 7.86676V7.26676V6.66676C8.9535 6.66676 7.33294 8.28732 7.33294 10.2864H7.93294ZM10.9526 7.26676V7.86676C12.2889 7.86676 13.3722 8.95006 13.3722 10.2864H13.9722H14.5722C14.5722 8.28732 12.9516 6.66676 10.9526 6.66676V7.26676ZM13.1094 12.4432L12.6851 12.8675L14.842 15.0244L15.2663 14.6001L15.6905 14.1758L13.5337 12.019L13.1094 12.4432Z" fill="black" fill-opacity="0.2"/>
</svg>
