<svg width="28" height="28" viewBox="0 0 28 28" fill="none" xmlns="http://www.w3.org/2000/svg">
<rect width="28" height="28" rx="14" fill="#1146D1" fill-opacity="0.05"/>
<path d="M14.0003 20.696C17.6982 20.696 20.696 17.6982 20.696 14.0003C20.696 10.3024 17.6982 7.30469 14.0003 7.30469M14.0003 20.696C10.3024 20.696 7.30469 17.6982 7.30469 14.0003C7.30469 10.3024 10.3024 7.30469 14.0003 7.30469M14.0003 20.696C15.345 20.696 16.4351 17.6982 16.4351 14.0003C16.4351 10.3024 15.345 7.30469 14.0003 7.30469M14.0003 20.696C12.6556 20.696 11.5656 17.6982 11.5656 14.0003C11.5656 10.3024 12.6556 7.30469 14.0003 7.30469M7.91338 11.5656H20.0873M7.91338 15.8264H20.0873" stroke="#1146D1" stroke-width="1.46087" stroke-linecap="round"/>
</svg>
