<svg width="30" height="28" viewBox="0 0 30 28" fill="none" xmlns="http://www.w3.org/2000/svg">
<rect width="29.5" height="28" rx="14" fill="#1146D1" fill-opacity="0.05"/>
<path fill-rule="evenodd" clip-rule="evenodd" d="M14.7454 9.43711C13.3958 7.86435 11.1453 7.44128 9.45442 8.88146C7.76351 10.3216 7.52545 12.7296 8.85333 14.4329C9.95738 15.849 13.2986 18.8359 14.3937 19.8026C14.5162 19.9108 14.5774 19.9648 14.6489 19.9861C14.7113 20.0046 14.7795 20.0046 14.8419 19.9861C14.9133 19.9648 14.9746 19.9108 15.0971 19.8026C16.1922 18.8359 19.5334 15.849 20.6374 14.4329C21.9653 12.7296 21.7563 10.3065 20.0363 8.88146C18.3164 7.45643 16.0949 7.86435 14.7454 9.43711Z" stroke="#1146D1" stroke-width="1.6" stroke-linecap="round" stroke-linejoin="round"/>
</svg>
