<svg width="16" height="16" viewBox="0 0 16 16" fill="none" xmlns="http://www.w3.org/2000/svg">
<path d="M0.666992 7.01707L6.99983 2.32688C7.58831 1.89104 8.41235 1.89104 9.00082 2.32688L15.3337 7.01707M3.11144 5.20667V12.4482C3.11144 13.3053 3.84105 14 4.74107 14H5.55588H10.4448H11.2596C12.1596 14 12.8892 13.3053 12.8892 12.4482V2.36178M6.3707 14V9.34471C6.3707 8.9162 6.7355 8.56883 7.18551 8.56883H8.81514C9.26515 8.56883 9.62996 8.9162 9.62996 9.34471V14" stroke="#49494B" stroke-width="1.2" stroke-linecap="round"/>
<path d="M0.666992 7.01707L6.99983 2.32688C7.58831 1.89104 8.41235 1.89104 9.00082 2.32688L15.3337 7.01707M3.11144 5.20667V12.4482C3.11144 13.3053 3.84105 14 4.74107 14H5.55588H10.4448H11.2596C12.1596 14 12.8892 13.3053 12.8892 12.4482V2.36178M6.3707 14V9.34471C6.3707 8.9162 6.7355 8.56883 7.18551 8.56883H8.81514C9.26515 8.56883 9.62996 8.9162 9.62996 9.34471V14" stroke="black" stroke-opacity="0.2" stroke-width="1.2" stroke-linecap="round"/>
<path d="M0.666992 7.01707L6.99983 2.32688C7.58831 1.89104 8.41235 1.89104 9.00082 2.32688L15.3337 7.01707M3.11144 5.20667V12.4482C3.11144 13.3053 3.84105 14 4.74107 14H5.55588H10.4448H11.2596C12.1596 14 12.8892 13.3053 12.8892 12.4482V2.36178M6.3707 14V9.34471C6.3707 8.9162 6.7355 8.56883 7.18551 8.56883H8.81514C9.26515 8.56883 9.62996 8.9162 9.62996 9.34471V14" stroke="black" stroke-opacity="0.2" stroke-width="1.2" stroke-linecap="round"/>
<path d="M0.666992 7.01707L6.99983 2.32688C7.58831 1.89104 8.41235 1.89104 9.00082 2.32688L15.3337 7.01707M3.11144 5.20667V12.4482C3.11144 13.3053 3.84105 14 4.74107 14H5.55588H10.4448H11.2596C12.1596 14 12.8892 13.3053 12.8892 12.4482V2.36178M6.3707 14V9.34471C6.3707 8.9162 6.7355 8.56883 7.18551 8.56883H8.81514C9.26515 8.56883 9.62996 8.9162 9.62996 9.34471V14" stroke="black" stroke-opacity="0.2" stroke-width="1.2" stroke-linecap="round"/>
<path d="M0.666992 7.01707L6.99983 2.32688C7.58831 1.89104 8.41235 1.89104 9.00082 2.32688L15.3337 7.01707M3.11144 5.20667V12.4482C3.11144 13.3053 3.84105 14 4.74107 14H5.55588H10.4448H11.2596C12.1596 14 12.8892 13.3053 12.8892 12.4482V2.36178M6.3707 14V9.34471C6.3707 8.9162 6.7355 8.56883 7.18551 8.56883H8.81514C9.26515 8.56883 9.62996 8.9162 9.62996 9.34471V14" stroke="black" stroke-opacity="0.2" stroke-width="1.2" stroke-linecap="round"/>
<path d="M0.666992 7.01707L6.99983 2.32688C7.58831 1.89104 8.41235 1.89104 9.00082 2.32688L15.3337 7.01707M3.11144 5.20667V12.4482C3.11144 13.3053 3.84105 14 4.74107 14H5.55588H10.4448H11.2596C12.1596 14 12.8892 13.3053 12.8892 12.4482V2.36178M6.3707 14V9.34471C6.3707 8.9162 6.7355 8.56883 7.18551 8.56883H8.81514C9.26515 8.56883 9.62996 8.9162 9.62996 9.34471V14" stroke="black" stroke-opacity="0.2" stroke-width="1.2" stroke-linecap="round"/>
</svg>
