


<svg width="20" height="20" viewBox="0 0 20 20" fill="none" xmlns="http://www.w3.org/2000/svg">
<path d="M10.0198 0H9.97429C4.46564 0 0 4.46696 0 9.97723V10.0228C0 15.533 4.46564 20 9.97429 20H10.0198C15.5285 20 19.9941 15.533 19.9941 10.0228V9.97723C19.9941 4.46696 15.5285 0 10.0198 0Z" fill="url(#paint0_linear_1391_8581)"/>
<path d="M13.0901 4.06836H6.90338C5.19419 4.06836 3.80371 5.45924 3.80371 7.16894V12.8306C3.80371 14.5403 5.19419 15.9312 6.90338 15.9312H13.0901C14.7993 15.9312 16.1898 14.5403 16.1898 12.8306V7.16894C16.1898 5.45924 14.7993 4.06836 13.0901 4.06836ZM4.89718 7.16894C4.89718 6.06254 5.79731 5.16215 6.90338 5.16215H13.0901C14.1962 5.16215 15.0963 6.06254 15.0963 7.16894V12.8306C15.0963 13.937 14.1962 14.8374 13.0901 14.8374H6.90338C5.79731 14.8374 4.89718 13.937 4.89718 12.8306V7.16894Z" fill="white"/>
<path d="M9.99748 12.8834C11.5869 12.8834 12.8807 11.5899 12.8807 9.9993C12.8807 8.40872 11.5876 7.11523 9.99748 7.11523C8.40737 7.11523 7.11426 8.40872 7.11426 9.9993C7.11426 11.5899 8.40737 12.8834 9.99748 12.8834ZM9.99748 8.20972C10.9845 8.20972 11.7872 9.01272 11.7872 10C11.7872 10.9873 10.9845 11.7903 9.99748 11.7903C9.01049 11.7903 8.20773 10.9873 8.20773 10C8.20773 9.01272 9.01049 8.20972 9.99748 8.20972Z" fill="white"/>
<path d="M13.147 7.58344C13.575 7.58344 13.9238 7.2352 13.9238 6.80637C13.9238 6.37754 13.5757 6.0293 13.147 6.0293C12.7183 6.0293 12.3701 6.37754 12.3701 6.80637C12.3701 7.2352 12.7183 7.58344 13.147 7.58344Z" fill="white"/>
<defs>
    <linearGradient id="paint0_linear_1391_8581" x1="2.92105" y1="17.0781" x2="17.0772" y2="2.92678" gradientUnits="userSpaceOnUse">
        <stop stop-color="#FAAD4F"/>
        <stop offset="0.35" stop-color="#DD2A7B"/>
        <stop offset="0.62" stop-color="#9537B0"/>
        <stop offset="1" stop-color="#515BD4"/>
    </linearGradient>
</defs>
</svg>
