<svg width="15" height="15" viewBox="0 0 15 15" fill="none" xmlns="http://www.w3.org/2000/svg">
<path d="M7.42612 14.1218C11.124 14.1218 14.1218 11.124 14.1218 7.42612C14.1218 3.72821 11.124 0.730469 7.42612 0.730469M7.42612 14.1218C3.72821 14.1218 0.730469 11.124 0.730469 7.42612C0.730469 3.72821 3.72821 0.730469 7.42612 0.730469M7.42612 14.1218C8.77081 14.1218 9.8609 11.124 9.8609 7.42612C9.8609 3.72821 8.77081 0.730469 7.42612 0.730469M7.42612 14.1218C6.08143 14.1218 4.99134 11.124 4.99134 7.42612C4.99134 3.72821 6.08143 0.730469 7.42612 0.730469M1.33916 4.99134H13.5131M1.33916 9.25221H13.5131" stroke="#1146D1" stroke-width="1.46087" stroke-linecap="round"/>
</svg>
