<svg width="6" height="6" viewBox="0 0 6 6" fill="none" xmlns="http://www.w3.org/2000/svg">
<path d="M3 1.5V2.99988M3 2.99988L4 3.75M3 2.99988C3 2.99995 2.99994 2.99983 3 2.99988ZM0.321334 3.625C0.27467 3.42421 0.25 3.21499 0.25 3C0.25 2.78501 0.27467 2.57579 0.321334 2.375M2.5 0.295344C2.66214 0.265562 2.82925 0.25 3 0.25C4.51878 0.25 5.75 1.48122 5.75 3C5.75 4.51878 4.51878 5.75 3 5.75C2.82925 5.75 2.66214 5.73444 2.5 5.70466M1.625 0.617901C1.24991 0.834881 0.93082 1.13791 0.694733 1.5M0.694733 4.5C0.93082 4.86209 1.24991 5.16512 1.625 5.3821" stroke="#676768" stroke-width="0.48" stroke-linecap="round"/>
</svg>
