<svg width="12" height="15" viewBox="0 0 12 15" fill="none" xmlns="http://www.w3.org/2000/svg">
<path d="M3.26628 8.95685C1.67214 9.41793 0.599609 10.2797 0.599609 11.2668C0.599609 12.7395 2.98742 13.9334 5.93294 13.9334C8.87846 13.9334 11.2663 12.7395 11.2663 11.2668C11.2663 10.2797 10.1937 9.41793 8.59961 8.95685M9.93294 4.86676C9.93294 7.22318 6.93294 11.2668 5.93294 11.2668C4.93294 11.2668 1.93294 7.22318 1.93294 4.86676C1.93294 2.51035 3.7238 0.600098 5.93294 0.600098C8.14208 0.600098 9.93294 2.51035 9.93294 4.86676ZM7.26628 4.6001C7.26628 5.33648 6.66932 5.93343 5.93294 5.93343C5.19656 5.93343 4.59961 5.33648 4.59961 4.6001C4.59961 3.86372 5.19656 3.26676 5.93294 3.26676C6.66932 3.26676 7.26628 3.86372 7.26628 4.6001Z" stroke="#676768" stroke-width="1.2"/>
</svg>
