<svg width="26" height="28" viewBox="0 0 26 28" fill="none" xmlns="http://www.w3.org/2000/svg">
<rect width="25.1525" height="28" rx="12.5763" fill="#1146D1" fill-opacity="0.05"/>
<path d="M9.72837 11.8649V10.4412C9.72837 8.8686 11.0032 7.59375 12.5758 7.59375C14.1484 7.59375 15.4233 8.8686 15.4233 10.4412V11.8649M9.87074 20.4073H15.2809C16.0783 20.4073 16.477 20.4073 16.7815 20.2521C17.0494 20.1156 17.2672 19.8978 17.4037 19.6299C17.5589 19.3254 17.5589 18.9267 17.5589 18.1293V14.1429C17.5589 13.3455 17.5589 12.9469 17.4037 12.6423C17.2672 12.3744 17.0494 12.1566 16.7815 12.0201C16.477 11.8649 16.0783 11.8649 15.2809 11.8649H9.87074C9.07338 11.8649 8.6747 11.8649 8.37014 12.0201C8.10225 12.1566 7.88445 12.3744 7.74795 12.6423C7.59277 12.9469 7.59277 13.3455 7.59277 14.1429V18.1293C7.59277 18.9267 7.59277 19.3254 7.74795 19.6299C7.88445 19.8978 8.10225 20.1156 8.37014 20.2521C8.6747 20.4073 9.07338 20.4073 9.87074 20.4073Z" stroke="#1146D1" stroke-width="1.42373" stroke-linecap="round"/>
</svg>
