<svg width="27" height="28" viewBox="0 0 27 28" fill="none" xmlns="http://www.w3.org/2000/svg">
<rect width="26.4637" height="28" rx="13.2318" fill="#1146D1" fill-opacity="0.05"/>
<path d="M10.5549 10.8185C10.5549 11.17 10.8399 11.4549 11.1913 11.4549C11.5428 11.4549 11.8277 11.17 11.8277 10.8185H11.1913H10.5549ZM11.8277 17.1822C11.8277 16.8307 11.5428 16.5458 11.1913 16.5458C10.8399 16.5458 10.5549 16.8307 10.5549 17.1822H11.1913H11.8277ZM11.8862 20.2253L12.1751 19.6583L12.1751 19.6583L11.8862 20.2253ZM11.33 19.6691L10.763 19.958L10.763 19.958L11.33 19.6691ZM18.689 19.6691L19.256 19.958V19.958L18.689 19.6691ZM18.1328 20.2253L17.8439 19.6583L17.8438 19.6583L18.1328 20.2253ZM18.1328 7.77544L17.8438 8.34244L17.8438 8.34244L18.1328 7.77544ZM18.689 8.33164L18.122 8.62054V8.62054L18.689 8.33164ZM11.33 8.33164L10.763 8.04274V8.04274L11.33 8.33164ZM11.8862 7.77544L11.5973 7.20843V7.20843L11.8862 7.77544ZM8.00949 13.364C7.65804 13.364 7.37313 13.6489 7.37313 14.0004C7.37313 14.3518 7.65804 14.6367 8.00949 14.6367L8.00949 14.0004L8.00949 13.364ZM15.0095 14.6367C15.3609 14.6367 15.6459 14.3518 15.6459 14.0004C15.6459 13.6489 15.3609 13.364 15.0095 13.364V14.0004V14.6367ZM9.7322 12.5412C9.98071 12.2927 9.98071 11.8898 9.7322 11.6413C9.48368 11.3928 9.08076 11.3928 8.83224 11.6413L9.28222 12.0913L9.7322 12.5412ZM8.09309 13.2804L7.64311 12.8304H7.64311L8.09309 13.2804ZM8.09309 14.7203L7.64311 15.1703L7.64311 15.1703L8.09309 14.7203ZM8.83224 16.3594C9.08076 16.6079 9.48368 16.6079 9.7322 16.3594C9.98071 16.1109 9.98071 15.708 9.7322 15.4595L9.28222 15.9094L8.83224 16.3594ZM7.66786 13.8037L8.27308 14.0004L7.66786 13.8037ZM7.66786 14.197L8.27308 14.0004L7.66786 14.197ZM11.1913 10.8185H11.8277V9.67308H11.1913H10.5549V10.8185H11.1913ZM13.2277 7.63672V8.27308H16.7913V7.63672V7.00036H13.2277V7.63672ZM18.8277 9.67308H18.1913V18.3276H18.8277H19.464V9.67308H18.8277ZM16.7913 20.364V19.7276H13.2277V20.364V21.0004H16.7913V20.364ZM11.1913 18.3276H11.8277V17.1822H11.1913H10.5549V18.3276H11.1913ZM13.2277 20.364V19.7276C12.8608 19.7276 12.6239 19.7271 12.4436 19.7124C12.2707 19.6983 12.2066 19.6743 12.1751 19.6583L11.8862 20.2253L11.5973 20.7923C11.8381 20.915 12.0883 20.9603 12.3399 20.9809C12.5841 21.0008 12.8818 21.0004 13.2277 21.0004V20.364ZM11.1913 18.3276H10.5549C10.5549 18.6735 10.5545 18.9712 10.5744 19.2154C10.595 19.467 10.6403 19.7172 10.763 19.958L11.33 19.6691L11.897 19.3802C11.881 19.3487 11.857 19.2846 11.8429 19.1117C11.8282 18.9314 11.8277 18.6945 11.8277 18.3276H11.1913ZM11.8862 20.2253L12.1751 19.6583C12.0554 19.5973 11.958 19.4999 11.897 19.3802L11.33 19.6691L10.763 19.958C10.9461 20.3172 11.2381 20.6092 11.5973 20.7923L11.8862 20.2253ZM18.8277 18.3276H18.1913C18.1913 18.6945 18.1908 18.9314 18.1761 19.1117C18.162 19.2846 18.138 19.3487 18.122 19.3802L18.689 19.6691L19.256 19.958C19.3786 19.7172 19.424 19.467 19.4446 19.2154C19.4645 18.9712 19.464 18.6735 19.464 18.3276H18.8277ZM16.7913 20.364V21.0004C17.1372 21.0004 17.4349 21.0008 17.6791 20.9809C17.9306 20.9603 18.1809 20.915 18.4217 20.7923L18.1328 20.2253L17.8438 19.6583C17.8124 19.6743 17.7483 19.6983 17.5754 19.7124C17.3951 19.7271 17.1582 19.7276 16.7913 19.7276V20.364ZM18.689 19.6691L18.122 19.3802C18.0609 19.4999 17.9636 19.5973 17.8439 19.6583L18.1328 20.2253L18.4217 20.7923C18.7809 20.6092 19.0729 20.3172 19.256 19.958L18.689 19.6691ZM16.7913 7.63672V8.27308C17.1582 8.27308 17.3951 8.27358 17.5754 8.28831C17.7483 8.30243 17.8124 8.32641 17.8438 8.34244L18.1328 7.77544L18.4217 7.20843C18.1809 7.08575 17.9306 7.04036 17.6791 7.01981C17.4349 6.99986 17.1372 7.00036 16.7913 7.00036V7.63672ZM18.8277 9.67308H19.464C19.464 9.32719 19.4645 9.02949 19.4446 8.78534C19.424 8.53375 19.3786 8.28352 19.256 8.04274L18.689 8.33164L18.122 8.62054C18.138 8.65201 18.162 8.7161 18.1761 8.88898C18.1908 9.06928 18.1913 9.30618 18.1913 9.67308H18.8277ZM18.1328 7.77544L17.8438 8.34244C17.9636 8.40345 18.0609 8.5008 18.122 8.62054L18.689 8.33164L19.256 8.04274C19.0729 7.68352 18.7809 7.39146 18.4217 7.20843L18.1328 7.77544ZM11.1913 9.67308H11.8277C11.8277 9.30618 11.8282 9.06928 11.8429 8.88898C11.857 8.7161 11.881 8.65201 11.897 8.62054L11.33 8.33164L10.763 8.04274C10.6403 8.28352 10.595 8.53375 10.5744 8.78534C10.5545 9.02949 10.5549 9.32719 10.5549 9.67308H11.1913ZM13.2277 7.63672V7.00036C12.8818 7.00036 12.5841 6.99986 12.3399 7.01981C12.0883 7.04036 11.8381 7.08575 11.5973 7.20843L11.8862 7.77544L12.1751 8.34244C12.2066 8.32641 12.2707 8.30243 12.4436 8.28831C12.6239 8.27358 12.8608 8.27308 13.2277 8.27308V7.63672ZM11.33 8.33164L11.897 8.62054C11.958 8.5008 12.0554 8.40345 12.1751 8.34244L11.8862 7.77544L11.5973 7.20843C11.2381 7.39146 10.9461 7.68352 10.763 8.04274L11.33 8.33164ZM8.00949 14.0004L8.00949 14.6367L15.0095 14.6367V14.0004V13.364L8.00949 13.364L8.00949 14.0004ZM9.28222 12.0913L8.83224 11.6413L7.64311 12.8304L8.09309 13.2804L8.54307 13.7304L9.7322 12.5412L9.28222 12.0913ZM8.09309 14.7203L7.64311 15.1703L8.83224 16.3594L9.28222 15.9094L9.7322 15.4595L8.54307 14.2703L8.09309 14.7203ZM8.09309 13.2804L7.64311 12.8304C7.52453 12.949 7.40819 13.0646 7.31855 13.1702C7.2241 13.2815 7.12255 13.4227 7.06265 13.6071L7.66786 13.8037L8.27308 14.0004C8.26039 14.0394 8.24545 14.045 8.2888 13.9939C8.33698 13.9372 8.40964 13.8638 8.54307 13.7304L8.09309 13.2804ZM8.09309 14.7203L8.54307 14.2703C8.40964 14.1369 8.33698 14.0636 8.28881 14.0068C8.24545 13.9557 8.26039 13.9613 8.27308 14.0004L7.66786 14.197L7.06265 14.3936C7.12255 14.578 7.2241 14.7192 7.31855 14.8305C7.40819 14.9361 7.52453 15.0517 7.64311 15.1703L8.09309 14.7203ZM7.66786 13.8037L7.06265 13.6071C6.97959 13.8627 6.97959 14.138 7.06265 14.3936L7.66786 14.197L8.27308 14.0004V14.0004L7.66786 13.8037Z" fill="#1146D1"/>
</svg>
