<svg width="13" height="14" viewBox="0 0 13 14" fill="none" xmlns="http://www.w3.org/2000/svg">
<path d="M3.55495 3.81854C3.55495 4.16999 3.83986 4.4549 4.19131 4.4549C4.54276 4.4549 4.82767 4.16999 4.82767 3.81854H4.19131H3.55495ZM4.82767 10.1822C4.82767 9.83072 4.54276 9.54581 4.19131 9.54581C3.83986 9.54581 3.55495 9.83072 3.55495 10.1822H4.19131H4.82767ZM4.88623 13.2253L5.17513 12.6583L5.17513 12.6583L4.88623 13.2253ZM4.33003 12.6691L3.76302 12.958L3.76302 12.958L4.33003 12.6691ZM11.689 12.6691L12.256 12.958V12.958L11.689 12.6691ZM11.1328 13.2253L10.8439 12.6583L10.8438 12.6583L11.1328 13.2253ZM11.1328 0.775438L10.8438 1.34244L10.8438 1.34244L11.1328 0.775438ZM11.689 1.33164L11.122 1.62054V1.62054L11.689 1.33164ZM4.33003 1.33164L3.76302 1.04274V1.04274L4.33003 1.33164ZM4.88623 0.775438L4.59733 0.208434V0.208434L4.88623 0.775438ZM1.00949 6.36399C0.658037 6.36399 0.373127 6.6489 0.373127 7.00035C0.373127 7.35181 0.658037 7.63672 1.00949 7.63672L1.00949 7.00035L1.00949 6.36399ZM8.00949 7.63672C8.36095 7.63672 8.64585 7.35181 8.64585 7.00036C8.64585 6.6489 8.36095 6.36399 8.00949 6.36399V7.00036V7.63672ZM2.7322 5.54124C2.98071 5.29273 2.98071 4.8898 2.7322 4.64129C2.48368 4.39277 2.08076 4.39277 1.83224 4.64129L2.28222 5.09126L2.7322 5.54124ZM1.09309 6.28039L0.643114 5.83041H0.643114L1.09309 6.28039ZM1.09309 7.72032L0.643111 8.17029L0.643113 8.1703L1.09309 7.72032ZM1.83224 9.35942C2.08076 9.60794 2.48368 9.60794 2.7322 9.35942C2.98071 9.11091 2.98071 8.70798 2.7322 8.45947L2.28222 8.90945L1.83224 9.35942ZM0.667865 6.80371L1.27308 7.00035L0.667865 6.80371ZM0.667864 7.197L1.27308 7.00035L0.667864 7.197ZM4.19131 3.81854H4.82767V2.67308H4.19131H3.55495V3.81854H4.19131ZM6.22767 0.636719V1.27308H9.79131V0.636719V0.000355065H6.22767V0.636719ZM11.8277 2.67308H11.1913V11.3276H11.8277H12.464V2.67308H11.8277ZM9.79131 13.364V12.7276H6.22767V13.364V14.0004H9.79131V13.364ZM4.19131 11.3276H4.82767V10.1822H4.19131H3.55495V11.3276H4.19131ZM6.22767 13.364V12.7276C5.86078 12.7276 5.62387 12.7271 5.44357 12.7124C5.27069 12.6983 5.2066 12.6743 5.17513 12.6583L4.88623 13.2253L4.59733 13.7923C4.83811 13.915 5.08834 13.9603 5.33993 13.9809C5.58408 14.0008 5.88178 14.0004 6.22767 14.0004V13.364ZM4.19131 11.3276H3.55495C3.55495 11.6735 3.55445 11.9712 3.5744 12.2154C3.59495 12.467 3.64034 12.7172 3.76302 12.958L4.33003 12.6691L4.89703 12.3802C4.881 12.3487 4.85702 12.2846 4.8429 12.1117C4.82817 11.9314 4.82767 11.6945 4.82767 11.3276H4.19131ZM4.88623 13.2253L5.17513 12.6583C5.05539 12.5973 4.95804 12.4999 4.89703 12.3802L4.33003 12.6691L3.76302 12.958C3.94606 13.3172 4.23811 13.6092 4.59733 13.7923L4.88623 13.2253ZM11.8277 11.3276H11.1913C11.1913 11.6945 11.1908 11.9314 11.1761 12.1117C11.162 12.2846 11.138 12.3487 11.122 12.3802L11.689 12.6691L12.256 12.958C12.3786 12.7172 12.424 12.467 12.4446 12.2154C12.4645 11.9712 12.464 11.6735 12.464 11.3276H11.8277ZM9.79131 13.364V14.0004C10.1372 14.0004 10.4349 14.0008 10.6791 13.9809C10.9306 13.9603 11.1809 13.915 11.4217 13.7923L11.1328 13.2253L10.8438 12.6583C10.8124 12.6743 10.7483 12.6983 10.5754 12.7124C10.3951 12.7271 10.1582 12.7276 9.79131 12.7276V13.364ZM11.689 12.6691L11.122 12.3802C11.0609 12.4999 10.9636 12.5973 10.8439 12.6583L11.1328 13.2253L11.4217 13.7923C11.7809 13.6092 12.0729 13.3172 12.256 12.958L11.689 12.6691ZM9.79131 0.636719V1.27308C10.1582 1.27308 10.3951 1.27358 10.5754 1.28831C10.7483 1.30243 10.8124 1.32641 10.8438 1.34244L11.1328 0.775438L11.4217 0.208434C11.1809 0.0857464 10.9306 0.0403636 10.6791 0.0198084C10.4349 -0.000139832 10.1372 0.000355065 9.79131 0.000355065V0.636719ZM11.8277 2.67308H12.464C12.464 2.32719 12.4645 2.02949 12.4446 1.78534C12.424 1.53375 12.3786 1.28352 12.256 1.04274L11.689 1.33164L11.122 1.62054C11.138 1.65201 11.162 1.7161 11.1761 1.88898C11.1908 2.06928 11.1913 2.30618 11.1913 2.67308H11.8277ZM11.1328 0.775438L10.8438 1.34244C10.9636 1.40345 11.0609 1.5008 11.122 1.62054L11.689 1.33164L12.256 1.04274C12.0729 0.683518 11.7809 0.391464 11.4217 0.208433L11.1328 0.775438ZM4.19131 2.67308H4.82767C4.82767 2.30618 4.82817 2.06928 4.8429 1.88898C4.85702 1.7161 4.881 1.65201 4.89703 1.62054L4.33003 1.33164L3.76302 1.04274C3.64034 1.28352 3.59495 1.53375 3.5744 1.78534C3.55445 2.02949 3.55495 2.32719 3.55495 2.67308H4.19131ZM6.22767 0.636719V0.000355065C5.88178 0.000355065 5.58408 -0.000139832 5.33993 0.0198084C5.08834 0.0403636 4.83811 0.0857464 4.59733 0.208434L4.88623 0.775438L5.17513 1.34244C5.2066 1.32641 5.27069 1.30243 5.44357 1.28831C5.62387 1.27358 5.86078 1.27308 6.22767 1.27308V0.636719ZM4.33003 1.33164L4.89703 1.62054C4.95804 1.5008 5.05539 1.40345 5.17513 1.34244L4.88623 0.775438L4.59733 0.208434C4.23811 0.391465 3.94606 0.683518 3.76302 1.04274L4.33003 1.33164ZM1.00949 7.00035L1.00949 7.63672L8.00949 7.63672V7.00036V6.36399L1.00949 6.36399L1.00949 7.00035ZM2.28222 5.09126L1.83224 4.64129L0.643114 5.83041L1.09309 6.28039L1.54307 6.73037L2.7322 5.54124L2.28222 5.09126ZM1.09309 7.72032L0.643113 8.1703L1.83224 9.35942L2.28222 8.90945L2.7322 8.45947L1.54307 7.27034L1.09309 7.72032ZM1.09309 6.28039L0.643114 5.83041C0.524534 5.94899 0.408187 6.06464 0.318553 6.17023C0.224095 6.28149 0.122551 6.42269 0.0626468 6.60706L0.667865 6.80371L1.27308 7.00035C1.26039 7.03942 1.24545 7.04497 1.2888 6.99391C1.33698 6.93716 1.40964 6.8638 1.54307 6.73037L1.09309 6.28039ZM1.09309 7.72032L1.54307 7.27034C1.40964 7.13691 1.33698 7.06355 1.28881 7.0068C1.24545 6.95574 1.26039 6.96129 1.27308 7.00035L0.667864 7.197L0.0626466 7.39365C0.122551 7.57801 0.224098 7.71922 0.318553 7.83048C0.408187 7.93607 0.524533 8.05171 0.643111 8.17029L1.09309 7.72032ZM0.667865 6.80371L0.0626469 6.60706C-0.0204088 6.86268 -0.0204089 7.13803 0.0626466 7.39365L0.667864 7.197L1.27308 7.00035V7.00035L0.667865 6.80371Z" fill="#1146D1"/>
</svg>
