<svg width="12" height="12" viewBox="0 0 12 12" fill="none" xmlns="http://www.w3.org/2000/svg">
<path d="M1.5 2.5L5.38606 5.52249C5.74717 5.80335 6.25283 5.80335 6.61394 5.52249L10.5 2.5M2.6 10H9.4C9.96005 10 10.2401 10 10.454 9.89101C10.6422 9.79513 10.7951 9.64215 10.891 9.45399C11 9.24008 11 8.96005 11 8.4V3.6C11 3.03995 11 2.75992 10.891 2.54601C10.7951 2.35785 10.6422 2.20487 10.454 2.10899C10.2401 2 9.96005 2 9.4 2H2.6C2.03995 2 1.75992 2 1.54601 2.10899C1.35785 2.20487 1.20487 2.35785 1.10899 2.54601C1 2.75992 1 3.03995 1 3.6V8.4C1 8.96005 1 9.24008 1.10899 9.45399C1.20487 9.64215 1.35785 9.79513 1.54601 9.89101C1.75992 10 2.03995 10 2.6 10Z" stroke="white"/>
</svg>
