<svg width="19" height="20" viewBox="0 0 19 20" fill="none" xmlns="http://www.w3.org/2000/svg">
<path d="M6.48776 17.4671C7.18867 18.2538 8.21416 18.75 9.35664 18.75C10.4991 18.75 11.5246 18.2538 12.2255 17.4671M13.1818 0.75C15.4645 1.8738 17.172 3.97202 17.75 6.4953M5.31819 0.75C3.03554 1.8738 1.32795 3.97202 0.75 6.4953M15.0919 11.3424V8.32904C15.0919 5.18161 12.5337 2.64483 9.35664 2.64483C6.17956 2.64483 3.58672 5.07346 3.58672 8.32904V11.322C3.58672 11.7798 3.5147 12.2345 3.37345 12.6687L2.66726 14.8397C2.64792 14.8991 2.6911 14.9605 2.75225 14.9605H15.9199C15.9845 14.9605 16.0304 14.8981 16.0106 14.8371L15.2996 12.6515C15.162 12.2285 15.0919 11.7868 15.0919 11.3424Z" stroke="white" stroke-width="1.5" stroke-linecap="round"/>
</svg>
