<svg width="12" height="15" viewBox="0 0 12 15" fill="none" xmlns="http://www.w3.org/2000/svg">
<path d="M2.84751 4.98212V3.55839C2.84751 1.98579 4.12236 0.710938 5.69496 0.710938C7.26757 0.710938 8.54242 1.98579 8.54242 3.55839V4.98212M2.98988 13.5245H8.40005C9.19741 13.5245 9.59609 13.5245 9.90065 13.3693C10.1685 13.2328 10.3863 13.015 10.5228 12.7471C10.678 12.4426 10.678 12.0439 10.678 11.2465V7.26009C10.678 6.46273 10.678 6.06405 10.5228 5.75949C10.3863 5.4916 10.1685 5.2738 9.90065 5.1373C9.59609 4.98212 9.19741 4.98212 8.40005 4.98212H2.98988C2.19252 4.98212 1.79384 4.98212 1.48928 5.1373C1.22139 5.2738 1.00359 5.4916 0.867091 5.75949C0.711914 6.06405 0.711914 6.46273 0.711914 7.26009V11.2465C0.711914 12.0439 0.711914 12.4426 0.867091 12.7471C1.00359 13.015 1.22139 13.2328 1.48928 13.3693C1.79384 13.5245 2.19252 13.5245 2.98988 13.5245Z" stroke="#1146D1" stroke-width="1.42373" stroke-linecap="round"/>
</svg>
