<svg width="16" height="16" viewBox="0 0 16 16" fill="none" xmlns="http://www.w3.org/2000/svg">
<path d="M5.33301 10.6666L10.6663 5.33325M5.66621 5.66655H6.06621M5.66621 6.06655H6.06621M9.93288 9.93322H10.3329M9.93288 10.3332H10.3329M13.6114 6.14414C13.4157 5.88291 13.3069 5.59992 13.2634 5.27339L13.0894 4.07611C13.0024 3.44482 12.5021 2.94414 11.8496 2.83529L10.6533 2.66114C10.3488 2.61761 10.0443 2.48699 9.78325 2.31284L8.84796 1.61625C8.58695 1.42033 8.28244 1.33325 7.97792 1.33325C7.67341 1.33325 7.3689 1.42033 7.10789 1.61625L6.15084 2.33461C5.88983 2.53053 5.60707 2.63937 5.28081 2.68291L4.10625 2.85706C3.47548 2.94414 2.9752 3.44482 2.86645 4.09788L2.69244 5.29516C2.64894 5.59992 2.51843 5.90468 2.34443 6.1659L1.62665 7.12373C1.23513 7.64618 1.23513 8.36454 1.62665 8.86522L2.34443 9.82305C2.54019 10.0843 2.64894 10.3673 2.69244 10.6938L2.86645 11.8911C2.95345 12.5224 3.45373 13.023 4.10625 13.1319L5.30256 13.306C5.60707 13.3496 5.91158 13.4802 6.17259 13.6543L7.12964 14.3727C7.65166 14.7645 8.36944 14.7645 8.86971 14.3727L9.82675 13.6543C10.0878 13.4584 10.3705 13.3496 10.6968 13.306L11.8931 13.1319C12.5239 13.0448 13.0241 12.5441 13.1329 11.8911L13.3069 10.6938C13.3504 10.389 13.4809 10.0843 13.6549 9.82305L14.3727 8.86522C14.7642 8.34277 14.7642 7.62441 14.3727 7.12373L13.6114 6.14414ZM6.39967 5.86659C6.39967 6.16114 6.16089 6.39992 5.86634 6.39992C5.57179 6.39992 5.33301 6.16114 5.33301 5.86659C5.33301 5.57203 5.57179 5.33325 5.86634 5.33325C6.16089 5.33325 6.39967 5.57203 6.39967 5.86659ZM10.6663 10.1333C10.6663 10.4278 10.4276 10.6666 10.133 10.6666C9.83846 10.6666 9.59967 10.4278 9.59967 10.1333C9.59967 9.8387 9.83846 9.59992 10.133 9.59992C10.4276 9.59992 10.6663 9.8387 10.6663 10.1333Z" stroke="#676768" stroke-width="1.2" stroke-linecap="round"/>
</svg>
