<svg width="15" height="15" viewBox="0 0 15 15" fill="none" xmlns="http://www.w3.org/2000/svg">
<path d="M9.33366 5.99984L6.76044 8.59272C6.6628 8.6911 6.50451 8.6911 6.40688 8.59272L5.33366 7.5113M12.9454 5.47739C12.7496 5.21616 12.6409 4.93317 12.5974 4.60664L12.4234 3.40936C12.3364 2.77807 11.8361 2.27739 11.1836 2.16854L9.98727 1.99439C9.68276 1.95086 9.37825 1.82025 9.11724 1.6461L8.18195 0.949497C7.92093 0.753579 7.61642 0.666504 7.31191 0.666504C7.00739 0.666504 6.70288 0.753579 6.44187 0.949497L5.48483 1.66786C5.22382 1.86378 4.94105 1.97263 4.61479 2.01616L3.44024 2.19031C2.80946 2.27739 2.30919 2.77807 2.20043 3.43113L2.02643 4.62841C1.98292 4.93317 1.85242 5.23793 1.67841 5.49916L0.96063 6.45698C0.569113 6.97943 0.569113 7.6978 0.96063 8.19848L1.67841 9.1563C1.87417 9.41752 1.98292 9.70052 2.02643 10.027L2.20043 11.2243C2.28744 11.8556 2.78771 12.3563 3.44024 12.4651L4.63654 12.6393C4.94105 12.6828 5.24557 12.8134 5.50658 12.9876L6.46362 13.706C6.98564 14.0978 7.70342 14.0978 8.2037 13.706L9.16074 12.9876C9.42175 12.7917 9.70451 12.6828 10.0308 12.6393L11.2271 12.4651C11.8579 12.3781 12.3581 11.8774 12.4669 11.2243L12.6409 10.027C12.6844 9.72229 12.8149 9.41752 12.9889 9.1563L13.7067 8.19848C14.0982 7.67603 14.0982 6.95766 13.7067 6.45698L12.9454 5.47739Z" stroke="#1146D1" stroke-width="1.33333" stroke-linecap="round"/>
</svg>
