<svg width="13" height="13" viewBox="0 0 13 13" fill="none" xmlns="http://www.w3.org/2000/svg">
<path d="M3.98717 4.50327C4.41113 5.3863 4.98907 6.2139 5.721 6.94583C6.45293 7.67776 7.28053 8.2557 8.16355 8.67966C8.23951 8.71613 8.27749 8.73437 8.32554 8.74837C8.49632 8.79815 8.70602 8.7624 8.85065 8.65884C8.89134 8.6297 8.92616 8.59488 8.99579 8.52525C9.20875 8.31229 9.31523 8.20581 9.4223 8.13619C9.8261 7.87366 10.3467 7.87366 10.7505 8.13619C10.8575 8.20581 10.964 8.31229 11.177 8.52525L11.2957 8.64395C11.6194 8.96767 11.7812 9.12953 11.8692 9.30337C12.044 9.64909 12.044 10.0574 11.8692 10.4031C11.7812 10.5769 11.6194 10.7388 11.2957 11.0625L11.1996 11.1585C10.877 11.4812 10.7157 11.6425 10.4964 11.7657C10.2531 11.9024 9.87509 12.0007 9.59597 11.9998C9.34443 11.9991 9.17251 11.9503 8.82869 11.8527C6.98092 11.3282 5.23734 10.3387 3.78273 8.8841C2.32811 7.42949 1.33858 5.68591 0.814129 3.83814C0.71654 3.49432 0.667746 3.3224 0.666997 3.07086C0.666167 2.79174 0.764459 2.41377 0.901162 2.17042C1.02436 1.95111 1.18567 1.7898 1.50828 1.46719L1.6043 1.37116C1.92803 1.04744 2.08989 0.88558 2.26372 0.797653C2.60945 0.622787 3.01773 0.622787 3.36346 0.797653C3.5373 0.885579 3.69916 1.04744 4.02288 1.37116L4.14158 1.48987C4.35454 1.70283 4.46102 1.80931 4.53064 1.91638C4.79317 2.32017 4.79317 2.84073 4.53064 3.24453C4.46102 3.3516 4.35454 3.45808 4.14158 3.67104C4.07195 3.74067 4.03714 3.77549 4.00799 3.81618C3.90443 3.96081 3.86867 4.17051 3.91846 4.34129C3.93246 4.38934 3.9507 4.42732 3.98717 4.50327Z" stroke="white" stroke-width="1.33333" stroke-linecap="round" stroke-linejoin="round"/>
</svg>
