<svg width="15" height="15" viewBox="0 0 15 15" fill="none" xmlns="http://www.w3.org/2000/svg">
<path d="M5.54675 6.02536C5.93953 6.84345 6.47498 7.6102 7.15309 8.28831C7.8312 8.96642 8.59795 9.50187 9.41605 9.89466C9.48642 9.92845 9.5216 9.94534 9.56612 9.95832C9.72434 10.0044 9.91862 9.97131 10.0526 9.87537C10.0903 9.84837 10.1226 9.81611 10.1871 9.7516C10.3844 9.5543 10.483 9.45565 10.5822 9.39115C10.9563 9.14792 11.4386 9.14792 11.8127 9.39115C11.9119 9.45565 12.0106 9.5543 12.2079 9.7516L12.3179 9.86157C12.6178 10.1615 12.7677 10.3115 12.8492 10.4725C13.0112 10.7928 13.0112 11.1711 12.8492 11.4914C12.7677 11.6524 12.6178 11.8024 12.3179 12.1023L12.2289 12.1913C11.93 12.4902 11.7806 12.6396 11.5774 12.7538C11.3519 12.8804 11.0017 12.9715 10.7431 12.9707C10.5101 12.97 10.3508 12.9248 10.0323 12.8344C8.32037 12.3485 6.705 11.4317 5.35734 10.0841C4.00968 8.73641 3.09291 7.12103 2.60702 5.40913C2.51661 5.09059 2.4714 4.93132 2.47071 4.69827C2.46994 4.43967 2.561 4.0895 2.68765 3.86404C2.80179 3.66085 2.95124 3.5114 3.25013 3.21251L3.33909 3.12355C3.63901 2.82363 3.78897 2.67367 3.95003 2.59221C4.27033 2.4302 4.6486 2.4302 4.9689 2.59221C5.12995 2.67367 5.27991 2.82363 5.57983 3.12355L5.68981 3.23352C5.88711 3.43083 5.98576 3.52948 6.05026 3.62868C6.29349 4.00278 6.29349 4.48506 6.05026 4.85916C5.98576 4.95836 5.88711 5.05701 5.68981 5.25431C5.6253 5.31883 5.59304 5.35108 5.56604 5.38879C5.4701 5.52278 5.43697 5.71707 5.48309 5.87528C5.49607 5.91981 5.51296 5.95499 5.54675 6.02536Z" stroke="#1146D1" stroke-width="1.23529" stroke-linecap="round" stroke-linejoin="round"/>
</svg>
