<svg width="16" height="16" viewBox="0 0 16 16" fill="none" xmlns="http://www.w3.org/2000/svg">
<path d="M5.98717 6.50279C6.41113 7.38581 6.98907 8.21341 7.721 8.94534C8.45293 9.67727 9.28053 10.2552 10.1636 10.6792C10.2395 10.7156 10.2775 10.7339 10.3255 10.7479C10.4963 10.7977 10.706 10.7619 10.8506 10.6583C10.8913 10.6292 10.9262 10.5944 10.9958 10.5248C11.2088 10.3118 11.3152 10.2053 11.4223 10.1357C11.8261 9.87317 12.3467 9.87317 12.7505 10.1357C12.8575 10.2053 12.964 10.3118 13.177 10.5248L13.2957 10.6435C13.6194 10.9672 13.7812 11.129 13.8692 11.3029C14.044 11.6486 14.044 12.0569 13.8692 12.4026C13.7812 12.5765 13.6194 12.7383 13.2957 13.062L13.1996 13.1581C12.877 13.4807 12.7157 13.642 12.4964 13.7652C12.2531 13.9019 11.8751 14.0002 11.596 13.9993C11.3444 13.9986 11.1725 13.9498 10.8287 13.8522C8.98092 13.3278 7.23734 12.3382 5.78273 10.8836C4.32811 9.429 3.33858 7.68542 2.81413 5.83766C2.71654 5.49383 2.66775 5.32191 2.667 5.07037C2.66617 4.79125 2.76446 4.41328 2.90116 4.16993C3.02436 3.95062 3.18567 3.78931 3.50828 3.4667L3.6043 3.37068C3.92803 3.04695 4.08989 2.88509 4.26372 2.79717C4.60945 2.6223 5.01773 2.6223 5.36346 2.79717C5.5373 2.88509 5.69916 3.04695 6.02288 3.37068L6.14158 3.48938C6.35454 3.70234 6.46102 3.80882 6.53064 3.91589C6.79317 4.31968 6.79317 4.84024 6.53064 5.24404C6.46102 5.35111 6.35454 5.45759 6.14158 5.67055C6.07195 5.74018 6.03714 5.775 6.00799 5.8157C5.90443 5.96032 5.86867 6.17003 5.91846 6.3408C5.93246 6.38886 5.9507 6.42683 5.98717 6.50279Z" stroke="#49494B" stroke-width="1.33333" stroke-linecap="round" stroke-linejoin="round"/>
<path d="M5.98717 6.50279C6.41113 7.38581 6.98907 8.21341 7.721 8.94534C8.45293 9.67727 9.28053 10.2552 10.1636 10.6792C10.2395 10.7156 10.2775 10.7339 10.3255 10.7479C10.4963 10.7977 10.706 10.7619 10.8506 10.6583C10.8913 10.6292 10.9262 10.5944 10.9958 10.5248C11.2088 10.3118 11.3152 10.2053 11.4223 10.1357C11.8261 9.87317 12.3467 9.87317 12.7505 10.1357C12.8575 10.2053 12.964 10.3118 13.177 10.5248L13.2957 10.6435C13.6194 10.9672 13.7812 11.129 13.8692 11.3029C14.044 11.6486 14.044 12.0569 13.8692 12.4026C13.7812 12.5765 13.6194 12.7383 13.2957 13.062L13.1996 13.1581C12.877 13.4807 12.7157 13.642 12.4964 13.7652C12.2531 13.9019 11.8751 14.0002 11.596 13.9993C11.3444 13.9986 11.1725 13.9498 10.8287 13.8522C8.98092 13.3278 7.23734 12.3382 5.78273 10.8836C4.32811 9.429 3.33858 7.68542 2.81413 5.83766C2.71654 5.49383 2.66775 5.32191 2.667 5.07037C2.66617 4.79125 2.76446 4.41328 2.90116 4.16993C3.02436 3.95062 3.18567 3.78931 3.50828 3.4667L3.6043 3.37068C3.92803 3.04695 4.08989 2.88509 4.26372 2.79717C4.60945 2.6223 5.01773 2.6223 5.36346 2.79717C5.5373 2.88509 5.69916 3.04695 6.02288 3.37068L6.14158 3.48938C6.35454 3.70234 6.46102 3.80882 6.53064 3.91589C6.79317 4.31968 6.79317 4.84024 6.53064 5.24404C6.46102 5.35111 6.35454 5.45759 6.14158 5.67055C6.07195 5.74018 6.03714 5.775 6.00799 5.8157C5.90443 5.96032 5.86867 6.17003 5.91846 6.3408C5.93246 6.38886 5.9507 6.42683 5.98717 6.50279Z" stroke="black" stroke-opacity="0.2" stroke-width="1.33333" stroke-linecap="round" stroke-linejoin="round"/>
<path d="M5.98717 6.50279C6.41113 7.38581 6.98907 8.21341 7.721 8.94534C8.45293 9.67727 9.28053 10.2552 10.1636 10.6792C10.2395 10.7156 10.2775 10.7339 10.3255 10.7479C10.4963 10.7977 10.706 10.7619 10.8506 10.6583C10.8913 10.6292 10.9262 10.5944 10.9958 10.5248C11.2088 10.3118 11.3152 10.2053 11.4223 10.1357C11.8261 9.87317 12.3467 9.87317 12.7505 10.1357C12.8575 10.2053 12.964 10.3118 13.177 10.5248L13.2957 10.6435C13.6194 10.9672 13.7812 11.129 13.8692 11.3029C14.044 11.6486 14.044 12.0569 13.8692 12.4026C13.7812 12.5765 13.6194 12.7383 13.2957 13.062L13.1996 13.1581C12.877 13.4807 12.7157 13.642 12.4964 13.7652C12.2531 13.9019 11.8751 14.0002 11.596 13.9993C11.3444 13.9986 11.1725 13.9498 10.8287 13.8522C8.98092 13.3278 7.23734 12.3382 5.78273 10.8836C4.32811 9.429 3.33858 7.68542 2.81413 5.83766C2.71654 5.49383 2.66775 5.32191 2.667 5.07037C2.66617 4.79125 2.76446 4.41328 2.90116 4.16993C3.02436 3.95062 3.18567 3.78931 3.50828 3.4667L3.6043 3.37068C3.92803 3.04695 4.08989 2.88509 4.26372 2.79717C4.60945 2.6223 5.01773 2.6223 5.36346 2.79717C5.5373 2.88509 5.69916 3.04695 6.02288 3.37068L6.14158 3.48938C6.35454 3.70234 6.46102 3.80882 6.53064 3.91589C6.79317 4.31968 6.79317 4.84024 6.53064 5.24404C6.46102 5.35111 6.35454 5.45759 6.14158 5.67055C6.07195 5.74018 6.03714 5.775 6.00799 5.8157C5.90443 5.96032 5.86867 6.17003 5.91846 6.3408C5.93246 6.38886 5.9507 6.42683 5.98717 6.50279Z" stroke="black" stroke-opacity="0.2" stroke-width="1.33333" stroke-linecap="round" stroke-linejoin="round"/>
<path d="M5.98717 6.50279C6.41113 7.38581 6.98907 8.21341 7.721 8.94534C8.45293 9.67727 9.28053 10.2552 10.1636 10.6792C10.2395 10.7156 10.2775 10.7339 10.3255 10.7479C10.4963 10.7977 10.706 10.7619 10.8506 10.6583C10.8913 10.6292 10.9262 10.5944 10.9958 10.5248C11.2088 10.3118 11.3152 10.2053 11.4223 10.1357C11.8261 9.87317 12.3467 9.87317 12.7505 10.1357C12.8575 10.2053 12.964 10.3118 13.177 10.5248L13.2957 10.6435C13.6194 10.9672 13.7812 11.129 13.8692 11.3029C14.044 11.6486 14.044 12.0569 13.8692 12.4026C13.7812 12.5765 13.6194 12.7383 13.2957 13.062L13.1996 13.1581C12.877 13.4807 12.7157 13.642 12.4964 13.7652C12.2531 13.9019 11.8751 14.0002 11.596 13.9993C11.3444 13.9986 11.1725 13.9498 10.8287 13.8522C8.98092 13.3278 7.23734 12.3382 5.78273 10.8836C4.32811 9.429 3.33858 7.68542 2.81413 5.83766C2.71654 5.49383 2.66775 5.32191 2.667 5.07037C2.66617 4.79125 2.76446 4.41328 2.90116 4.16993C3.02436 3.95062 3.18567 3.78931 3.50828 3.4667L3.6043 3.37068C3.92803 3.04695 4.08989 2.88509 4.26372 2.79717C4.60945 2.6223 5.01773 2.6223 5.36346 2.79717C5.5373 2.88509 5.69916 3.04695 6.02288 3.37068L6.14158 3.48938C6.35454 3.70234 6.46102 3.80882 6.53064 3.91589C6.79317 4.31968 6.79317 4.84024 6.53064 5.24404C6.46102 5.35111 6.35454 5.45759 6.14158 5.67055C6.07195 5.74018 6.03714 5.775 6.00799 5.8157C5.90443 5.96032 5.86867 6.17003 5.91846 6.3408C5.93246 6.38886 5.9507 6.42683 5.98717 6.50279Z" stroke="black" stroke-opacity="0.2" stroke-width="1.33333" stroke-linecap="round" stroke-linejoin="round"/>
<path d="M5.98717 6.50279C6.41113 7.38581 6.98907 8.21341 7.721 8.94534C8.45293 9.67727 9.28053 10.2552 10.1636 10.6792C10.2395 10.7156 10.2775 10.7339 10.3255 10.7479C10.4963 10.7977 10.706 10.7619 10.8506 10.6583C10.8913 10.6292 10.9262 10.5944 10.9958 10.5248C11.2088 10.3118 11.3152 10.2053 11.4223 10.1357C11.8261 9.87317 12.3467 9.87317 12.7505 10.1357C12.8575 10.2053 12.964 10.3118 13.177 10.5248L13.2957 10.6435C13.6194 10.9672 13.7812 11.129 13.8692 11.3029C14.044 11.6486 14.044 12.0569 13.8692 12.4026C13.7812 12.5765 13.6194 12.7383 13.2957 13.062L13.1996 13.1581C12.877 13.4807 12.7157 13.642 12.4964 13.7652C12.2531 13.9019 11.8751 14.0002 11.596 13.9993C11.3444 13.9986 11.1725 13.9498 10.8287 13.8522C8.98092 13.3278 7.23734 12.3382 5.78273 10.8836C4.32811 9.429 3.33858 7.68542 2.81413 5.83766C2.71654 5.49383 2.66775 5.32191 2.667 5.07037C2.66617 4.79125 2.76446 4.41328 2.90116 4.16993C3.02436 3.95062 3.18567 3.78931 3.50828 3.4667L3.6043 3.37068C3.92803 3.04695 4.08989 2.88509 4.26372 2.79717C4.60945 2.6223 5.01773 2.6223 5.36346 2.79717C5.5373 2.88509 5.69916 3.04695 6.02288 3.37068L6.14158 3.48938C6.35454 3.70234 6.46102 3.80882 6.53064 3.91589C6.79317 4.31968 6.79317 4.84024 6.53064 5.24404C6.46102 5.35111 6.35454 5.45759 6.14158 5.67055C6.07195 5.74018 6.03714 5.775 6.00799 5.8157C5.90443 5.96032 5.86867 6.17003 5.91846 6.3408C5.93246 6.38886 5.9507 6.42683 5.98717 6.50279Z" stroke="black" stroke-opacity="0.2" stroke-width="1.33333" stroke-linecap="round" stroke-linejoin="round"/>
<path d="M5.98717 6.50279C6.41113 7.38581 6.98907 8.21341 7.721 8.94534C8.45293 9.67727 9.28053 10.2552 10.1636 10.6792C10.2395 10.7156 10.2775 10.7339 10.3255 10.7479C10.4963 10.7977 10.706 10.7619 10.8506 10.6583C10.8913 10.6292 10.9262 10.5944 10.9958 10.5248C11.2088 10.3118 11.3152 10.2053 11.4223 10.1357C11.8261 9.87317 12.3467 9.87317 12.7505 10.1357C12.8575 10.2053 12.964 10.3118 13.177 10.5248L13.2957 10.6435C13.6194 10.9672 13.7812 11.129 13.8692 11.3029C14.044 11.6486 14.044 12.0569 13.8692 12.4026C13.7812 12.5765 13.6194 12.7383 13.2957 13.062L13.1996 13.1581C12.877 13.4807 12.7157 13.642 12.4964 13.7652C12.2531 13.9019 11.8751 14.0002 11.596 13.9993C11.3444 13.9986 11.1725 13.9498 10.8287 13.8522C8.98092 13.3278 7.23734 12.3382 5.78273 10.8836C4.32811 9.429 3.33858 7.68542 2.81413 5.83766C2.71654 5.49383 2.66775 5.32191 2.667 5.07037C2.66617 4.79125 2.76446 4.41328 2.90116 4.16993C3.02436 3.95062 3.18567 3.78931 3.50828 3.4667L3.6043 3.37068C3.92803 3.04695 4.08989 2.88509 4.26372 2.79717C4.60945 2.6223 5.01773 2.6223 5.36346 2.79717C5.5373 2.88509 5.69916 3.04695 6.02288 3.37068L6.14158 3.48938C6.35454 3.70234 6.46102 3.80882 6.53064 3.91589C6.79317 4.31968 6.79317 4.84024 6.53064 5.24404C6.46102 5.35111 6.35454 5.45759 6.14158 5.67055C6.07195 5.74018 6.03714 5.775 6.00799 5.8157C5.90443 5.96032 5.86867 6.17003 5.91846 6.3408C5.93246 6.38886 5.9507 6.42683 5.98717 6.50279Z" stroke="black" stroke-opacity="0.2" stroke-width="1.33333" stroke-linecap="round" stroke-linejoin="round"/>
</svg>
