<svg width="40" height="40" viewBox="0 0 40 40" fill="none" xmlns="http://www.w3.org/2000/svg">
<rect width="40" height="40" rx="20" fill="#FF8A00"/>
<path d="M21.4921 28.4154L11.5854 18.5087C11.2493 18.1726 11.4411 17.5969 11.9118 17.5297L18.085 16.6478C18.5793 16.5772 19.0373 16.3481 19.3904 15.9951L21.6321 13.7534C22.0649 13.3206 22.308 12.7336 22.308 12.1216V11.0087C22.308 10.4948 22.9294 10.2374 23.2929 10.6008L29.4 16.708C29.7635 17.0714 29.5061 17.6929 28.9921 17.6929H27.8793C27.2672 17.6929 26.6802 17.936 26.2475 18.3688L24.0058 20.6105C23.6527 20.9635 23.4237 21.4216 23.3531 21.9159L22.4712 28.0891C22.4039 28.5597 21.8283 28.7516 21.4921 28.4154Z" fill="white"/>
<path d="M10.7695 29.2313L16.5388 23.4621M11.5854 18.5087L21.4921 28.4154C21.8283 28.7516 22.4039 28.5597 22.4712 28.0891L23.3531 21.9159C23.4237 21.4216 23.6527 20.9635 24.0058 20.6105L26.2475 18.3688C26.6802 17.936 27.2672 17.6929 27.8793 17.6929H28.9921C29.5061 17.6929 29.7635 17.0714 29.4 16.708L23.2929 10.6008C22.9294 10.2374 22.308 10.4948 22.308 11.0087V12.1216C22.308 12.7336 22.0649 13.3206 21.6321 13.7534L19.3904 15.9951C19.0373 16.3481 18.5793 16.5772 18.085 16.6478L11.9118 17.5297C11.4411 17.5969 11.2493 18.1726 11.5854 18.5087Z" stroke="white" stroke-width="1.38462" stroke-linecap="round"/>
</svg>
