<svg width="24" height="24" viewBox="0 0 24 24" fill="none" xmlns="http://www.w3.org/2000/svg">
<rect width="24" height="24" rx="12" fill="white"/>
<path d="M12.8623 16.8619L7.1384 11.138C6.94417 10.9438 7.05504 10.6112 7.32696 10.5724L10.8937 10.0628C11.1793 10.022 11.4439 9.88969 11.6479 9.6857L12.9431 8.39049C13.1932 8.14044 13.3337 7.8013 13.3337 7.44768V6.80471C13.3337 6.50774 13.6927 6.35901 13.9027 6.569L17.4313 10.0976C17.6413 10.3076 17.4926 10.6666 17.1956 10.6666H16.5526C16.199 10.6666 15.8598 10.8071 15.6098 11.0572L14.3146 12.3524C14.1106 12.5564 13.9783 12.821 13.9375 13.1066L13.4279 16.6733C13.3891 16.9453 13.0565 17.0561 12.8623 16.8619Z" fill="#1146D1"/>
<path d="M6.66699 17.3333L10.0003 14M7.1384 11.138L12.8623 16.8619C13.0565 17.0561 13.3891 16.9453 13.4279 16.6733L13.9375 13.1066C13.9783 12.821 14.1106 12.5564 14.3146 12.3524L15.6098 11.0572C15.8599 10.8071 16.199 10.6666 16.5526 10.6666H17.1956C17.4926 10.6666 17.6413 10.3076 17.4313 10.0976L13.9027 6.569C13.6927 6.35901 13.3337 6.50774 13.3337 6.80471V7.44768C13.3337 7.8013 13.1932 8.14044 12.9431 8.39049L11.6479 9.6857C11.4439 9.88969 11.1793 10.022 10.8937 10.0628L7.32696 10.5724C7.05504 10.6112 6.94417 10.9438 7.1384 11.138Z" stroke="#1146D1" stroke-width="0.8" stroke-linecap="round"/>
</svg>
