<svg width="21" height="20" viewBox="0 0 21 20" fill="none" xmlns="http://www.w3.org/2000/svg">
<path d="M10.4492 0C10.0039 0 9.55861 0.230469 9.32814 0.695312L6.77736 5.86719L1.07033 6.69531C0.0468936 6.84375 -0.363263 8.10547 0.378925 8.82812L4.50783 12.8516L3.53127 18.5352C3.35549 19.5547 4.42971 20.332 5.34377 19.8516L10.4492 17.1719V0Z" fill="#FFC403"/>
<path d="M10.3838 0C10.8291 0 11.2744 0.230469 11.5049 0.695312L14.0556 5.86719L19.7627 6.69531C20.7861 6.84375 21.1963 8.10547 20.4541 8.82812L16.3252 12.8516L17.3017 18.5352C17.4775 19.5547 16.4033 20.332 15.4892 19.8516L10.3838 17.1719V0Z" fill="#FFC403"/>
</svg>
