<svg width="21" height="20" viewBox="0 0 21 20" fill="none" xmlns="http://www.w3.org/2000/svg">
<g clip-path="url(#clip0_1809_8503)">
<path d="M10.3847 15.0508L15.2402 17.6055L14.3144 12.1992L18.2441 8.37109L12.8144 7.58203L10.3847 2.66016V0C10.8301 0 11.2754 0.230469 11.5058 0.695312L14.0566 5.86719L19.7637 6.69531C20.7871 6.84375 21.1972 8.10547 20.4551 8.82812L16.3262 12.8516L17.3027 18.5352C17.4785 19.5547 16.4043 20.332 15.4902 19.8516L10.3847 17.1719V15.0508Z" fill="#FFC403"/>
</g>
<path d="M10.4492 0C10.0039 0 9.55861 0.230469 9.32814 0.695312L6.77736 5.86719L1.07033 6.69531C0.0468936 6.84375 -0.363263 8.10547 0.378925 8.82812L4.50783 12.8516L3.53127 18.5352C3.35549 19.5547 4.42971 20.332 5.34377 19.8516L10.4492 17.1719V0Z" fill="#FFC403"/>
<defs>
<clipPath id="clip0_1809_8503">
<rect width="10.45" height="20" fill="white" transform="translate(10.417)"/>
</clipPath>
</defs>
</svg>
