<svg width="12" height="12" viewBox="0 0 12 12" fill="none" xmlns="http://www.w3.org/2000/svg">
<path d="M11.1464 11.8536C11.3417 12.0488 11.6583 12.0488 11.8536 11.8536C12.0488 11.6583 12.0488 11.3417 11.8536 11.1464L11.5 11.5L11.1464 11.8536ZM9.55882 5.02941H9.05882C9.05882 7.25479 7.25479 9.05882 5.02941 9.05882V9.55882V10.0588C7.80708 10.0588 10.0588 7.80708 10.0588 5.02941H9.55882ZM5.02941 9.55882V9.05882C2.80403 9.05882 1 7.25479 1 5.02941H0.5H0C0 7.80708 2.25174 10.0588 5.02941 10.0588V9.55882ZM0.5 5.02941H1C1 2.80403 2.80403 1 5.02941 1V0.5V0C2.25174 0 0 2.25174 0 5.02941H0.5ZM5.02941 0.5V1C7.25479 1 9.05882 2.80403 9.05882 5.02941H9.55882H10.0588C10.0588 2.25174 7.80708 0 5.02941 0V0.5ZM8.26471 8.26471L7.91115 8.61826L11.1464 11.8536L11.5 11.5L11.8536 11.1464L8.61826 7.91115L8.26471 8.26471Z" fill="#676768"/>
</svg>
