<svg width="28" height="28" viewBox="0 0 28 28" fill="none" xmlns="http://www.w3.org/2000/svg">
<rect width="28" height="28" rx="14" fill="#1146D1" fill-opacity="0.05"/>
<path d="M16.3337 11.25L11.667 13.25M11.667 14.75L16.3337 16.75M11.667 14C11.667 14.9665 10.8835 15.75 9.91699 15.75C8.95049 15.75 8.16699 14.9665 8.16699 14C8.16699 13.0335 8.95049 12.25 9.91699 12.25C10.8835 12.25 11.667 13.0335 11.667 14ZM19.8337 10.5C19.8337 11.4665 19.0502 12.25 18.0837 12.25C17.1172 12.25 16.3337 11.4665 16.3337 10.5C16.3337 9.5335 17.1172 8.75 18.0837 8.75C19.0502 8.75 19.8337 9.5335 19.8337 10.5ZM19.8337 17.5C19.8337 18.4665 19.0502 19.25 18.0837 19.25C17.1172 19.25 16.3337 18.4665 16.3337 17.5C16.3337 16.5335 17.1172 15.75 18.0837 15.75C19.0502 15.75 19.8337 16.5335 19.8337 17.5Z" stroke="#1146D1" stroke-width="1.4" stroke-linecap="round"/>
</svg>
