<svg width="14" height="12" viewBox="0 0 14 12" fill="none" xmlns="http://www.w3.org/2000/svg">
<path d="M8.86686 3.19922L4.2002 5.19922M4.2002 6.69922L8.86686 8.69922M4.2002 5.94922C4.2002 6.91572 3.41669 7.69922 2.4502 7.69922C1.4837 7.69922 0.700195 6.91572 0.700195 5.94922C0.700195 4.98272 1.4837 4.19922 2.4502 4.19922C3.41669 4.19922 4.2002 4.98272 4.2002 5.94922ZM12.3669 2.44922C12.3669 3.41572 11.5834 4.19922 10.6169 4.19922C9.65036 4.19922 8.86686 3.41572 8.86686 2.44922C8.86686 1.48272 9.65036 0.699219 10.6169 0.699219C11.5834 0.699219 12.3669 1.48272 12.3669 2.44922ZM12.3669 9.44922C12.3669 10.4157 11.5834 11.1992 10.6169 11.1992C9.65036 11.1992 8.86686 10.4157 8.86686 9.44922C8.86686 8.48272 9.65036 7.69922 10.6169 7.69922C11.5834 7.69922 12.3669 8.48272 12.3669 9.44922Z" stroke="#1146D1" stroke-width="1.4" stroke-linecap="round"/>
</svg>
