<svg width="14" height="15" viewBox="0 0 14 15" fill="none" xmlns="http://www.w3.org/2000/svg">
<path d="M9.07663 5.58466L6.53069 8.13061C6.39435 8.26694 6.17332 8.26694 6.03698 8.13061L4.88744 6.98106M3.89832 0.697266H10.0657C10.2907 0.697266 10.473 0.879612 10.473 1.10455C10.473 2.22923 11.3848 3.14096 12.5094 3.14096H12.8004C13.0574 3.14096 13.2658 3.34936 13.2658 3.60643V4.2059C13.2658 8.07342 11.169 11.6369 7.78822 13.5152L7.52415 13.6619C7.18701 13.8492 6.77706 13.8492 6.43992 13.6619L6.17584 13.5152C2.79503 11.6369 0.698242 8.07342 0.698242 4.2059V3.60643C0.698242 3.34936 0.906638 3.14096 1.16371 3.14096H1.45462C2.5793 3.14096 3.49104 2.22923 3.49104 1.10455C3.49104 0.879612 3.67339 0.697266 3.89832 0.697266Z" stroke="#1146D1" stroke-width="1.3964" stroke-linecap="round"/>
</svg>
