<svg width="28" height="28" viewBox="0 0 28 28" fill="none" xmlns="http://www.w3.org/2000/svg">
<rect width="27.4625" height="28" rx="13.7312" fill="#1146D1" fill-opacity="0.05"/>
<path d="M15.8257 12.3347L13.2797 14.8806C13.1434 15.0169 12.9223 15.0169 12.786 14.8806L11.6365 13.7311M10.6473 7.44727H16.8148C17.0397 7.44727 17.2221 7.62961 17.2221 7.85455C17.2221 8.97923 18.1338 9.89096 19.2585 9.89096H19.5494C19.8065 9.89096 20.0148 10.0994 20.0148 10.3564V10.9559C20.0148 14.8234 17.9181 18.3869 14.5372 20.2652L14.2732 20.4119C13.936 20.5992 13.5261 20.5992 13.1889 20.4119L12.9249 20.2652C9.54405 18.3869 7.44727 14.8234 7.44727 10.9559V10.3564C7.44727 10.0994 7.65566 9.89096 7.91273 9.89096H8.20365C9.32833 9.89096 10.2401 8.97923 10.2401 7.85455C10.2401 7.62961 10.4224 7.44727 10.6473 7.44727Z" stroke="#1146D1" stroke-width="1.3964" stroke-linecap="round"/>
</svg>
