<svg width="16" height="16" viewBox="0 0 16 16" fill="none" xmlns="http://www.w3.org/2000/svg">
<path d="M10.6665 13.9999H5.33315C4.59677 13.9999 3.99981 13.4029 3.99981 12.6665V7.71127C3.99981 7.32574 3.53369 7.13266 3.26108 7.40527C3.0122 7.65416 2.5861 7.51761 2.52824 7.17042L2.14906 4.89533C2.05901 4.35503 2.30856 3.81463 2.77825 3.53281L5.20951 2.07406C5.28032 2.03157 5.37163 2.04798 5.42322 2.11247C6.74415 3.76363 9.25547 3.76363 10.5764 2.11247C10.628 2.04798 10.7193 2.03157 10.7901 2.07406L13.2214 3.53281C13.6911 3.81463 13.9406 4.35503 13.8506 4.89533L13.4714 7.17042C13.4135 7.51761 12.9874 7.65416 12.7385 7.40527C12.4659 7.13266 11.9998 7.32574 11.9998 7.71127V12.6665C11.9998 13.4029 11.4029 13.9999 10.6665 13.9999Z" stroke="#676768" stroke-width="1.3"/>
</svg>
