<svg width="20" height="20" viewBox="0 0 20 20" fill="none" xmlns="http://www.w3.org/2000/svg">
    <path d="M9.97429 0H10.0198C15.525 0 19.9941 4.47045 19.9941 9.97723V10.0228C19.9941 15.5296 15.525 20 10.0198 20H9.97429C4.46913 20 0 15.5296 0 10.0228V9.97723C0 4.47045 4.46913 0 9.97429 0Z" fill="#FFFA00"/>
    <path d="M13.1251 8.17049C13.1237 8.30433 13.1097 8.43816 13.0971 8.57199C13.0929 8.61614 13.0915 8.66098 13.0908 8.70512C13.0894 8.7815 13.1504 8.85087 13.2267 8.84596C13.2631 8.84386 13.3003 8.83405 13.3353 8.82214C13.4523 8.7808 13.5679 8.73665 13.6841 8.69251C13.7892 8.65187 13.8964 8.61543 14.005 8.58601C14.1234 8.55377 14.2417 8.52995 14.3622 8.54957C14.6074 8.58951 14.7671 8.85367 14.6774 9.0856C14.6522 9.15077 14.6137 9.20682 14.5675 9.25868C14.5037 9.32945 14.4316 9.38971 14.3531 9.44296C14.2606 9.50532 14.1675 9.56628 14.0743 9.62794C13.9188 9.73025 13.7633 9.83184 13.6085 9.93555C13.544 9.97829 13.4817 10.0238 13.4208 10.0708C13.3871 10.0967 13.3556 10.1268 13.3269 10.1584C13.2723 10.2193 13.2421 10.2971 13.247 10.3784C13.2519 10.4646 13.2666 10.5487 13.2905 10.6313C13.364 10.8892 13.4768 11.1288 13.6134 11.358C13.9798 11.9697 14.4988 12.4475 15.1166 12.8378C15.2862 12.945 15.4676 13.0319 15.6462 13.1237C15.6714 13.137 15.696 13.1503 15.7205 13.1651C15.745 13.1798 15.7667 13.1994 15.7828 13.2232C15.808 13.259 15.8115 13.2968 15.7898 13.336C15.7716 13.3697 15.745 13.3956 15.7163 13.4194C15.684 13.446 15.649 13.4685 15.6126 13.4888C15.4038 13.6072 15.1797 13.6955 14.9478 13.7572C14.8357 13.7873 14.7237 13.8188 14.6123 13.8517C14.5436 13.8721 14.4792 13.9022 14.4155 13.9351C14.3083 13.9905 14.2473 14.0795 14.2249 14.1951C14.2123 14.2596 14.2046 14.3254 14.1927 14.3899C14.1633 14.5531 14.1044 14.6127 13.9447 14.6407C13.8887 14.6505 13.8312 14.6561 13.7745 14.6597C13.6316 14.6674 13.4887 14.6716 13.3458 14.6793C13.3416 14.6793 13.3374 14.6793 13.3339 14.6793C12.763 14.7129 12.211 14.8958 11.7214 15.1915C11.6954 15.2069 11.6695 15.223 11.6429 15.2384C11.4447 15.3582 11.2429 15.4725 11.0265 15.5565C10.7848 15.6504 10.5354 15.7065 10.277 15.7296C10.0591 15.7492 9.84195 15.7464 9.6255 15.7219C9.30117 15.6855 8.99365 15.5909 8.70295 15.4423C8.56775 15.373 8.43746 15.2959 8.30857 15.2167C8.30156 15.2125 8.29456 15.2083 8.28686 15.2034C7.7727 14.8902 7.18779 14.7003 6.58606 14.6758C6.58186 14.6758 6.57766 14.6758 6.57346 14.6758C6.44737 14.6709 6.32198 14.666 6.19589 14.6582C6.12234 14.654 6.04879 14.6442 5.97664 14.6246C5.88488 14.5994 5.81833 14.5188 5.80082 14.4256C5.79101 14.3745 5.7833 14.3233 5.7742 14.2722C5.7721 14.261 5.77209 14.249 5.76999 14.2378C5.74898 14.0879 5.67472 13.9779 5.53393 13.9141C5.44777 13.8749 5.35951 13.8433 5.26845 13.8181C5.11154 13.7747 4.95322 13.7361 4.79981 13.6808C4.66462 13.6324 4.53433 13.575 4.40894 13.5063C4.37111 13.486 4.33469 13.4629 4.29966 13.439C4.27584 13.4229 4.25343 13.4047 4.23382 13.3844C4.17077 13.3185 4.17708 13.2323 4.24853 13.1763C4.28986 13.1433 4.33819 13.1216 4.38512 13.0985C4.71225 12.938 5.02257 12.7503 5.31117 12.5274C5.74688 12.1918 6.11604 11.7945 6.39553 11.3159C6.495 11.1443 6.57766 10.9635 6.6456 10.7771C6.69044 10.6538 6.72686 10.5304 6.73597 10.4008C6.74227 10.3055 6.71005 10.2109 6.6449 10.1416C6.59797 10.0918 6.54333 10.0519 6.48799 10.0119C6.40534 9.95307 6.32198 9.89491 6.23792 9.83955C6.0572 9.72043 5.87577 9.60342 5.69504 9.485C5.61589 9.43315 5.53953 9.37709 5.47088 9.31193C5.42114 9.26428 5.37631 9.21313 5.34059 9.15357C5.26634 9.02885 5.26074 8.90062 5.31607 8.76889C5.349 8.69041 5.41065 8.62384 5.4877 8.58811C5.59768 8.53766 5.71256 8.53135 5.82814 8.55027C5.95282 8.57059 6.0726 8.60913 6.19099 8.65187C6.31217 8.69531 6.43126 8.74296 6.55174 8.78851C6.60778 8.80953 6.66452 8.83055 6.72406 8.83966C6.73807 8.84176 6.75209 8.84597 6.7661 8.84526C6.83544 8.84316 6.89288 8.82074 6.89218 8.72755C6.89218 8.6827 6.89078 8.63716 6.88868 8.59231C6.87817 8.36809 6.86486 8.14386 6.85926 7.91964C6.84665 7.38571 6.84875 6.84968 6.98815 6.33116C7.07361 6.01375 7.22141 5.71875 7.42105 5.45669C7.83504 4.91225 8.38142 4.56681 9.03498 4.38252C9.39223 4.28162 9.75719 4.24869 10.127 4.2599C10.4766 4.27041 10.8247 4.32997 11.1554 4.44488C11.5476 4.58222 11.9042 4.78122 12.2075 5.0636C12.5521 5.38452 12.8176 5.75939 12.9619 6.21345C13.0271 6.41875 13.0684 6.62896 13.0936 6.84197C13.1462 7.28271 13.1315 7.72625 13.1272 8.16909L13.1251 8.17049Z" fill="white"/>
    <path d="M9.98979 16.0349C9.8581 16.0349 9.72501 16.0272 9.59332 16.0125C9.23887 15.9726 8.89422 15.8682 8.57059 15.7021C8.42629 15.6278 8.2862 15.5451 8.15661 15.466L8.13559 15.4533C7.65085 15.1577 7.11077 14.9902 6.5749 14.9685H6.56229C6.45091 14.9636 6.31711 14.958 6.17982 14.9502C6.07685 14.9439 5.98508 14.9299 5.90032 14.9068C5.70489 14.8535 5.55358 14.6861 5.51435 14.4808C5.50665 14.4422 5.50035 14.403 5.49404 14.3645L5.48704 14.3217C5.48494 14.3091 5.48353 14.2951 5.48213 14.2818C5.47303 14.2173 5.45482 14.1998 5.41489 14.1816C5.34344 14.1494 5.26778 14.122 5.19073 14.1003C5.1543 14.0898 5.11788 14.08 5.08075 14.0702C4.95747 14.0372 4.82997 14.0022 4.70178 13.9567C4.55048 13.9027 4.40478 13.8375 4.26889 13.764C4.22405 13.7394 4.17922 13.7121 4.13509 13.682C4.09376 13.6533 4.05594 13.6224 4.02301 13.5881C3.93475 13.4963 3.89062 13.3793 3.89832 13.2581C3.90673 13.1368 3.96627 13.0268 4.06574 12.947C4.12738 12.8979 4.18903 12.8685 4.23876 12.8439L4.25557 12.8355C4.5757 12.6786 4.8699 12.4971 5.13189 12.2953C5.56269 11.9632 5.89332 11.5946 6.142 11.1679C6.22746 11.0214 6.30451 10.8554 6.36966 10.676C6.41519 10.5513 6.4369 10.463 6.4425 10.381C6.4432 10.3656 6.43901 10.3509 6.4306 10.3425C6.40188 10.3123 6.36055 10.2815 6.31642 10.2507C6.22816 10.1876 6.149 10.133 6.07474 10.0846C5.96407 10.0117 5.85269 9.93956 5.74201 9.86739L5.53257 9.73075C5.42609 9.66068 5.34134 9.59552 5.26709 9.52545C5.19213 9.45468 5.13329 9.3825 5.08705 9.30473C4.96517 9.10152 4.95046 8.8773 5.04433 8.65588C5.10597 8.50944 5.22225 8.38822 5.36305 8.32305C5.51646 8.25228 5.68877 8.23196 5.8737 8.26279C6.02921 8.28872 6.17001 8.33566 6.2884 8.37841C6.36965 8.40784 6.44951 8.43867 6.53006 8.4695C6.54968 8.4772 6.5693 8.48491 6.58891 8.49192L6.58611 8.43586C6.5777 8.2705 6.56929 8.09883 6.56509 7.92856C6.55248 7.39182 6.55249 6.82076 6.70379 6.2567C6.79766 5.90635 6.96017 5.57842 7.18643 5.28132C7.62354 4.70675 8.21825 4.31016 8.95377 4.10275C9.31943 3.99975 9.70609 3.95631 10.1341 3.96892C10.5271 3.98083 10.9025 4.0488 11.25 4.17072C11.7011 4.32838 12.0892 4.55751 12.4044 4.8511C12.8142 5.23298 13.0867 5.65059 13.238 6.12637C13.3045 6.33657 13.3514 6.5601 13.3816 6.80885C13.4299 7.21315 13.4243 7.61535 13.4194 8.00493L13.4173 8.1731C13.4159 8.28101 13.4075 8.38541 13.3984 8.48701C13.4593 8.46389 13.5203 8.44077 13.5784 8.41835C13.7052 8.37 13.8194 8.33216 13.9273 8.30273C14.0653 8.26489 14.2299 8.23056 14.4085 8.25999C14.6151 8.29362 14.7952 8.41905 14.9016 8.60403C15.006 8.78551 15.0235 8.99922 14.9507 9.18981C14.9149 9.28231 14.861 9.36849 14.7854 9.45258C14.7097 9.53666 14.6221 9.61234 14.5171 9.68381C14.4449 9.73286 14.3721 9.7805 14.2992 9.82885L14.0821 9.97179C13.9784 10.0398 13.874 10.1084 13.771 10.1771C13.7157 10.2142 13.6576 10.2556 13.5994 10.3011C13.5812 10.3151 13.5623 10.3327 13.5441 10.353C13.5399 10.3579 13.5385 10.3607 13.5385 10.3614C13.542 10.423 13.5525 10.4854 13.5714 10.5499C13.6337 10.7664 13.729 10.9815 13.8642 11.2071C14.1843 11.7411 14.6446 12.1937 15.2722 12.5896C15.3941 12.6667 15.5244 12.7325 15.6624 12.8033C15.7016 12.8229 15.7408 12.8433 15.7793 12.8636C15.8095 12.879 15.8389 12.8958 15.8676 12.9126C15.9286 12.9484 15.9804 12.996 16.0217 13.0549C16.1107 13.1817 16.1198 13.3386 16.0469 13.4746C16.0028 13.5559 15.9433 13.6105 15.9026 13.6441C15.8494 13.6883 15.7969 13.7198 15.7569 13.7422C15.5335 13.8691 15.2869 13.9686 15.0228 14.0386C14.9241 14.0646 14.8197 14.094 14.6957 14.1311C14.646 14.1458 14.5941 14.1711 14.55 14.1942C14.5311 14.204 14.5199 14.2117 14.5122 14.251C14.5059 14.2825 14.5017 14.314 14.4968 14.3462C14.4919 14.3785 14.4869 14.41 14.4813 14.4415C14.4302 14.7253 14.2761 14.8802 13.9945 14.9285C13.9308 14.9397 13.8621 14.9474 13.7907 14.9509C13.7199 14.9552 13.6492 14.958 13.5777 14.9608C13.5056 14.9636 13.4334 14.9664 13.362 14.9706H13.3542C12.8436 15.0014 12.3322 15.164 11.872 15.4421L11.7936 15.4891C11.5939 15.6096 11.3754 15.735 11.1316 15.8296C10.8724 15.9305 10.5936 15.995 10.3029 16.0216C10.1992 16.0307 10.0942 16.0356 9.98909 16.0356L9.98979 16.0349ZM6.08455 14.349C6.12238 14.3575 6.16441 14.3624 6.21345 14.3652C6.34584 14.3729 6.47543 14.3785 6.5847 14.382H6.59802C7.23336 14.4086 7.8701 14.6055 8.4396 14.9523L8.46202 14.9664C8.59932 15.0504 8.7163 15.1191 8.83678 15.1808C9.09807 15.3146 9.37406 15.3987 9.65846 15.4302C9.8567 15.4526 10.0556 15.4547 10.2511 15.4372C10.4906 15.4155 10.7099 15.3651 10.9207 15.2831C11.1225 15.2046 11.3144 15.0946 11.4923 14.9874L11.5708 14.9397C12.1123 14.6125 12.7161 14.4212 13.3178 14.3862H13.3297C13.4054 14.3813 13.4803 14.3778 13.5553 14.375C13.6232 14.3722 13.6919 14.3694 13.7598 14.3659C13.8089 14.3631 13.8551 14.3582 13.8971 14.3511C13.8999 14.3511 13.902 14.3504 13.9048 14.3497C13.9055 14.3462 13.9062 14.342 13.9076 14.3371C13.9125 14.3105 13.916 14.2839 13.9202 14.2573C13.9265 14.2173 13.9322 14.1774 13.9399 14.1381C13.9805 13.93 14.0996 13.7696 14.2831 13.6743C14.3475 13.6406 14.4344 13.5986 14.5318 13.5699C14.6614 13.5313 14.7706 13.5005 14.875 13.4732C15.0424 13.429 15.2007 13.3702 15.3472 13.2987C15.2197 13.2335 15.0894 13.1656 14.9619 13.085C14.2551 12.6386 13.7325 12.1229 13.3641 11.5084C13.2022 11.2387 13.0867 10.978 13.0103 10.7117C12.9802 10.6059 12.962 10.4994 12.9564 10.3943C12.948 10.236 13.0026 10.0825 13.1112 9.96198C13.1525 9.91574 13.1973 9.87369 13.2436 9.83866C13.3122 9.78541 13.3809 9.73636 13.4474 9.69151C13.5518 9.62144 13.6576 9.55208 13.7626 9.48341L13.9798 9.34046C14.0505 9.29422 14.1206 9.24797 14.1906 9.20032C14.2558 9.15618 14.3083 9.11134 14.3517 9.06299C14.3791 9.03216 14.3966 9.00623 14.4064 8.98031C14.4197 8.94527 14.4064 8.91234 14.3966 8.89622C14.3784 8.86469 14.3489 8.84297 14.3174 8.83806C14.2495 8.82685 14.1647 8.84577 14.0835 8.86819C13.9945 8.89272 13.8985 8.92425 13.79 8.96629C13.6765 9.00973 13.5553 9.05598 13.4334 9.09872C13.3669 9.12185 13.3059 9.13516 13.2457 9.13866C13.1308 9.14497 13.0166 9.10363 12.9326 9.02305C12.845 8.93896 12.7967 8.82125 12.7988 8.70003C12.7995 8.65869 12.8009 8.60333 12.8065 8.54587L12.8114 8.48982C12.8219 8.37771 12.8317 8.2719 12.8331 8.1682L12.8352 7.99793C12.8401 7.61044 12.845 7.24398 12.8016 6.87892C12.7763 6.66731 12.7371 6.47882 12.6818 6.30434C12.562 5.92667 12.3413 5.59173 12.0072 5.27992C11.748 5.03818 11.4377 4.8567 11.058 4.72357C10.7673 4.62197 10.4507 4.56451 10.118 4.5547C9.75023 4.54279 9.42169 4.57993 9.11418 4.66681C8.49494 4.84129 8.01721 5.1587 7.65365 5.63658C7.47363 5.87271 7.34474 6.13337 7.27049 6.40945C7.1395 6.89783 7.1395 7.42125 7.15141 7.91525C7.15491 8.07781 7.16331 8.24528 7.17172 8.40714L7.18012 8.58091C7.18222 8.62996 7.18363 8.67901 7.18433 8.72805C7.18573 8.96699 7.02112 9.13236 6.77454 9.14006C6.73111 9.14006 6.69818 9.13446 6.67997 9.13096C6.58821 9.11694 6.51046 9.08751 6.44811 9.06439C6.40608 9.04827 6.36405 9.03216 6.32202 9.01604C6.24497 8.98661 6.16792 8.95718 6.09086 8.92915C5.9984 8.89552 5.88842 8.85909 5.77984 8.84087C5.68808 8.82615 5.63835 8.84227 5.60892 8.85558C5.60192 8.85909 5.59071 8.8696 5.5844 8.88431C5.56128 8.93897 5.5683 8.96839 5.59001 9.00483C5.60892 9.03636 5.63554 9.06789 5.67057 9.10153C5.7189 9.14707 5.77704 9.19192 5.8534 9.24167L6.06144 9.3776C6.17352 9.45047 6.2856 9.52335 6.39698 9.59692C6.47753 9.65017 6.56229 9.70833 6.65686 9.7756C6.722 9.82254 6.79205 9.8737 6.8565 9.94236C6.97628 10.0699 7.03863 10.2444 7.02672 10.4223C7.01481 10.6003 6.96297 10.7601 6.91954 10.8792C6.84179 11.0915 6.75072 11.2884 6.64775 11.465C6.36405 11.9513 5.97458 12.3871 5.48914 12.7613C5.23206 12.9596 4.94696 13.1403 4.64084 13.2987C4.7228 13.3386 4.80896 13.3751 4.89863 13.4066C5.0051 13.4444 5.11578 13.4746 5.23346 13.5061C5.27129 13.5166 5.30982 13.5264 5.34764 13.5369C5.45272 13.5664 5.55638 13.6035 5.65515 13.6484C5.88421 13.7521 6.02501 13.9419 6.06074 14.1977C6.06214 14.2068 6.06284 14.2159 6.06354 14.2243V14.2229L6.07055 14.2685C6.07475 14.2958 6.07965 14.3231 6.08455 14.3497V14.349Z" fill="#1D1D1B"/>
</svg>
