<svg width="16" height="16" viewBox="0 0 16 16" fill="none" xmlns="http://www.w3.org/2000/svg">
<path d="M3.33333 7.33333C4.06971 7.33333 4.66667 7.93029 4.66667 8.66667V9.66667C4.66667 9.85076 4.81591 10 5 10H11C11.1841 10 11.3333 9.85076 11.3333 9.66667V8.66667C11.3333 7.93029 11.9303 7.33333 12.6667 7.33333M3.33333 7.33333C2.59695 7.33333 2 7.93029 2 8.66667V11.3333C2 12.0697 2.59695 12.6667 3.33333 12.6667H12.6667C13.403 12.6667 14 12.0697 14 11.3333V8.66667C14 7.93029 13.403 7.33333 12.6667 7.33333M3.33333 7.33333V6.66667C3.33333 4.08934 5.42267 2 8 2C10.5773 2 12.6667 4.08934 12.6667 6.66667V7.33333M7.33333 5.33333H8.66667M4 12.6667V14M12 12.6667V14" stroke="#676768" stroke-width="1.2" stroke-linecap="round"/>
</svg>
