<svg width="40" height="40" viewBox="0 0 40 40" fill="none" xmlns="http://www.w3.org/2000/svg">
<rect width="40" height="40" rx="20" fill="#1146D1"/>
<path d="M13.0773 16.5378V23.4609V23.9016C13.0773 24.3386 13.3242 24.7382 13.7151 24.9336L20.6382 28.3952C21.4054 28.7788 22.3081 28.2209 22.3081 27.3631V12.6355C22.3081 11.7778 21.4054 11.2199 20.6382 11.6035L13.7151 15.065C13.3242 15.2605 13.0773 15.66 13.0773 16.0971V16.5378Z" fill="white"/>
<path d="M13.0773 23.4609V16.5378C13.0773 15.9005 12.5607 15.3839 11.9235 15.3839H10.7696C9.4951 15.3839 8.46191 16.4171 8.46191 17.6916V22.307C8.46191 23.5815 9.4951 24.6147 10.7696 24.6147H11.9235C12.5607 24.6147 13.0773 24.0981 13.0773 23.4609Z" fill="white"/>
<path d="M13.0773 16.5378V23.4609M13.0773 16.5378C13.0773 15.9005 12.5607 15.3839 11.9235 15.3839H10.7696C9.4951 15.3839 8.46191 16.4171 8.46191 17.6916V22.307C8.46191 23.5815 9.4951 24.6147 10.7696 24.6147H11.9235C12.5607 24.6147 13.0773 24.0981 13.0773 23.4609M13.0773 16.5378V16.0971C13.0773 15.66 13.3242 15.2605 13.7151 15.065L20.6382 11.6035C21.4054 11.2199 22.3081 11.7778 22.3081 12.6355V27.3631C22.3081 28.2209 21.4054 28.7788 20.6382 28.3952L13.7151 24.9336C13.3242 24.7382 13.0773 24.3386 13.0773 23.9016V23.4609M26.9235 13.0762L29.2311 10.7686M26.9235 26.9224L29.2311 29.2301M26.9235 19.9993H30.385" stroke="white" stroke-width="1.73077" stroke-linecap="round"/>
</svg>
