<svg width="20" height="20" viewBox="0 0 20 20" fill="none" xmlns="http://www.w3.org/2000/svg">
<rect width="20" height="20" rx="10" fill="#8133F1"/>
<path d="M11.3529 7.72553L10.3981 6.0634C10.2208 5.75479 9.77608 5.75331 9.59674 6.06074L8.58918 7.788C8.45572 8.01678 8.23069 8.17745 7.97097 8.2294L6.59425 8.50474C6.23768 8.57605 6.09874 9.01174 6.3482 9.27631L7.34395 10.3324C7.55688 10.5582 7.64249 10.8757 7.57196 11.178L7.12125 13.1096C7.0286 13.5067 7.45735 13.821 7.80812 13.6131L9.52767 12.5941C9.81873 12.4216 10.1807 12.4216 10.4717 12.5941L12.1913 13.6131C12.5421 13.821 12.9708 13.5067 12.8782 13.1096L12.4235 11.1611C12.3552 10.8682 12.4333 10.5603 12.6332 10.3355L13.6301 9.21394C13.8677 8.94671 13.7255 8.52252 13.3749 8.4524L11.9742 8.17225C11.7124 8.11989 11.4859 7.95705 11.3529 7.72553Z" fill="white" stroke="white" stroke-width="0.555556" stroke-miterlimit="10"/>
</svg>
