<svg width="24" height="24" viewBox="0 0 24 24" fill="none" xmlns="http://www.w3.org/2000/svg">
<rect width="24" height="24" rx="12" fill="white"/>
<path d="M13.9486 8.7261L12.5736 6.33263C12.3183 5.88823 11.6779 5.8861 11.4197 6.3288L9.96877 8.81605C9.77659 9.14549 9.45254 9.37686 9.07855 9.45166L7.09607 9.84816C6.58262 9.95085 6.38254 10.5782 6.74176 10.9592L8.17564 12.48C8.48226 12.8052 8.60554 13.2624 8.50398 13.6977L7.85496 16.4792C7.72154 17.051 8.33894 17.5035 8.84405 17.2042L11.3202 15.7369C11.7393 15.4885 12.2605 15.4885 12.6797 15.7369L15.1558 17.2042C15.6609 17.5035 16.2783 17.051 16.1449 16.4792L15.4902 13.6733C15.3918 13.2515 15.5044 12.8082 15.7921 12.4845L17.2278 10.8694C17.5698 10.4846 17.3651 9.87375 16.8602 9.77278L14.8432 9.36937C14.4662 9.29397 14.1401 9.05949 13.9486 8.7261Z" fill="#1146D1" stroke="#1146D1" stroke-width="0.8" stroke-miterlimit="10"/>
</svg>
