<svg width="40" height="40" viewBox="0 0 40 40" fill="none" xmlns="http://www.w3.org/2000/svg">
<rect width="40" height="40" rx="20" fill="#8133F1"/>
<path d="M23.3736 14.333L20.9938 10.1904C20.552 9.42125 19.4436 9.41757 18.9967 10.1838L16.4855 14.4886C16.1529 15.0588 15.592 15.4593 14.9447 15.5887L11.5135 16.275C10.6248 16.4527 10.2786 17.5386 10.9003 18.198L13.382 20.8301C13.9127 21.3929 14.1261 22.1842 13.9503 22.9376L12.827 27.7518C12.5961 28.7414 13.6646 29.5247 14.5389 29.0066L18.8245 26.467C19.5499 26.0371 20.452 26.0371 21.1774 26.467L25.4631 29.0066C26.3373 29.5247 27.4059 28.7414 27.175 27.7518L26.0418 22.8954C25.8715 22.1654 26.0663 21.3982 26.5644 20.8379L29.0491 18.0425C29.6412 17.3765 29.2869 16.3193 28.413 16.1445L24.922 15.4463C24.2695 15.3158 23.7051 14.91 23.3736 14.333Z" fill="white" stroke="white" stroke-width="1.38462" stroke-miterlimit="10"/>
</svg>
