<svg width="16" height="16" viewBox="0 0 16 16" fill="none" xmlns="http://www.w3.org/2000/svg">
<path d="M1.33301 3.73268C1.33301 3.35931 1.33301 3.17263 1.40567 3.03002C1.46959 2.90458 1.57157 2.80259 1.69701 2.73868C1.83962 2.66602 2.02631 2.66602 2.39967 2.66602H2.93301C3.30638 2.66602 3.49306 2.66602 3.63567 2.73868C3.76111 2.80259 3.8631 2.90458 3.92701 3.03002C3.99967 3.17263 3.99967 3.35931 3.99967 3.73268V12.266C3.99967 12.6394 3.99967 12.8261 3.92701 12.9687C3.8631 13.0941 3.76111 13.1961 3.63567 13.26C3.49306 13.3327 3.30638 13.3327 2.93301 13.3327H2.39967C2.02631 13.3327 1.83962 13.3327 1.69701 13.26C1.57157 13.1961 1.46959 13.0941 1.40567 12.9687C1.33301 12.8261 1.33301 12.6394 1.33301 12.266V3.73268Z" stroke="#676768" stroke-width="0.8"/>
<path d="M6.66634 3.73268C6.66634 3.35931 6.66634 3.17263 6.739 3.03002C6.80292 2.90458 6.90491 2.80259 7.03035 2.73868C7.17296 2.66602 7.35964 2.66602 7.73301 2.66602H8.26634C8.63971 2.66602 8.82639 2.66602 8.969 2.73868C9.09444 2.80259 9.19643 2.90458 9.26035 3.03002C9.33301 3.17263 9.33301 3.35931 9.33301 3.73268V12.266C9.33301 12.6394 9.33301 12.8261 9.26035 12.9687C9.19643 13.0941 9.09444 13.1961 8.969 13.26C8.82639 13.3327 8.63971 13.3327 8.26634 13.3327H7.73301C7.35964 13.3327 7.17296 13.3327 7.03035 13.26C6.90491 13.1961 6.80292 13.0941 6.739 12.9687C6.66634 12.8261 6.66634 12.6394 6.66634 12.266V3.73268Z" stroke="#676768" stroke-width="0.8"/>
<path d="M11.9997 3.73268C11.9997 3.35931 11.9997 3.17263 12.0723 3.03002C12.1363 2.90458 12.2382 2.80259 12.3637 2.73868C12.5063 2.66602 12.693 2.66602 13.0663 2.66602H13.5997C13.973 2.66602 14.1597 2.66602 14.3023 2.73868C14.4278 2.80259 14.5298 2.90458 14.5937 3.03002C14.6663 3.17263 14.6663 3.35931 14.6663 3.73268V12.266C14.6663 12.6394 14.6663 12.8261 14.5937 12.9687C14.5298 13.0941 14.4278 13.1961 14.3023 13.26C14.1597 13.3327 13.973 13.3327 13.5997 13.3327H13.0663C12.693 13.3327 12.5063 13.3327 12.3637 13.26C12.2382 13.1961 12.1363 13.0941 12.0723 12.9687C11.9997 12.8261 11.9997 12.6394 11.9997 12.266V3.73268Z" stroke="#676768" stroke-width="0.8"/>
</svg>
