<svg width="20" height="20" viewBox="0 0 20 20" fill="none" xmlns="http://www.w3.org/2000/svg">
<path d="M10.0198 0H9.97429C4.46564 0 0 4.46696 0 9.97723V10.0228C0 15.533 4.46564 20 9.97429 20H10.0198C15.5285 20 19.9941 15.533 19.9941 10.0228V9.97723C19.9941 4.46696 15.5285 0 10.0198 0Z" fill="black"/>
<path d="M15.0667 7.9419V9.83028C14.7368 9.79805 14.3081 9.72307 13.8338 9.5493C13.2146 9.32228 12.7537 9.01187 12.4518 8.77153V12.5882L12.4441 12.5763C12.449 12.652 12.4518 12.7291 12.4518 12.8068C12.4518 14.7022 10.91 16.2452 9.01446 16.2452C7.11893 16.2452 5.57715 14.7022 5.57715 12.8068C5.57715 10.9115 7.11893 9.36782 9.01446 9.36782C9.20009 9.36782 9.38222 9.38254 9.56014 9.41126V11.2723C9.38922 11.2114 9.20569 11.1784 9.01446 11.1784C8.11713 11.1784 7.38652 11.9085 7.38652 12.8068C7.38652 13.7051 8.11713 14.4353 9.01446 14.4353C9.91179 14.4353 10.6424 13.7044 10.6424 12.8068C10.6424 12.7732 10.6417 12.7396 10.6396 12.7059V5.28906H12.526C12.533 5.44882 12.5393 5.60998 12.5463 5.76974C12.5589 6.08435 12.671 6.38635 12.8665 6.6337C13.0955 6.92449 13.4339 7.26223 13.9088 7.53199C14.3536 7.78425 14.7711 7.89215 15.0667 7.9433V7.9419Z" fill="#FF004F"/>
<path d="M14.4173 6.4101V8.29848C14.0874 8.26625 13.6587 8.19127 13.1844 8.0175C12.5652 7.79047 12.1043 7.48007 11.8023 7.23973V11.0564L11.7946 11.0445C11.7995 11.1202 11.8023 11.1973 11.8023 11.275C11.8023 13.1704 10.2606 14.7134 8.36504 14.7134C6.46952 14.7134 4.92773 13.1704 4.92773 11.275C4.92773 9.37966 6.46952 7.83602 8.36504 7.83602C8.55067 7.83602 8.7328 7.85073 8.91072 7.87946V9.74051C8.7398 9.67955 8.55628 9.64662 8.36504 9.64662C7.46771 9.64662 6.7371 10.3767 6.7371 11.275C6.7371 12.1733 7.46771 12.9035 8.36504 12.9035C9.26237 12.9035 9.99298 12.1726 9.99298 11.275C9.99298 11.2414 9.99228 11.2078 9.99018 11.1741V3.75586H11.8766C11.8836 3.91562 11.8899 4.07678 11.8969 4.23654C11.9095 4.55115 12.0216 4.85315 12.217 5.1005C12.4461 5.39129 12.7844 5.72902 13.2594 5.99879C13.7042 6.25034 14.1217 6.35895 14.4173 6.4101Z" fill="#00F7EF"/>
<path d="M14.8304 7.23682V9.1252C14.5004 9.09297 14.0717 9.018 13.5975 8.84422C12.9783 8.6172 12.5174 8.30679 12.2154 8.06645V11.8831L12.2077 11.8712C12.2126 11.9469 12.2154 12.024 12.2154 12.1018C12.2154 13.9972 10.6737 15.5401 8.77813 15.5401C6.8826 15.5401 5.34082 13.9972 5.34082 12.1018C5.34082 10.2064 6.8826 8.66274 8.77813 8.66274C8.96376 8.66274 9.14589 8.67746 9.32381 8.70619V10.5672C9.1529 10.5063 8.96936 10.4733 8.77813 10.4733C7.8808 10.4733 7.15019 11.2035 7.15019 12.1018C7.15019 13.0001 7.8808 13.7302 8.77813 13.7302C9.67546 13.7302 10.4061 12.9994 10.4061 12.1018C10.4061 12.0681 10.4054 12.0345 10.4033 12.0009V4.58398H12.2897C12.2967 4.74374 12.303 4.9049 12.31 5.06466C12.3226 5.37928 12.4347 5.68128 12.6301 5.92862C12.8592 6.21941 13.1975 6.55715 13.6725 6.82692C14.1173 7.07847 14.5348 7.18707 14.8304 7.23823V7.23682Z" fill="white"/>
</svg>
