<svg width="13" height="16" viewBox="0 0 13 16" fill="none" xmlns="http://www.w3.org/2000/svg">
<path d="M5.33315 6.09505C5.33315 5.67426 4.99203 5.33315 4.57124 5.33315C4.15045 5.33315 3.80934 5.67426 3.80934 6.09505H4.57124H5.33315ZM3.80934 12.1903C3.80934 12.6111 4.15045 12.9522 4.57124 12.9522C4.99203 12.9522 5.33315 12.6111 5.33315 12.1903H4.57124H3.80934ZM8.38077 6.09505C8.38077 5.67426 8.03965 5.33315 7.61886 5.33315C7.19807 5.33315 6.85696 5.67426 6.85696 6.09505H7.61886H8.38077ZM6.85696 12.1903C6.85696 12.6111 7.19807 12.9522 7.61886 12.9522C8.03965 12.9522 8.38077 12.6111 8.38077 12.1903H7.61886H6.85696ZM2.35564 14.3099L2.70154 13.6311H2.70154L2.35564 14.3099ZM1.68971 13.644L2.36857 13.2981L2.36857 13.2981L1.68971 13.644ZM10.5004 13.644L9.82153 13.2981L9.82153 13.2981L10.5004 13.644ZM9.83447 14.3099L9.48857 13.6311L9.48857 13.6311L9.83447 14.3099ZM0.761719 3.04743C0.34093 3.04743 -0.000185966 3.38855 -0.000185966 3.80934C-0.000185966 4.23013 0.34093 4.57124 0.761719 4.57124V3.80934V3.04743ZM11.4284 4.57124C11.8492 4.57124 12.1903 4.23013 12.1903 3.80934C12.1903 3.38855 11.8492 3.04743 11.4284 3.04743V3.80934V4.57124ZM2.66648 3.80934C2.66648 4.23013 3.0076 4.57124 3.42839 4.57124C3.84917 4.57124 4.19029 4.23013 4.19029 3.80934H3.42839H2.66648ZM7.99981 3.80934C7.99981 4.23013 8.34093 4.57124 8.76172 4.57124C9.18251 4.57124 9.52362 4.23013 9.52362 3.80934H8.76172H7.99981ZM4.57124 6.09505H3.80934V12.1903H4.57124H5.33315V6.09505H4.57124ZM7.61886 6.09505H6.85696V12.1903H7.61886H8.38077V6.09505H7.61886ZM10.6665 3.80934H9.90458V12.0379H10.6665H11.4284V3.80934H10.6665ZM8.22838 14.476V13.7141H3.96172V14.476V15.2379H8.22838V14.476ZM1.52362 3.80934H0.761719V12.0379H1.52362H2.28553V3.80934H1.52362ZM3.96172 14.476V13.7141C3.52244 13.7141 3.2388 13.7135 3.02293 13.6959C2.81595 13.679 2.73921 13.6503 2.70154 13.6311L2.35564 14.3099L2.00974 14.9888C2.29803 15.1357 2.59762 15.19 2.89884 15.2146C3.19116 15.2385 3.54758 15.2379 3.96172 15.2379V14.476ZM1.52362 12.0379H0.761719C0.761719 12.452 0.761126 12.8085 0.78501 13.1008C0.80962 13.402 0.863956 13.7016 1.01085 13.9899L1.68971 13.644L2.36857 13.2981C2.34938 13.2604 2.32067 13.1837 2.30376 12.9767C2.28612 12.7608 2.28553 12.4772 2.28553 12.0379H1.52362ZM2.35564 14.3099L2.70154 13.6311C2.55817 13.558 2.44162 13.4415 2.36857 13.2981L1.68971 13.644L1.01085 13.9899C1.22999 14.42 1.57966 14.7696 2.00974 14.9888L2.35564 14.3099ZM10.6665 12.0379H9.90458C9.90458 12.4772 9.90398 12.7608 9.88634 12.9767C9.86943 13.1837 9.84073 13.2604 9.82153 13.2981L10.5004 13.644L11.1793 13.9899C11.3261 13.7016 11.3805 13.402 11.4051 13.1008C11.429 12.8085 11.4284 12.452 11.4284 12.0379H10.6665ZM8.22838 14.476V15.2379C8.64252 15.2379 8.99894 15.2385 9.29126 15.2146C9.59248 15.19 9.89207 15.1357 10.1804 14.9888L9.83447 14.3099L9.48857 13.6311C9.4509 13.6503 9.37416 13.679 9.16718 13.6959C8.9513 13.7135 8.66766 13.7141 8.22838 13.7141V14.476ZM10.5004 13.644L9.82153 13.2981C9.74849 13.4415 9.63193 13.558 9.48857 13.6311L9.83447 14.3099L10.1804 14.9888C10.6104 14.7696 10.9601 14.42 11.1793 13.9899L10.5004 13.644ZM0.761719 3.80934V4.57124H1.52362V3.80934V3.04743H0.761719V3.80934ZM1.52362 3.80934V4.57124H10.6665V3.80934V3.04743H1.52362V3.80934ZM10.6665 3.80934V4.57124H11.4284V3.80934V3.04743H10.6665V3.80934ZM3.42839 3.19981H4.19029C4.19029 2.33691 4.97738 1.52362 6.09505 1.52362V0.761719V-0.000185966C4.26721 -0.000185966 2.66648 1.36968 2.66648 3.19981H3.42839ZM6.09505 0.761719V1.52362C7.21272 1.52362 7.99981 2.33691 7.99981 3.19981H8.76172H9.52362C9.52362 1.36968 7.9229 -0.000185966 6.09505 -0.000185966V0.761719ZM3.42839 3.19981H2.66648V3.80934H3.42839H4.19029V3.19981H3.42839ZM8.76172 3.19981H7.99981V3.80934H8.76172H9.52362V3.19981H8.76172Z" fill="#676768"/>
</svg>
