<svg width="12" height="12" viewBox="0 0 12 12" fill="none" xmlns="http://www.w3.org/2000/svg">
<path d="M0.476562 4.04799C0.476562 2.93861 0.476562 2.38391 0.657802 1.94636C0.899454 1.36296 1.36296 0.899454 1.94636 0.657802C2.38391 0.476562 2.93861 0.476562 4.04799 0.476562C4.26987 0.476562 4.38081 0.476562 4.46832 0.51281C4.585 0.561141 4.6777 0.653843 4.72603 0.770523C4.76228 0.858033 4.76228 0.968971 4.76228 1.19085V10.2385C4.76228 10.4603 4.76228 10.5713 4.72603 10.6588C4.6777 10.7755 4.585 10.8682 4.46832 10.9165C4.38081 10.9528 4.26987 10.9528 4.04799 10.9528C2.93861 10.9528 2.38391 10.9528 1.94636 10.7715C1.36296 10.5299 0.899454 10.0664 0.657802 9.48295C0.476562 9.0454 0.476562 8.49071 0.476562 7.38132V4.04799Z" stroke="#676768" stroke-width="0.952381"/>
<path d="M10.9528 7.38132C10.9528 8.49071 10.9528 9.0454 10.7715 9.48295C10.5299 10.0664 10.0664 10.5299 9.48295 10.7715C9.0454 10.9528 8.49071 10.9528 7.38132 10.9528C7.15945 10.9528 7.04851 10.9528 6.961 10.9165C6.84432 10.8682 6.75162 10.7755 6.70329 10.6588C6.66704 10.5713 6.66704 10.4603 6.66704 10.2385V1.19085C6.66704 0.968971 6.66704 0.858033 6.70329 0.770523C6.75162 0.653843 6.84432 0.561141 6.961 0.51281C7.04851 0.476562 7.15945 0.476562 7.38132 0.476562C8.49071 0.476562 9.0454 0.476562 9.48295 0.657802C10.0664 0.899454 10.5299 1.36296 10.7715 1.94636C10.9528 2.38391 10.9528 2.93861 10.9528 4.04799V7.38132Z" stroke="#676768" stroke-width="0.952381"/>
</svg>
