<svg width="24" height="24" viewBox="0 0 24 24" fill="none" xmlns="http://www.w3.org/2000/svg">
<path d="M12.5 13C12.5 12.7239 12.2761 12.5 12 12.5C11.7239 12.5 11.5 12.7239 11.5 13H12H12.5ZM11.5 21C11.5 21.2761 11.7239 21.5 12 21.5C12.2761 21.5 12.5 21.2761 12.5 21H12H11.5ZM8.64645 14.6464C8.45119 14.8417 8.45119 15.1583 8.64645 15.3536C8.84171 15.5488 9.15829 15.5488 9.35355 15.3536L9 15L8.64645 14.6464ZM13.1314 13.1314L13.4849 12.7778L13.4849 12.7778L13.1314 13.1314ZM14.6464 15.3536C14.8417 15.5488 15.1583 15.5488 15.3536 15.3536C15.5488 15.1583 15.5488 14.8417 15.3536 14.6464L15 15L14.6464 15.3536ZM11.691 12.4632L11.8455 12.9387L11.691 12.4632ZM12.309 12.4632L12.1545 12.9387L12.309 12.4632ZM17.9936 7.09873L18.0924 6.60859L17.9936 7.09873ZM7.09873 6.00638L6.60859 5.90756L6.60859 5.90756L7.09873 6.00638ZM16.9013 6.00638L16.4111 6.10521L16.9013 6.00638ZM6.00639 7.09873L5.90756 6.60859H5.90756L6.00639 7.09873ZM18.7998 16.1258C18.5468 16.2363 18.4313 16.5311 18.5418 16.7841C18.6524 17.0372 18.9471 17.1527 19.2002 17.0421L19 16.584L18.7998 16.1258ZM4.79982 17.0421C5.05286 17.1527 5.34762 17.0372 5.45818 16.7841C5.56874 16.5311 5.45323 16.2363 5.20019 16.1258L5 16.584L4.79982 17.0421ZM12 13H11.5L11.5 21H12H12.5L12.5 13H12ZM9 15L9.35355 15.3536L11.2222 13.4849L10.8686 13.1314L10.5151 12.7778L8.64645 14.6464L9 15ZM13.1314 13.1314L12.7778 13.4849L14.6464 15.3536L15 15L15.3536 14.6464L13.4849 12.7778L13.1314 13.1314ZM10.8686 13.1314L11.2222 13.4849C11.426 13.2811 11.5579 13.1497 11.6663 13.0577C11.7702 12.9695 11.8191 12.9473 11.8455 12.9387L11.691 12.4632L11.5365 11.9876C11.3345 12.0532 11.1703 12.1671 11.0191 12.2954C10.8724 12.42 10.7072 12.5856 10.5151 12.7778L10.8686 13.1314ZM13.1314 13.1314L13.4849 12.7778C13.2928 12.5856 13.1276 12.42 12.9809 12.2954C12.8297 12.1671 12.6655 12.0532 12.4635 11.9876L12.309 12.4632L12.1545 12.9387C12.1809 12.9473 12.2298 12.9695 12.3337 13.0578C12.4421 13.1497 12.574 13.2811 12.7778 13.4849L13.1314 13.1314ZM11.691 12.4632L11.8455 12.9387C11.9459 12.9061 12.0541 12.9061 12.1545 12.9387L12.309 12.4632L12.4635 11.9876C12.1623 11.8897 11.8377 11.8897 11.5365 11.9876L11.691 12.4632ZM17.9936 7.09873L17.8948 7.58886C19.9515 8.00354 21.5 9.82149 21.5 12H22H22.5C22.5 9.33609 20.6066 7.11551 18.0924 6.60859L17.9936 7.09873ZM7.09873 6.00638L7.58886 6.10521C8.00354 4.04855 9.82149 2.5 12 2.5V2V1.5C9.33609 1.5 7.11551 3.39338 6.60859 5.90756L7.09873 6.00638ZM12 2V2.5C14.1785 2.5 15.9965 4.04855 16.4111 6.10521L16.9013 6.00638L17.3914 5.90756C16.8845 3.39338 14.6639 1.5 12 1.5V2ZM2 12H2.5C2.5 9.82149 4.04855 8.00354 6.10521 7.58886L6.00639 7.09873L5.90756 6.60859C3.39338 7.11551 1.5 9.33609 1.5 12H2ZM22 12H21.5C21.5 13.8445 20.3902 15.4309 18.7998 16.1258L19 16.584L19.2002 17.0421C21.1416 16.1939 22.5 14.2561 22.5 12H22ZM5 16.584L5.20019 16.1258C3.60983 15.4309 2.5 13.8445 2.5 12H2H1.5C1.5 14.2561 2.85837 16.1939 4.79982 17.0421L5 16.584ZM7.09873 6.00638L6.60859 5.90756C6.53922 6.25164 6.25164 6.53921 5.90756 6.60859L6.00639 7.09873L6.10521 7.58886C6.84391 7.43992 7.43992 6.84391 7.58886 6.10521L7.09873 6.00638ZM17.9936 7.09873L18.0924 6.60859C17.7484 6.53921 17.4608 6.25164 17.3914 5.90756L16.9013 6.00638L16.4111 6.10521C16.5601 6.84391 17.1561 7.43992 17.8948 7.58886L17.9936 7.09873Z" fill="#49494B"/>
<path d="M12.5 13C12.5 12.7239 12.2761 12.5 12 12.5C11.7239 12.5 11.5 12.7239 11.5 13H12H12.5ZM11.5 21C11.5 21.2761 11.7239 21.5 12 21.5C12.2761 21.5 12.5 21.2761 12.5 21H12H11.5ZM8.64645 14.6464C8.45119 14.8417 8.45119 15.1583 8.64645 15.3536C8.84171 15.5488 9.15829 15.5488 9.35355 15.3536L9 15L8.64645 14.6464ZM13.1314 13.1314L13.4849 12.7778L13.4849 12.7778L13.1314 13.1314ZM14.6464 15.3536C14.8417 15.5488 15.1583 15.5488 15.3536 15.3536C15.5488 15.1583 15.5488 14.8417 15.3536 14.6464L15 15L14.6464 15.3536ZM11.691 12.4632L11.8455 12.9387L11.691 12.4632ZM12.309 12.4632L12.1545 12.9387L12.309 12.4632ZM17.9936 7.09873L18.0924 6.60859L17.9936 7.09873ZM7.09873 6.00638L6.60859 5.90756L6.60859 5.90756L7.09873 6.00638ZM16.9013 6.00638L16.4111 6.10521L16.9013 6.00638ZM6.00639 7.09873L5.90756 6.60859H5.90756L6.00639 7.09873ZM18.7998 16.1258C18.5468 16.2363 18.4313 16.5311 18.5418 16.7841C18.6524 17.0372 18.9471 17.1527 19.2002 17.0421L19 16.584L18.7998 16.1258ZM4.79982 17.0421C5.05286 17.1527 5.34762 17.0372 5.45818 16.7841C5.56874 16.5311 5.45323 16.2363 5.20019 16.1258L5 16.584L4.79982 17.0421ZM12 13H11.5L11.5 21H12H12.5L12.5 13H12ZM9 15L9.35355 15.3536L11.2222 13.4849L10.8686 13.1314L10.5151 12.7778L8.64645 14.6464L9 15ZM13.1314 13.1314L12.7778 13.4849L14.6464 15.3536L15 15L15.3536 14.6464L13.4849 12.7778L13.1314 13.1314ZM10.8686 13.1314L11.2222 13.4849C11.426 13.2811 11.5579 13.1497 11.6663 13.0577C11.7702 12.9695 11.8191 12.9473 11.8455 12.9387L11.691 12.4632L11.5365 11.9876C11.3345 12.0532 11.1703 12.1671 11.0191 12.2954C10.8724 12.42 10.7072 12.5856 10.5151 12.7778L10.8686 13.1314ZM13.1314 13.1314L13.4849 12.7778C13.2928 12.5856 13.1276 12.42 12.9809 12.2954C12.8297 12.1671 12.6655 12.0532 12.4635 11.9876L12.309 12.4632L12.1545 12.9387C12.1809 12.9473 12.2298 12.9695 12.3337 13.0578C12.4421 13.1497 12.574 13.2811 12.7778 13.4849L13.1314 13.1314ZM11.691 12.4632L11.8455 12.9387C11.9459 12.9061 12.0541 12.9061 12.1545 12.9387L12.309 12.4632L12.4635 11.9876C12.1623 11.8897 11.8377 11.8897 11.5365 11.9876L11.691 12.4632ZM17.9936 7.09873L17.8948 7.58886C19.9515 8.00354 21.5 9.82149 21.5 12H22H22.5C22.5 9.33609 20.6066 7.11551 18.0924 6.60859L17.9936 7.09873ZM7.09873 6.00638L7.58886 6.10521C8.00354 4.04855 9.82149 2.5 12 2.5V2V1.5C9.33609 1.5 7.11551 3.39338 6.60859 5.90756L7.09873 6.00638ZM12 2V2.5C14.1785 2.5 15.9965 4.04855 16.4111 6.10521L16.9013 6.00638L17.3914 5.90756C16.8845 3.39338 14.6639 1.5 12 1.5V2ZM2 12H2.5C2.5 9.82149 4.04855 8.00354 6.10521 7.58886L6.00639 7.09873L5.90756 6.60859C3.39338 7.11551 1.5 9.33609 1.5 12H2ZM22 12H21.5C21.5 13.8445 20.3902 15.4309 18.7998 16.1258L19 16.584L19.2002 17.0421C21.1416 16.1939 22.5 14.2561 22.5 12H22ZM5 16.584L5.20019 16.1258C3.60983 15.4309 2.5 13.8445 2.5 12H2H1.5C1.5 14.2561 2.85837 16.1939 4.79982 17.0421L5 16.584ZM7.09873 6.00638L6.60859 5.90756C6.53922 6.25164 6.25164 6.53921 5.90756 6.60859L6.00639 7.09873L6.10521 7.58886C6.84391 7.43992 7.43992 6.84391 7.58886 6.10521L7.09873 6.00638ZM17.9936 7.09873L18.0924 6.60859C17.7484 6.53921 17.4608 6.25164 17.3914 5.90756L16.9013 6.00638L16.4111 6.10521C16.5601 6.84391 17.1561 7.43992 17.8948 7.58886L17.9936 7.09873Z" fill="black" fill-opacity="0.2"/>
<path d="M12.5 13C12.5 12.7239 12.2761 12.5 12 12.5C11.7239 12.5 11.5 12.7239 11.5 13H12H12.5ZM11.5 21C11.5 21.2761 11.7239 21.5 12 21.5C12.2761 21.5 12.5 21.2761 12.5 21H12H11.5ZM8.64645 14.6464C8.45119 14.8417 8.45119 15.1583 8.64645 15.3536C8.84171 15.5488 9.15829 15.5488 9.35355 15.3536L9 15L8.64645 14.6464ZM13.1314 13.1314L13.4849 12.7778L13.4849 12.7778L13.1314 13.1314ZM14.6464 15.3536C14.8417 15.5488 15.1583 15.5488 15.3536 15.3536C15.5488 15.1583 15.5488 14.8417 15.3536 14.6464L15 15L14.6464 15.3536ZM11.691 12.4632L11.8455 12.9387L11.691 12.4632ZM12.309 12.4632L12.1545 12.9387L12.309 12.4632ZM17.9936 7.09873L18.0924 6.60859L17.9936 7.09873ZM7.09873 6.00638L6.60859 5.90756L6.60859 5.90756L7.09873 6.00638ZM16.9013 6.00638L16.4111 6.10521L16.9013 6.00638ZM6.00639 7.09873L5.90756 6.60859H5.90756L6.00639 7.09873ZM18.7998 16.1258C18.5468 16.2363 18.4313 16.5311 18.5418 16.7841C18.6524 17.0372 18.9471 17.1527 19.2002 17.0421L19 16.584L18.7998 16.1258ZM4.79982 17.0421C5.05286 17.1527 5.34762 17.0372 5.45818 16.7841C5.56874 16.5311 5.45323 16.2363 5.20019 16.1258L5 16.584L4.79982 17.0421ZM12 13H11.5L11.5 21H12H12.5L12.5 13H12ZM9 15L9.35355 15.3536L11.2222 13.4849L10.8686 13.1314L10.5151 12.7778L8.64645 14.6464L9 15ZM13.1314 13.1314L12.7778 13.4849L14.6464 15.3536L15 15L15.3536 14.6464L13.4849 12.7778L13.1314 13.1314ZM10.8686 13.1314L11.2222 13.4849C11.426 13.2811 11.5579 13.1497 11.6663 13.0577C11.7702 12.9695 11.8191 12.9473 11.8455 12.9387L11.691 12.4632L11.5365 11.9876C11.3345 12.0532 11.1703 12.1671 11.0191 12.2954C10.8724 12.42 10.7072 12.5856 10.5151 12.7778L10.8686 13.1314ZM13.1314 13.1314L13.4849 12.7778C13.2928 12.5856 13.1276 12.42 12.9809 12.2954C12.8297 12.1671 12.6655 12.0532 12.4635 11.9876L12.309 12.4632L12.1545 12.9387C12.1809 12.9473 12.2298 12.9695 12.3337 13.0578C12.4421 13.1497 12.574 13.2811 12.7778 13.4849L13.1314 13.1314ZM11.691 12.4632L11.8455 12.9387C11.9459 12.9061 12.0541 12.9061 12.1545 12.9387L12.309 12.4632L12.4635 11.9876C12.1623 11.8897 11.8377 11.8897 11.5365 11.9876L11.691 12.4632ZM17.9936 7.09873L17.8948 7.58886C19.9515 8.00354 21.5 9.82149 21.5 12H22H22.5C22.5 9.33609 20.6066 7.11551 18.0924 6.60859L17.9936 7.09873ZM7.09873 6.00638L7.58886 6.10521C8.00354 4.04855 9.82149 2.5 12 2.5V2V1.5C9.33609 1.5 7.11551 3.39338 6.60859 5.90756L7.09873 6.00638ZM12 2V2.5C14.1785 2.5 15.9965 4.04855 16.4111 6.10521L16.9013 6.00638L17.3914 5.90756C16.8845 3.39338 14.6639 1.5 12 1.5V2ZM2 12H2.5C2.5 9.82149 4.04855 8.00354 6.10521 7.58886L6.00639 7.09873L5.90756 6.60859C3.39338 7.11551 1.5 9.33609 1.5 12H2ZM22 12H21.5C21.5 13.8445 20.3902 15.4309 18.7998 16.1258L19 16.584L19.2002 17.0421C21.1416 16.1939 22.5 14.2561 22.5 12H22ZM5 16.584L5.20019 16.1258C3.60983 15.4309 2.5 13.8445 2.5 12H2H1.5C1.5 14.2561 2.85837 16.1939 4.79982 17.0421L5 16.584ZM7.09873 6.00638L6.60859 5.90756C6.53922 6.25164 6.25164 6.53921 5.90756 6.60859L6.00639 7.09873L6.10521 7.58886C6.84391 7.43992 7.43992 6.84391 7.58886 6.10521L7.09873 6.00638ZM17.9936 7.09873L18.0924 6.60859C17.7484 6.53921 17.4608 6.25164 17.3914 5.90756L16.9013 6.00638L16.4111 6.10521C16.5601 6.84391 17.1561 7.43992 17.8948 7.58886L17.9936 7.09873Z" fill="black" fill-opacity="0.2"/>
<path d="M12.5 13C12.5 12.7239 12.2761 12.5 12 12.5C11.7239 12.5 11.5 12.7239 11.5 13H12H12.5ZM11.5 21C11.5 21.2761 11.7239 21.5 12 21.5C12.2761 21.5 12.5 21.2761 12.5 21H12H11.5ZM8.64645 14.6464C8.45119 14.8417 8.45119 15.1583 8.64645 15.3536C8.84171 15.5488 9.15829 15.5488 9.35355 15.3536L9 15L8.64645 14.6464ZM13.1314 13.1314L13.4849 12.7778L13.4849 12.7778L13.1314 13.1314ZM14.6464 15.3536C14.8417 15.5488 15.1583 15.5488 15.3536 15.3536C15.5488 15.1583 15.5488 14.8417 15.3536 14.6464L15 15L14.6464 15.3536ZM11.691 12.4632L11.8455 12.9387L11.691 12.4632ZM12.309 12.4632L12.1545 12.9387L12.309 12.4632ZM17.9936 7.09873L18.0924 6.60859L17.9936 7.09873ZM7.09873 6.00638L6.60859 5.90756L6.60859 5.90756L7.09873 6.00638ZM16.9013 6.00638L16.4111 6.10521L16.9013 6.00638ZM6.00639 7.09873L5.90756 6.60859H5.90756L6.00639 7.09873ZM18.7998 16.1258C18.5468 16.2363 18.4313 16.5311 18.5418 16.7841C18.6524 17.0372 18.9471 17.1527 19.2002 17.0421L19 16.584L18.7998 16.1258ZM4.79982 17.0421C5.05286 17.1527 5.34762 17.0372 5.45818 16.7841C5.56874 16.5311 5.45323 16.2363 5.20019 16.1258L5 16.584L4.79982 17.0421ZM12 13H11.5L11.5 21H12H12.5L12.5 13H12ZM9 15L9.35355 15.3536L11.2222 13.4849L10.8686 13.1314L10.5151 12.7778L8.64645 14.6464L9 15ZM13.1314 13.1314L12.7778 13.4849L14.6464 15.3536L15 15L15.3536 14.6464L13.4849 12.7778L13.1314 13.1314ZM10.8686 13.1314L11.2222 13.4849C11.426 13.2811 11.5579 13.1497 11.6663 13.0577C11.7702 12.9695 11.8191 12.9473 11.8455 12.9387L11.691 12.4632L11.5365 11.9876C11.3345 12.0532 11.1703 12.1671 11.0191 12.2954C10.8724 12.42 10.7072 12.5856 10.5151 12.7778L10.8686 13.1314ZM13.1314 13.1314L13.4849 12.7778C13.2928 12.5856 13.1276 12.42 12.9809 12.2954C12.8297 12.1671 12.6655 12.0532 12.4635 11.9876L12.309 12.4632L12.1545 12.9387C12.1809 12.9473 12.2298 12.9695 12.3337 13.0578C12.4421 13.1497 12.574 13.2811 12.7778 13.4849L13.1314 13.1314ZM11.691 12.4632L11.8455 12.9387C11.9459 12.9061 12.0541 12.9061 12.1545 12.9387L12.309 12.4632L12.4635 11.9876C12.1623 11.8897 11.8377 11.8897 11.5365 11.9876L11.691 12.4632ZM17.9936 7.09873L17.8948 7.58886C19.9515 8.00354 21.5 9.82149 21.5 12H22H22.5C22.5 9.33609 20.6066 7.11551 18.0924 6.60859L17.9936 7.09873ZM7.09873 6.00638L7.58886 6.10521C8.00354 4.04855 9.82149 2.5 12 2.5V2V1.5C9.33609 1.5 7.11551 3.39338 6.60859 5.90756L7.09873 6.00638ZM12 2V2.5C14.1785 2.5 15.9965 4.04855 16.4111 6.10521L16.9013 6.00638L17.3914 5.90756C16.8845 3.39338 14.6639 1.5 12 1.5V2ZM2 12H2.5C2.5 9.82149 4.04855 8.00354 6.10521 7.58886L6.00639 7.09873L5.90756 6.60859C3.39338 7.11551 1.5 9.33609 1.5 12H2ZM22 12H21.5C21.5 13.8445 20.3902 15.4309 18.7998 16.1258L19 16.584L19.2002 17.0421C21.1416 16.1939 22.5 14.2561 22.5 12H22ZM5 16.584L5.20019 16.1258C3.60983 15.4309 2.5 13.8445 2.5 12H2H1.5C1.5 14.2561 2.85837 16.1939 4.79982 17.0421L5 16.584ZM7.09873 6.00638L6.60859 5.90756C6.53922 6.25164 6.25164 6.53921 5.90756 6.60859L6.00639 7.09873L6.10521 7.58886C6.84391 7.43992 7.43992 6.84391 7.58886 6.10521L7.09873 6.00638ZM17.9936 7.09873L18.0924 6.60859C17.7484 6.53921 17.4608 6.25164 17.3914 5.90756L16.9013 6.00638L16.4111 6.10521C16.5601 6.84391 17.1561 7.43992 17.8948 7.58886L17.9936 7.09873Z" fill="black" fill-opacity="0.2"/>
<path d="M12.5 13C12.5 12.7239 12.2761 12.5 12 12.5C11.7239 12.5 11.5 12.7239 11.5 13H12H12.5ZM11.5 21C11.5 21.2761 11.7239 21.5 12 21.5C12.2761 21.5 12.5 21.2761 12.5 21H12H11.5ZM8.64645 14.6464C8.45119 14.8417 8.45119 15.1583 8.64645 15.3536C8.84171 15.5488 9.15829 15.5488 9.35355 15.3536L9 15L8.64645 14.6464ZM13.1314 13.1314L13.4849 12.7778L13.4849 12.7778L13.1314 13.1314ZM14.6464 15.3536C14.8417 15.5488 15.1583 15.5488 15.3536 15.3536C15.5488 15.1583 15.5488 14.8417 15.3536 14.6464L15 15L14.6464 15.3536ZM11.691 12.4632L11.8455 12.9387L11.691 12.4632ZM12.309 12.4632L12.1545 12.9387L12.309 12.4632ZM17.9936 7.09873L18.0924 6.60859L17.9936 7.09873ZM7.09873 6.00638L6.60859 5.90756L6.60859 5.90756L7.09873 6.00638ZM16.9013 6.00638L16.4111 6.10521L16.9013 6.00638ZM6.00639 7.09873L5.90756 6.60859H5.90756L6.00639 7.09873ZM18.7998 16.1258C18.5468 16.2363 18.4313 16.5311 18.5418 16.7841C18.6524 17.0372 18.9471 17.1527 19.2002 17.0421L19 16.584L18.7998 16.1258ZM4.79982 17.0421C5.05286 17.1527 5.34762 17.0372 5.45818 16.7841C5.56874 16.5311 5.45323 16.2363 5.20019 16.1258L5 16.584L4.79982 17.0421ZM12 13H11.5L11.5 21H12H12.5L12.5 13H12ZM9 15L9.35355 15.3536L11.2222 13.4849L10.8686 13.1314L10.5151 12.7778L8.64645 14.6464L9 15ZM13.1314 13.1314L12.7778 13.4849L14.6464 15.3536L15 15L15.3536 14.6464L13.4849 12.7778L13.1314 13.1314ZM10.8686 13.1314L11.2222 13.4849C11.426 13.2811 11.5579 13.1497 11.6663 13.0577C11.7702 12.9695 11.8191 12.9473 11.8455 12.9387L11.691 12.4632L11.5365 11.9876C11.3345 12.0532 11.1703 12.1671 11.0191 12.2954C10.8724 12.42 10.7072 12.5856 10.5151 12.7778L10.8686 13.1314ZM13.1314 13.1314L13.4849 12.7778C13.2928 12.5856 13.1276 12.42 12.9809 12.2954C12.8297 12.1671 12.6655 12.0532 12.4635 11.9876L12.309 12.4632L12.1545 12.9387C12.1809 12.9473 12.2298 12.9695 12.3337 13.0578C12.4421 13.1497 12.574 13.2811 12.7778 13.4849L13.1314 13.1314ZM11.691 12.4632L11.8455 12.9387C11.9459 12.9061 12.0541 12.9061 12.1545 12.9387L12.309 12.4632L12.4635 11.9876C12.1623 11.8897 11.8377 11.8897 11.5365 11.9876L11.691 12.4632ZM17.9936 7.09873L17.8948 7.58886C19.9515 8.00354 21.5 9.82149 21.5 12H22H22.5C22.5 9.33609 20.6066 7.11551 18.0924 6.60859L17.9936 7.09873ZM7.09873 6.00638L7.58886 6.10521C8.00354 4.04855 9.82149 2.5 12 2.5V2V1.5C9.33609 1.5 7.11551 3.39338 6.60859 5.90756L7.09873 6.00638ZM12 2V2.5C14.1785 2.5 15.9965 4.04855 16.4111 6.10521L16.9013 6.00638L17.3914 5.90756C16.8845 3.39338 14.6639 1.5 12 1.5V2ZM2 12H2.5C2.5 9.82149 4.04855 8.00354 6.10521 7.58886L6.00639 7.09873L5.90756 6.60859C3.39338 7.11551 1.5 9.33609 1.5 12H2ZM22 12H21.5C21.5 13.8445 20.3902 15.4309 18.7998 16.1258L19 16.584L19.2002 17.0421C21.1416 16.1939 22.5 14.2561 22.5 12H22ZM5 16.584L5.20019 16.1258C3.60983 15.4309 2.5 13.8445 2.5 12H2H1.5C1.5 14.2561 2.85837 16.1939 4.79982 17.0421L5 16.584ZM7.09873 6.00638L6.60859 5.90756C6.53922 6.25164 6.25164 6.53921 5.90756 6.60859L6.00639 7.09873L6.10521 7.58886C6.84391 7.43992 7.43992 6.84391 7.58886 6.10521L7.09873 6.00638ZM17.9936 7.09873L18.0924 6.60859C17.7484 6.53921 17.4608 6.25164 17.3914 5.90756L16.9013 6.00638L16.4111 6.10521C16.5601 6.84391 17.1561 7.43992 17.8948 7.58886L17.9936 7.09873Z" fill="black" fill-opacity="0.2"/>
<path d="M12.5 13C12.5 12.7239 12.2761 12.5 12 12.5C11.7239 12.5 11.5 12.7239 11.5 13H12H12.5ZM11.5 21C11.5 21.2761 11.7239 21.5 12 21.5C12.2761 21.5 12.5 21.2761 12.5 21H12H11.5ZM8.64645 14.6464C8.45119 14.8417 8.45119 15.1583 8.64645 15.3536C8.84171 15.5488 9.15829 15.5488 9.35355 15.3536L9 15L8.64645 14.6464ZM13.1314 13.1314L13.4849 12.7778L13.4849 12.7778L13.1314 13.1314ZM14.6464 15.3536C14.8417 15.5488 15.1583 15.5488 15.3536 15.3536C15.5488 15.1583 15.5488 14.8417 15.3536 14.6464L15 15L14.6464 15.3536ZM11.691 12.4632L11.8455 12.9387L11.691 12.4632ZM12.309 12.4632L12.1545 12.9387L12.309 12.4632ZM17.9936 7.09873L18.0924 6.60859L17.9936 7.09873ZM7.09873 6.00638L6.60859 5.90756L6.60859 5.90756L7.09873 6.00638ZM16.9013 6.00638L16.4111 6.10521L16.9013 6.00638ZM6.00639 7.09873L5.90756 6.60859H5.90756L6.00639 7.09873ZM18.7998 16.1258C18.5468 16.2363 18.4313 16.5311 18.5418 16.7841C18.6524 17.0372 18.9471 17.1527 19.2002 17.0421L19 16.584L18.7998 16.1258ZM4.79982 17.0421C5.05286 17.1527 5.34762 17.0372 5.45818 16.7841C5.56874 16.5311 5.45323 16.2363 5.20019 16.1258L5 16.584L4.79982 17.0421ZM12 13H11.5L11.5 21H12H12.5L12.5 13H12ZM9 15L9.35355 15.3536L11.2222 13.4849L10.8686 13.1314L10.5151 12.7778L8.64645 14.6464L9 15ZM13.1314 13.1314L12.7778 13.4849L14.6464 15.3536L15 15L15.3536 14.6464L13.4849 12.7778L13.1314 13.1314ZM10.8686 13.1314L11.2222 13.4849C11.426 13.2811 11.5579 13.1497 11.6663 13.0577C11.7702 12.9695 11.8191 12.9473 11.8455 12.9387L11.691 12.4632L11.5365 11.9876C11.3345 12.0532 11.1703 12.1671 11.0191 12.2954C10.8724 12.42 10.7072 12.5856 10.5151 12.7778L10.8686 13.1314ZM13.1314 13.1314L13.4849 12.7778C13.2928 12.5856 13.1276 12.42 12.9809 12.2954C12.8297 12.1671 12.6655 12.0532 12.4635 11.9876L12.309 12.4632L12.1545 12.9387C12.1809 12.9473 12.2298 12.9695 12.3337 13.0578C12.4421 13.1497 12.574 13.2811 12.7778 13.4849L13.1314 13.1314ZM11.691 12.4632L11.8455 12.9387C11.9459 12.9061 12.0541 12.9061 12.1545 12.9387L12.309 12.4632L12.4635 11.9876C12.1623 11.8897 11.8377 11.8897 11.5365 11.9876L11.691 12.4632ZM17.9936 7.09873L17.8948 7.58886C19.9515 8.00354 21.5 9.82149 21.5 12H22H22.5C22.5 9.33609 20.6066 7.11551 18.0924 6.60859L17.9936 7.09873ZM7.09873 6.00638L7.58886 6.10521C8.00354 4.04855 9.82149 2.5 12 2.5V2V1.5C9.33609 1.5 7.11551 3.39338 6.60859 5.90756L7.09873 6.00638ZM12 2V2.5C14.1785 2.5 15.9965 4.04855 16.4111 6.10521L16.9013 6.00638L17.3914 5.90756C16.8845 3.39338 14.6639 1.5 12 1.5V2ZM2 12H2.5C2.5 9.82149 4.04855 8.00354 6.10521 7.58886L6.00639 7.09873L5.90756 6.60859C3.39338 7.11551 1.5 9.33609 1.5 12H2ZM22 12H21.5C21.5 13.8445 20.3902 15.4309 18.7998 16.1258L19 16.584L19.2002 17.0421C21.1416 16.1939 22.5 14.2561 22.5 12H22ZM5 16.584L5.20019 16.1258C3.60983 15.4309 2.5 13.8445 2.5 12H2H1.5C1.5 14.2561 2.85837 16.1939 4.79982 17.0421L5 16.584ZM7.09873 6.00638L6.60859 5.90756C6.53922 6.25164 6.25164 6.53921 5.90756 6.60859L6.00639 7.09873L6.10521 7.58886C6.84391 7.43992 7.43992 6.84391 7.58886 6.10521L7.09873 6.00638ZM17.9936 7.09873L18.0924 6.60859C17.7484 6.53921 17.4608 6.25164 17.3914 5.90756L16.9013 6.00638L16.4111 6.10521C16.5601 6.84391 17.1561 7.43992 17.8948 7.58886L17.9936 7.09873Z" fill="black" fill-opacity="0.2"/>
</svg>
