<svg width="12" height="14" viewBox="0 0 12 14" fill="none" xmlns="http://www.w3.org/2000/svg">
<path d="M6.94564 9.33268H10.279V12.666M4.27897 3.99935H0.945638V0.666016M10.5573 4.66828C10.1835 3.74312 9.55772 2.94137 8.75098 2.35417C7.94424 1.76696 6.98908 1.4177 5.99382 1.34635C4.99855 1.27501 4.00301 1.48428 3.12077 1.95042C2.23852 2.41656 1.50485 3.12104 1.00293 3.98343M0.666992 8.66406C1.04078 9.58922 1.66661 10.391 2.47335 10.9782C3.28009 11.5654 4.23622 11.9142 5.23149 11.9855C6.22676 12.0569 7.22148 11.8477 8.10372 11.3815C8.98597 10.9154 9.71914 10.211 10.2211 9.34863" stroke="#1146D1" stroke-width="1.33333" stroke-linecap="round" stroke-linejoin="round"/>
</svg>
