<svg width="16" height="16" viewBox="0 0 16 16" fill="none" xmlns="http://www.w3.org/2000/svg">
<g clip-path="url(#clip0_1863_17257)">
<path d="M4.00065 5.99984V9.99984M4.00065 5.99984C4.00065 5.63165 3.70217 5.33317 3.33398 5.33317H2.66732C1.93094 5.33317 1.33398 5.93012 1.33398 6.6665V9.33317C1.33398 10.0695 1.93094 10.6665 2.66732 10.6665H3.33398C3.70217 10.6665 4.00065 10.368 4.00065 9.99984M4.00065 5.99984V5.74519C4.00065 5.49268 4.14332 5.26184 4.36918 5.14891L8.36917 3.14891C8.81244 2.92727 9.33398 3.24961 9.33398 3.74519V12.2545C9.33398 12.7501 8.81244 13.0724 8.36917 12.8508L4.36918 10.8508C4.14332 10.7378 4.00065 10.507 4.00065 10.2545V9.99984M12.0007 3.99984L13.334 2.6665M12.0007 11.9998L13.334 13.3332M12.0007 7.99984H14.0007" stroke="white" stroke-linecap="round"/>
</g>
<defs>
<clipPath id="clip0_1863_17257">
<rect width="16" height="16" fill="white"/>
</clipPath>
</defs>
</svg>
