<svg width="14" height="12" viewBox="0 0 14 12" fill="none" xmlns="http://www.w3.org/2000/svg">
<path d="M3.16667 3.83333V7.83333M3.16667 3.83333C3.16667 3.46514 2.86819 3.16667 2.5 3.16667H1.83333C1.09695 3.16667 0.5 3.76362 0.5 4.5V7.16667C0.5 7.90305 1.09695 8.5 1.83333 8.5H2.5C2.86819 8.5 3.16667 8.20152 3.16667 7.83333M3.16667 3.83333V3.57869C3.16667 3.32617 3.30933 3.09533 3.53519 2.9824L7.53519 0.982404C7.97846 0.760771 8.5 1.0831 8.5 1.57869V10.088C8.5 10.5836 7.97846 10.9059 7.53519 10.6843L3.53519 8.68426C3.30933 8.57133 3.16667 8.34049 3.16667 8.08798V7.83333M11.1667 1.83333L12.5 0.5M11.1667 9.83333L12.5 11.1667M11.1667 5.83333H13.1667" stroke="#1146D1" stroke-linecap="round"/>
</svg>
