<svg width="31" height="28" viewBox="0 0 31 28" fill="none" xmlns="http://www.w3.org/2000/svg">
<rect width="30.1" height="28" rx="14" fill="#1146D1" fill-opacity="0.05"/>
<path d="M11.2004 11.9004V16.1004M11.2004 11.9004C11.2004 11.5138 10.887 11.2004 10.5004 11.2004H9.80039C9.02719 11.2004 8.40039 11.8272 8.40039 12.6004V15.4004C8.40039 16.1736 9.02719 16.8004 9.80039 16.8004H10.5004C10.887 16.8004 11.2004 16.487 11.2004 16.1004M11.2004 11.9004V11.633C11.2004 11.3679 11.3502 11.1255 11.5873 11.0069L15.7873 8.90692C16.2528 8.6742 16.8004 9.01265 16.8004 9.53301V18.4678C16.8004 18.9881 16.2528 19.3266 15.7873 19.0939L11.5873 16.9939C11.3502 16.8753 11.2004 16.6329 11.2004 16.3678V16.1004M19.6004 9.80039L21.0004 8.40039M19.6004 18.2004L21.0004 19.6004M19.6004 14.0004H21.7004" stroke="#1146D1" stroke-width="1.68" stroke-linecap="round"/>
</svg>
