<svg width="14" height="14" viewBox="0 0 14 14" fill="none" xmlns="http://www.w3.org/2000/svg">
<path d="M0 13.5286L0.951388 10.0548C0.364605 9.03826 0.0558904 7.88491 0.0562668 6.70343C0.0577707 3.00714 3.06579 0 6.76221 0C8.55596 0.000874955 10.2396 0.698941 11.5058 1.96608C12.7717 3.23321 13.4688 4.91746 13.4681 6.70883C13.4665 10.4049 10.458 13.4125 6.76221 13.4125C6.76193 13.4125 6.76248 13.4125 6.76221 13.4125H6.75932C5.63712 13.4121 4.53439 13.1305 3.55486 12.5964L0 13.5286Z" fill="white"/>
<path d="M6.76432 1.13232C3.68986 1.13232 1.18961 3.63167 1.18848 6.70374C1.18802 7.75649 1.48264 8.78185 2.04053 9.66906L2.17316 9.87983L1.60996 11.9358L3.7195 11.3827L3.9232 11.5034C4.77876 12.0112 5.75966 12.2797 6.76003 12.2802H6.76215C9.83422 12.2802 12.3345 9.78059 12.3357 6.70826C12.3363 5.21945 11.7571 3.81943 10.7048 2.76631C9.6524 1.71319 8.25313 1.13295 6.76432 1.13232Z" fill="url(#paint0_linear_1983_1186)"/>
<path fill-rule="evenodd" clip-rule="evenodd" d="M5.08595 3.90082C4.96036 3.62187 4.82823 3.61622 4.70892 3.61132C4.6112 3.60717 4.49942 3.60742 4.38777 3.60742C4.27599 3.60742 4.0945 3.64937 3.94102 3.81704C3.78742 3.98471 3.35449 4.39001 3.35449 5.21442C3.35449 6.03884 3.95497 6.83536 4.03861 6.94727C4.12238 7.05905 5.19773 8.80483 6.90094 9.4764C8.31628 10.0345 8.60427 9.92352 8.9116 9.89563C9.21881 9.86775 9.90293 9.49034 10.0425 9.09911C10.1821 8.70787 10.1821 8.37266 10.1403 8.30258C10.0984 8.23262 9.9867 8.1908 9.81903 8.10702C9.65149 8.02325 8.8277 7.61783 8.6741 7.56194C8.5205 7.50605 8.40884 7.47816 8.29706 7.64583C8.18541 7.81351 7.86451 8.1908 7.76667 8.30258C7.66896 8.41448 7.57124 8.42842 7.40357 8.34465C7.23603 8.26063 6.69634 8.08391 6.05618 7.51308C5.55807 7.06897 5.22185 6.5205 5.12401 6.35283C5.0263 6.18515 5.11359 6.09448 5.19761 6.01095C5.27284 5.93585 5.36515 5.81528 5.44905 5.71744C5.53257 5.6196 5.56058 5.54977 5.61635 5.43811C5.67224 5.3262 5.64435 5.22837 5.6024 5.14459C5.56058 5.06082 5.23491 4.23214 5.08595 3.90082Z" fill="white"/>
<defs>
<linearGradient id="paint0_linear_1983_1186" x1="6.64863" y1="1.80132" x2="6.70517" y2="11.3278" gradientUnits="userSpaceOnUse">
<stop stop-color="#57D163"/>
<stop offset="1" stop-color="#23B33A"/>
</linearGradient>
</defs>
</svg>
